<?xml version="1.0" encoding="utf-8"?>
<!-- Generator: Adobe Illustrator 25.0.1, SVG Export Plug-In . SVG Version: 6.00 Build 0)  -->
<svg version="1.0" id="Ñëîé_1" xmlns="http://www.w3.org/2000/svg" xmlns:xlink="http://www.w3.org/1999/xlink" x="0px" y="0px"
	 viewBox="0 0 1187.4 900.6" style="enable-background:new 0 0 1187.4 900.6;" xml:space="preserve">
<style type="text/css">
	.st0{fill:url(#SVGID_1_);}
	.st1{fill:url(#SVGID_2_);}
	.st2{fill:url(#SVGID_3_);}
	.st3{fill:#F7E29D;}
	.st4{fill:url(#SVGID_4_);}
</style>
<g>
	<linearGradient id="SVGID_1_" gradientUnits="userSpaceOnUse" x1="592.4951" y1="803.8372" x2="592.4951" y2="108.6628">
		<stop  offset="0" style="stop-color:#161F4E"/>
		<stop  offset="1" style="stop-color:#3E64AD"/>
	</linearGradient>
	<path class="st0" d="M592.5,803.8c105.2-13,194.5-93.5,229.4-153.9c31.8-55.2,45-91.5,45.1-175.1V173.1c0,0-18.6,0-48.1,0
		c-32.1,0-61.4-15.3-100.9-34.6c-36.1-17.6-71.1-29.8-125.5-29.8h0c-54.3,0-89.4,12.2-125.5,29.8c-39.5,19.3-68.8,34.6-100.9,34.6
		c-29.5,0-48.1,0-48.1,0v301.7c0.2,83.7,13.3,119.9,45.1,175.1C398,710.4,487.3,790.8,592.5,803.8L592.5,803.8z"/>
	<linearGradient id="SVGID_2_" gradientUnits="userSpaceOnUse" x1="592.4956" y1="784.1028" x2="592.4956" y2="128.5051">
		<stop  offset="0" style="stop-color:#CFB46A"/>
		<stop  offset="0.13" style="stop-color:#D8C07F"/>
		<stop  offset="0.3519" style="stop-color:#E6D39C"/>
		<stop  offset="0.5728" style="stop-color:#F0E1B3"/>
		<stop  offset="0.7902" style="stop-color:#F6EAC0"/>
		<stop  offset="1" style="stop-color:#F8EDC5"/>
	</linearGradient>
	<path class="st1" d="M727.4,186.5v95.2l0.7,0h99.2l0.6,0c0-10.6,0-55.8,0-69.5c-2.8,0-9.1,0-9.1,0
		C786.5,212.1,758.1,201,727.4,186.5L727.4,186.5v-21l0-0.7c32.8,15.9,60.2,27.8,91.4,27.8c0,0,14.8,0,28.6,0
		c0,34.2,0,282.2,0,282.2c-0.1,78.1-11.3,111.2-42.5,165.4c-17.7,30.6-47.9,63-83,88.8c-28.8,21.2-74.5,47.8-129.5,55.2v-19.7
		c49.7-7.3,91.4-31.7,117.9-51.2c32.5-23.9,61.5-54.8,77.6-82.8c9.7-16.8,17.5-31.3,23.5-46.5l-0.9,0H714l-0.8,0.1l16.6-26.7
		l24.3-39.2l0.9,0h70.4l0.9-0.1c1.1-12.7,1.6-26.9,1.7-43.2l0-9.1h-40.7l-0.8,0L803,439l4.1-6.7l-18.7-32.5l1,0h37.8l0.7-0.1
		c0-0.1,0-35.8,0-51.6l0.1-0.7h-68.9l-0.8,0l-15.4-26.7l-43.2-75h-71.6l-0.8-1.3l-34.9-60l-35.1,60.4l-0.7,1h-71.5L457.5,294
		l0.1-0.7V186.7l0-0.3l0.1,0.1l27.3,30l74.4-21.9l33.2-56.7l33.2,56.7l74.4,21.9l27.1-29.7L727.4,186.5z M726.4,164.3
		c-3.3-1.6-6.7-3.2-10.1-4.9l-6.9-3.4c-31.6-15.4-60.6-25.6-102.5-27.5l15,20.7c30.5,3.3,53.8,12,78.9,24.3l6.9,3.4
		c1.7,0.8,3.3,1.6,5,2.4L726.4,164.3z M472.3,179.3c1.7-0.8,3.3-1.6,5-2.4l6.9-3.4c25.2-12.3,48.5-21,79-24.3l14.9-20.7
		c-41.9,1.9-70.9,12-102.5,27.5l-6.9,3.4c-3.4,1.7-6.8,3.3-10.1,4.9L472.3,179.3z M655.3,669.5v-47.7h-13.5v47.7H655.3z M627,649.1
		v20.3h-42.5v-47.7h34.1l8.4,8.1v10.8l-4.6,4.2L627,649.1z M613.5,631.1h-15.6v9.7h15.6V631.1z M613.5,648.8h-15.6v11.3h15.6V648.8z
		 M712.7,649.1v20.3h-42.5v-47.7h34.1l8.4,8.1v10.8l-4.6,4.2L712.7,649.1z M699.2,631.1h-15.6v9.7h15.6V631.1z M699.2,648.8h-15.6
		v11.3h15.6V648.8z M543.9,637.7h19l8.5,8.5v23.2h-41v-47.7h13.5V637.7z M557.9,647h-14.1v13.2h14.1V647z M505.9,669.5h14.1
		l-14-47.7h-20.1l-14,47.7h14.1l10-34L505.9,669.5z M357.1,212.1c2.8,0,9.1,0,9.1,0c32.4,0,60.8-11.1,91.4-25.7l0-0.1V165l0-0.2
		c-32.8,15.9-60.2,27.8-91.4,27.8c0,0-14.8,0-28.6,0L357.1,212.1z"/>
	<linearGradient id="SVGID_3_" gradientUnits="userSpaceOnUse" x1="582.7695" y1="784.1028" x2="582.7695" y2="192.595">
		<stop  offset="0" style="stop-color:#63201F"/>
		<stop  offset="2.039176e-02" style="stop-color:#652120"/>
		<stop  offset="0.2703" style="stop-color:#7C2A29"/>
		<stop  offset="0.519" style="stop-color:#8E3230"/>
		<stop  offset="0.7638" style="stop-color:#993634"/>
		<stop  offset="1" style="stop-color:#9C3835"/>
	</linearGradient>
	<path class="st2" d="M828,347.4h-68.9l-0.8,0l-15.4-26.7l1.1,0h83.9l0,0.6c0,8.2,0,16.5,0,24.7L828,347.4z M827.9,464.9
		c0-6.1,0-14.8,0-25.2l0.1-0.6h-24.3l-0.7,0l-16.5,26.7l0.8,0h40.7L827.9,464.9z M337.5,192.6c0,34.2,0,282.2,0,282.2
		c0.1,78.2,11.3,111.3,42.5,165.4c17.7,30.6,47.9,63,83,88.8c28.8,21.2,74.5,47.8,129.5,55.2v-19.7c-49.7-7.3-91.4-31.7-117.9-51.2
		c-32.5-23.9-61.5-54.8-77.6-82.8c-27.6-47.9-39.7-77.1-39.9-155.7c0,0,0-203.4,0-262.6L337.5,192.6z M811.9,583
		c3.2-8.2,5.9-16.7,8.2-25.8l-0.6,0h-89l-0.8,0L713.2,584l0.8-0.1h96.6l0.9,0L811.9,583z"/>
	<path class="st3" d="M458,399.9h45.1L478,443.5l-12.8,22.2h-26.5l-0.5,0c-9-14.5-16.4-26.4-20.4-32.8c6.5-11.3,23.4-40.4,39.5-68.4
		l0.3-0.6v36L458,399.9z"/>
	<path class="st3" d="M746.7,465.7h-70.1l-0.2,0l-38-65.8h88.4l0.6,0v-36l0.1,0.2c16.8,29.1,32.9,57,39.7,68.8
		c-4,6.5-11.4,18.4-20.4,32.8L746.7,465.7z"/>
	<polygon class="st3" points="649.1,461.4 686.3,525.8 670,554.1 614.4,554.1 565.6,507.9 565.6,484.1 620,461.4 648.7,461.4 	"/>
	<path class="st3" d="M491.6,551.8c-7.9-12.7-17.2-27.8-26.7-42.9l28-48.5l51.3,24v23.2L491.6,551.8z"/>
	<polygon class="st3" points="607.2,583.9 531.4,583.9 515.1,557.2 543.7,533.7 566.1,533.7 602.1,570.9 	"/>
	<path class="st3" d="M505,281.6c8.3,0,54.6,0,70.7,0l16.8,20.5l16.8-20.5c30.5,0,58.5,0,70.7,0c5.9,10.2,19.3,33.4,34.1,59l0.3,0.5
		l-87.5,6.6l30.7-31.2h-25.6l-33.5,57.2l37.7,65.1H505.4l37.7-65.3v-57h-21.9l11.6,30.7l-62.1-6.1
		C470.7,341.1,499.1,291.9,505,281.6z"/>
	<linearGradient id="SVGID_4_" gradientUnits="userSpaceOnUse" x1="582.303" y1="583.8918" x2="582.303" y2="159.3474">
		<stop  offset="0" style="stop-color:#CBB16C"/>
		<stop  offset="1" style="stop-color:#E0CC9A"/>
	</linearGradient>
	<path class="st4" d="M638.9,400.2l35.3,15.8l15.3,27.4h46.3l11,22l0.1,0.2l-0.2,0h-70.1l-0.2,0l-38-65.8L638.9,400.2z M669.3,553
		L657,531.8h-34.9l-33.5-32.5l5.6-2.8l-27.7-11.9l-0.9-0.5v23.7l48.8,46.3H670L669.3,553z M492.9,460.4l-28,48.5
		c9.4,15.2,18.8,30.2,26.7,42.9l0.1-0.9l7.1-27.4l-10.9-11.6l14.2-23.7l-8.8-26L492.9,460.4z M605.6,582.7l-26-21.2h-45.1l17.9-15.1
		l-8.1-11.9l-0.5-0.9l-28.6,23.5l16.3,26.7h75.8L605.6,582.7z M635.3,438.5l-35-22.2h-58.1l18.6-34.2V340l-17-22.8l-0.7-0.7v57
		l-37.7,65.3H636L635.3,438.5z M532.4,346.9L516.8,323l-13-3.3l11.4-19.5l-9.8-17.7l-0.4-0.9c-5.9,10.2-34.3,59.5-34.3,59.5
		l62.1,6.1L532.4,346.9z M592.5,212.4l-19.7,33.5h39.3L592.5,212.4z M477,443.5h-31.1L438,430l16.1-26.3l3.5-3.8v-36l-0.3,0.6
		c-16.2,28-33,57.1-39.5,68.4c4,6.5,11.4,18.4,20.4,32.8l0.5,0h26.5l12.8-22.2L477,443.5z M457.5,208.2v85.1l-0.1,0.7l27.7-48.2
		h71.5l0.7-1l35.1-60.4v-0.9v-24.2l-31.8,53.9l-76.3,23.2l-25.7-27.2L457.5,208.2z M717.4,275.2v-56.5l-16.9,17.8l-76.3-23.2
		l3.6,30.5l0.3,2.1h71.6l17.7,30.8L717.4,275.2z"/>
</g>
</svg>
