<?xml version="1.0" encoding="utf-8"?>
<!-- Generator: Adobe Illustrator 25.0.1, SVG Export Plug-In . SVG Version: 6.00 Build 0)  -->
<svg version="1.0"
	 id="svg" sodipodi:docname="maurip.svg" xmlns:cc="http://creativecommons.org/ns#" xmlns:dc="http://purl.org/dc/elements/1.1/" xmlns:inkscape="http://www.inkscape.org/namespaces/inkscape" xmlns:rdf="http://www.w3.org/1999/02/22-rdf-syntax-ns#" xmlns:sodipodi="http://sodipodi.sourceforge.net/DTD/sodipodi-0.dtd" xmlns:svg="http://www.w3.org/2000/svg"
	 xmlns="http://www.w3.org/2000/svg" xmlns:xlink="http://www.w3.org/1999/xlink" x="0px" y="0px" viewBox="0 0 408.2 296"
	 style="enable-background:new 0 0 408.2 296;" xml:space="preserve">
<style type="text/css">
	.st0{fill-rule:evenodd;clip-rule:evenodd;fill:#EC7C0C;}
	.st1{fill-rule:evenodd;clip-rule:evenodd;fill:#FBFBFB;}
	.st2{fill-rule:evenodd;clip-rule:evenodd;fill:#24336C;}
	.st3{fill-rule:evenodd;clip-rule:evenodd;fill:#9B9BBB;}
	.st4{fill-rule:evenodd;clip-rule:evenodd;fill:#606797;}
	.st5{fill-rule:evenodd;clip-rule:evenodd;fill:#4E518F;}
	.st6{fill-rule:evenodd;clip-rule:evenodd;fill:#6C65AC;}
	.st7{fill-rule:evenodd;clip-rule:evenodd;fill:#6C7CA4;}
	.st8{fill-rule:evenodd;clip-rule:evenodd;fill:#041154;}
	.st9{fill:#EF790B;}
	.st10{fill:#26326F;}
</style>
<sodipodi:namedview  bordercolor="#666666" borderopacity="1" gridtolerance="10" guidetolerance="10" id="namedview15" inkscape:current-layer="svg" inkscape:cx="387.31748" inkscape:cy="227.91181" inkscape:pageopacity="0" inkscape:pageshadow="2" inkscape:window-height="705" inkscape:window-maximized="1" inkscape:window-width="1366" inkscape:window-x="-8" inkscape:window-y="-8" inkscape:zoom="1.4142136" objecttolerance="10" pagecolor="#ffffff" showgrid="false">
	</sodipodi:namedview>
<g id="g37" transform="matrix(0.62524717,0,0,0.62524717,-25.923714,1.9976546)">
	<path id="path0" class="st0" d="M358.6,38.4c-0.9,0-3.9,0.1-6.8,0.2c-37,1.3-70.5,7.3-99.2,17.7c-9.3,3.4-20.6,8.6-26.2,12.1
		l-1,0.6l-0.5,3.3c-4,24.6-6.7,54.9-7.5,83.5c-0.3,10.9-0.1,38.3,0.2,38.7c0,0,2-0.5,4.4-1.2c96-27.6,195.7-27.4,290.9,0.7
		c2.6,0.8,4.8,1.4,4.9,1.4c0.7,0,0.8-29.8,0.2-45.7c-1-26.2-3.6-53.4-7.3-76.9l-0.6-3.8l-1-0.6C488.1,55.1,448.2,44,407.8,40.1
		C394.3,38.8,370.2,37.9,358.6,38.4 M312.9,99.4c4.9,1.1,12.6,2.9,17.2,3.9c18.3,4.2,23.8,5.4,25.5,5.8c1,0.2,3.2,0.7,5,1.2l3.3,0.8
		l8.1-2c16.9-4.2,23.8-5.9,29.1-7.2l5.5-1.4l3.2,0.3c1.8,0.2,7,0.6,11.6,1c10.1,0.9,16.7,1.5,20.7,1.8c1.6,0.1,7.2,0.6,12.3,1.1
		c16.8,1.5,18.7,1.7,35.2,3.1c5.9,0.5,5.8,0.5,5.2,0.6c-0.9,0.2-26.2,4.2-45.6,7.1c-4.2,0.6-12.1,1.8-17.5,2.7
		c-5.4,0.8-10.2,1.5-10.7,1.6c-1.4,0.2-1.4,0.2-0.6,2.1c0.4,0.9,0.7,1.7,0.7,1.7c-0.1,0.1-8,0.4-15.1,0.6l-6.6,0.2l-0.4,0.6
		l-0.4,0.6l0.5,1.1c1,2.3,1.4,4.4,1.6,9l0.1,2.2l-0.6-0.3c-0.3-0.1-1.3-0.6-2-1c-6.1-3.1-12.7-3.6-22.2-1.6
		c-23.8,4.8-42.9,3.2-53.4-4.5c-3.3-2.4-6.5-3.2-16.9-4.1c-1.3-0.1-2.4-0.3-2.4-0.3s1.2-1,2.7-2c5.1-3.6,10.4-7.6,10.2-7.7
		c-0.4-0.4-19-2.2-31.1-3.1c-1.3-0.1-2.9-0.2-3.6-0.3c-1.7-0.1-10-0.5-14.7-0.7c-5.7-0.2-6.1-0.3-16.1-1.1c-9.1-0.7-10.7-0.9-10.4-1
		c0.1,0,5.9-1.2,12.9-2.6c7-1.4,17.2-3.5,22.6-4.6c5.4-1.1,13.7-2.8,18.5-3.8c4.8-1,8.7-1.8,8.8-1.8c0.1,0,0.3,0,0.4,0
		C303.9,97.4,308,98.3,312.9,99.4"/>
	<path id="path1" class="st1" d="M351.3,33.8c-5,0.1-10.3,0.4-16.2,0.9c-1.6,0.1-3.6,0.3-4.4,0.3c-1.8,0.1-8.2,0.8-10.8,1.2
		c-1,0.1-2.6,0.3-3.5,0.4c-0.9,0.1-3.2,0.4-5,0.7c-1.8,0.3-4.5,0.6-6,0.8c-2.4,0.3-7.1,1.2-11.3,2c-6.5,1.3-9,1.8-12.9,2.8
		c-5.3,1.3-7.7,1.9-9.3,2.4c-0.6,0.2-1.7,0.5-2.4,0.6c-1.2,0.2-2.6,0.7-9.6,2.9c-5.5,1.8-8.5,2.8-12.3,4.4c-0.7,0.3-1.6,0.6-2,0.8
		c-0.4,0.1-1.9,0.7-3.3,1.4c-1.5,0.6-3.3,1.5-4.2,1.8c-2.9,1.3-4.5,2-7.3,3.5c-1.5,0.8-2.8,1.5-2.9,1.5c-0.1,0-3.3,1.9-5.1,3.1
		c-0.8,0.5-1.5,0.9-1.6,1c-0.2,0.1-1.1,5.5-1.1,6.4c0,0.3-0.2,1.9-0.5,3.5c-0.3,1.7-0.6,3.9-0.8,4.9c-0.1,1.1-0.6,4.4-1,7.3
		c-0.8,5.8-1.6,12.9-2,17.8c-0.1,1.7-0.3,3.8-0.4,4.7c-0.4,3.5-1.2,12.7-1.3,15.2c-0.6,9.6-1,15.1-1.3,23.4
		c-0.3,6-0.2,42.1,0.1,47.9c0.3,6.3,0.5,9.8,0.8,13.7c0.1,1.7,0.3,3.8,0.3,4.8c0.1,1.6,0.9,9.1,1.3,13c0.1,1.1,0.4,3.2,0.5,4.7
		c0.7,6.7,1.9,14.4,3.6,23.3c0.4,1.9,0.7,4,0.8,4.7c0.3,2.2,2.7,12.1,4.4,18.8c0.7,2.5,1.8,6.4,2.7,8.9c0.3,0.9,0.7,2.2,0.8,2.8
		c0.4,1.8,1.7,5.3,4.5,11.9c0.3,0.7,1.2,2.6,2,4.2c0.8,1.6,1.7,3.5,2.1,4.2c0.7,1.4,1.3,2.5,2.5,4.6c0.5,0.8,0.9,1.6,0.9,1.7
		c0,0.2,3.4,5.6,5.4,8.7c2.8,4.2,4,6,4.5,6.6c0.3,0.3,0.9,1.1,1.4,1.9c1.9,2.8,7.3,9.5,8,10.2c0.2,0.2,0.5,0.6,0.7,0.9
		c0.2,0.3,1,1.2,1.7,2c0.7,0.8,1.6,1.8,1.9,2.2c1.7,2.2,11,11.9,15.4,16.2c5.9,5.7,10.7,10.2,11.4,10.8c0.3,0.2,1.2,1,2.1,1.8
		s1.7,1.6,2,1.7c0.2,0.2,1,0.8,1.8,1.5c0.7,0.7,1.8,1.6,2.4,2.1c0.6,0.5,1.5,1.2,1.9,1.6c0.5,0.4,1.6,1.4,2.4,2.1
		c0.9,0.7,2.1,1.7,2.7,2.2c2.4,2,2.7,2.2,3.6,2.9c1.1,0.8,2.4,1.9,3,2.4c0.2,0.2,0.9,0.7,1.4,1.1c0.6,0.4,1.6,1.2,2.4,1.9
		c0.8,0.6,1.9,1.5,2.4,1.8c0.5,0.4,1.4,1,2,1.5c0.6,0.5,1.8,1.4,2.7,2c0.9,0.6,2.7,2,4,3c1.3,1,2.7,2,3.1,2.2
		c0.4,0.2,1.1,0.7,1.6,1.1c0.5,0.4,1.8,1.3,2.9,2.1c1.1,0.7,2.7,1.9,3.7,2.5c1,0.7,2.1,1.4,2.5,1.7c0.4,0.2,1.3,0.8,1.9,1.3
		c5.2,3.5,10.3,6.8,11,7.2c0.4,0.2,1,0.6,1.4,0.9c1,0.7,4,2.6,5.1,3.2c0.5,0.3,1,0.6,1.3,0.8c0.2,0.2,0.5,0.3,0.6,0.3
		c0.1,0,0.6,0.3,1.2,0.7c4.4,2.8,4.2,2.8,8.6,0c0.6-0.4,1.2-0.7,1.2-0.7c0.1,0,0.3-0.1,0.6-0.3c0.2-0.2,0.8-0.5,1.3-0.8
		c1.1-0.6,4.2-2.5,5.1-3.2c0.4-0.3,1-0.6,1.2-0.7c0.2-0.1,1.2-0.7,2.2-1.3c0.9-0.6,3.1-2,4.8-3.1c1.7-1.1,3.4-2.2,3.7-2.5
		c0.4-0.3,1-0.7,1.4-0.9c0.4-0.2,1.2-0.7,1.7-1.1c1.1-0.8,2.6-1.9,5.9-4.1c1.2-0.8,2.4-1.7,2.8-2c0.3-0.3,0.8-0.7,1.1-0.8
		c0.3-0.1,1.6-1.1,3-2.1c1.4-1,2.8-2,3.2-2.3s1.1-0.8,1.7-1.2c1.3-1,2.8-2.1,4.8-3.6c0.9-0.7,1.9-1.5,2.2-1.8c0.3-0.3,1-0.8,1.5-1.1
		c0.5-0.3,1.6-1.2,2.4-1.9c0.8-0.7,2-1.6,2.5-2c0.5-0.4,1.5-1.1,2.1-1.7s1.5-1.2,1.9-1.6c4.6-3.7,8.6-7.2,9.6-8.1
		c0.4-0.4,0.8-0.8,0.9-0.8c0.2,0,0.9-0.6,2.8-2.5c0.6-0.6,1.7-1.6,2.4-2.1c0.7-0.5,1.4-1.2,1.6-1.4s1.1-1.1,2.1-2
		c0.9-0.8,2.2-2,2.8-2.7c0.6-0.6,2.4-2.3,3.9-3.8c4-3.9,14.9-15.4,15.4-16.2c0.1-0.2,0.8-1,1.6-1.8c0.8-0.8,1.7-2,2.2-2.5
		c0.4-0.6,1.3-1.6,2-2.4c0.6-0.8,2.1-2.6,3.2-4c1.1-1.4,2-2.6,2.1-2.7c0.2-0.2,1.2-1.5,1.2-1.6c0-0.1,0.8-1.2,1.9-2.6
		c0.4-0.5,1.2-1.6,1.7-2.4c0.5-0.8,1.6-2.3,2.3-3.4c1.9-2.8,5-7.7,6.5-10.6c0.4-0.8,1.1-2,1.4-2.6c1.4-2.5,6.1-12.3,6.1-12.8
		c0-0.1,0.3-1,0.8-2c1-2.4,2.4-6.3,2.9-8c0.2-0.7,0.6-2,0.8-2.8c1.8-5.8,2.7-8.9,4.4-16c1.4-5.8,2.4-10.1,2.8-12.3
		c0.2-1.1,0.6-3.2,0.8-4.7c0.6-3.3,1.8-9.9,2-11.5c0.7-4.5,1.5-10.8,1.6-12.2c0.1-0.9,0.2-2.5,0.3-3.5c0.5-3.7,1.3-11.6,1.4-14.2
		c0.1-1.5,0.2-3.6,0.3-4.7c0.8-9.4,1-16.9,1.1-33.6c0.1-18.9-0.2-28.3-1.2-43.9c-0.1-2.1-0.3-5-0.4-6.4c-0.1-1.5-0.4-5.5-0.8-8.9
		c-0.3-3.4-0.7-7.7-0.8-9.5c-0.1-1.8-0.5-5.2-0.7-7.6c-0.3-2.4-0.6-5-0.7-5.9c-0.2-1.7-1.3-10.2-2.2-16c-0.3-1.9-0.6-4.3-0.8-5.3
		c-0.3-1.9-1-6.4-1.1-6.4c0,0-0.4-0.2-0.9-0.5c-0.5-0.2-1.1-0.7-1.4-0.9c-1.8-1.4-10.5-6-14-7.4c-0.7-0.3-1.6-0.7-2-0.9
		c-1.1-0.6-5.3-2.3-6.1-2.6c-0.4-0.1-1.3-0.5-2-0.8c-3.1-1.3-5.8-2.3-8.1-3c-1.3-0.4-3.5-1.1-4.8-1.6c-4.4-1.4-7.2-2.3-8.5-2.6
		c-0.7-0.2-2.1-0.5-3.2-0.8c-5.1-1.4-11.1-2.9-16.5-4c-1.6-0.3-3.8-0.8-4.9-1c-3.8-0.8-9.2-1.7-11.8-2.1c-1.5-0.2-4.2-0.6-6-0.8
		c-1.8-0.3-4.1-0.6-5-0.7c-0.9-0.1-2.5-0.3-3.5-0.4c-2.6-0.4-9.1-1-10.8-1.2c-0.8-0.1-2.8-0.2-4.4-0.3
		C389.5,33.7,367.1,33.3,351.3,33.8 M379.1,38.4c53.1,1.5,100.2,12.3,129.5,29.6c1.9,1.1,1.6,0.5,2.3,4.8c5.9,36.9,9.2,91.6,7.3,121
		l-0.1,1.6l-0.6-0.1c-0.3-0.1-1.3-0.3-2.2-0.6c-18.2-5.6-43.6-11.5-64-14.9c-18.5-3-31-4.5-52.1-6c-56.3-4.1-121.7,3.2-178.3,19.9
		c-1.7,0.5-3.2,0.9-3.2,0.9c-0.6-0.6-0.6-30.3-0.1-44.9c1-25.9,3.8-55.5,7.4-77.9l0.4-2.7l1.4-0.9c27.1-16.7,78.5-28.6,128.3-29.7
		c2.7-0.1,4.9-0.1,4.9-0.2C360.2,38.2,373.6,38.3,379.1,38.4 M302.3,97.6c-0.8,0.2-5.8,1.2-11.2,2.3c-5.4,1.1-13.9,2.8-18.9,3.9
		c-5,1-14.2,2.9-20.4,4.1c-12.8,2.6-12.2,2.3-6.6,2.8c1.8,0.1,5.4,0.4,8.1,0.7c6.5,0.5,9.1,0.7,16,1c15.2,0.7,31.8,2,43.3,3.4
		c2.1,0.3,3.8,0.5,3.9,0.6c0.2,0.2-4.7,3.9-9.7,7.4c-1.8,1.2-3.2,2.3-3.1,2.3c0.1,0.1,1.2,0.2,2.5,0.3c10.9,0.9,12.9,1.5,17.5,4.6
		c10.9,7.4,28.5,8.7,52.6,4c8.8-1.7,15.5-1.5,20.3,0.8c0.7,0.3,1.9,0.9,2.7,1.3c1.9,0.9,1.8,1,1.7-1c-0.3-5.6-0.6-7.1-1.6-9.3
		l-0.5-1.1l0.4-0.6l0.4-0.6l1.7,0c0.9,0,2.3,0,3-0.1c0.7,0,4.8-0.2,9.1-0.3c4.3-0.1,7.9-0.3,7.9-0.3c0,0-0.3-0.8-0.7-1.8
		c-0.4-0.9-0.7-1.8-0.7-1.8c0,0,2.9-0.5,6.4-1c3.5-0.5,8.9-1.3,11.9-1.8c3-0.5,7.5-1.2,10-1.5c9.3-1.4,25.1-3.8,28.8-4.4
		c2.9-0.5,14.2-2.3,15.8-2.5c2.7-0.4,2.5-0.5-2.1-0.9c-2.4-0.2-6.5-0.6-9.1-0.8c-2.6-0.2-5.2-0.4-5.7-0.5
		c-0.9-0.1-17.9-1.6-21.6-1.9c-1.1-0.1-5.8-0.5-10.5-0.9s-9.9-0.9-11.5-1s-6.3-0.6-10.2-0.9c-4-0.4-9.1-0.8-11.3-1l-4-0.4l-6.8,1.7
		c-3.7,0.9-8.8,2.2-11.2,2.8c-4.5,1.1-16.1,4-21.7,5.3l-3.1,0.8l-4.8-1.1c-2.6-0.6-6.5-1.5-8.5-1.9s-7.1-1.6-11.2-2.6
		c-8.8-2-21-4.8-29.6-6.8c-3.3-0.8-6-1.4-6.1-1.4C303.7,97.3,303,97.4,302.3,97.6 M306,100.8c1.4,0.3,4.6,1.1,7.2,1.7
		c2.6,0.6,6.2,1.4,8.1,1.8c4.9,1.1,7.3,1.7,11,2.5c1.8,0.4,6.9,1.6,11.3,2.6c4.4,1,9,2,10.2,2.3c1.2,0.3,3.9,0.9,6.1,1.4l4,0.9
		l6.4-1.6c3.5-0.9,10.8-2.7,16.3-4c5.5-1.3,12.3-3,15.2-3.7l5.3-1.3l4.4,0.4c2.4,0.2,8.1,0.7,12.7,1.1c10.9,1,18.1,1.6,27.3,2.4
		c14.8,1.3,19.7,1.7,19.7,1.9c0,0.1-0.2,0.1-0.4,0.1c-0.2,0-2.1,0.3-4.1,0.6c-2.1,0.3-8.4,1.3-14.2,2.2c-5.7,0.9-12.9,2-15.8,2.4
		s-6.1,0.9-7,1.1c-2.6,0.4-10.5,1.6-12.2,1.8c-0.9,0.1-1.7,0.3-1.7,0.3c0,0,0.3,0.7,0.6,1.5c0.8,1.8,0.8,1.7-1.7,1.7
		c-1.1,0-4.7,0.1-8.1,0.3c-3.4,0.1-6.7,0.2-7.3,0.2c-1.1,0-1.2,0-1.4,0.4c-0.3,0.6-1.7,2.1-2.5,2.6l-0.7,0.4l0.6,0.7
		c1.2,1.4,2.3,4.1,2.5,6.4c0.1,1,0.1,1.1-0.2,1c-0.2-0.1-1-0.3-1.8-0.6c-5-1.8-11.4-1.9-19.3-0.4c-18.8,3.5-33.3,3.7-43.4,0.4
		c-3.2-1-5.9-2.4-8.4-4.2c-3-2.2-7.2-3.6-11.8-4.1c-1.5-0.1-1.5-0.1,0.7-1.8c2.3-1.7,5.7-4.5,7.2-5.9c0.6-0.6,1.5-1.3,1.9-1.6
		c0.5-0.3,0.8-0.5,0.7-0.5c-0.1,0-1.5-0.2-3.2-0.5c-6-1-16.8-2.2-26-2.9c-10.9-0.9-16.5-1.2-28.9-1.8c-2.2-0.1-3.9-0.2-4-0.2
		c-0.1-0.1,0-0.1,9.6-2.1c15.4-3.1,31-6.3,32.6-6.7C303.5,100.3,304.6,100.5,306,100.8 M300,103.5c-1.9,0.4-6.5,1.3-10.1,2.1
		c-7.5,1.5-8.6,1.8-8,1.8c11.1,0.4,27,2.3,40.8,4.6c1.5,0.3,2.1,0.3,4.1,0.1c4.7-0.3,8.1,0.4,11.9,2.6l1.1,0.6l8.6-0.1
		c4.7-0.1,9-0.2,9.6-0.2c1.1-0.1,0.5-0.3-20.1-4.8c-4.9-1.1-14.6-3.2-21.6-4.8c-7-1.6-12.7-2.8-12.8-2.8
		C303.5,102.8,301.9,103.1,300,103.5 M403,107.1c-2.1,0.5-7.7,1.9-12.5,3.1c-4.8,1.2-12.6,3.1-17.3,4.3c-9.5,2.3-8.9,2.2-15.2,2.4
		c-1.9,0.1-5.4,0.2-7.7,0.3c-2.3,0.1-5.7,0.3-7.7,0.4l-3.5,0.2l-3.2-1.4c-6.4-2.7-8.8-2.4-13.7,2c-1.8,1.6-1.7,1.3-1.1,3.4l0.5,1.8
		l1.2,0.6c0.7,0.3,2.2,1.3,3.4,2.1c4,2.7,6.9,3.8,11.9,4.8c9,1.8,23,1.3,36-1.3c7.3-1.5,13.6-1.8,17.8-1c0.7,0.1,1.5,0.3,1.9,0.4
		l0.6,0.1l-0.5-0.9c-0.3-0.5-1.1-1.6-2.1-2.5c-0.9-0.9-1.6-1.7-1.5-1.8s0.9-0.5,1.9-0.9c1-0.4,2-1,2.2-1.2l0.5-0.4l-2.2,0.1
		c-5.7,0.3-6,0.2-9.8-0.8l-3.5-0.9l-1.9,0.4c-1.1,0.2-4.9,1-8.6,1.8c-8.5,1.8-17.7,3.7-17.7,3.7c-0.2-0.2-0.4-2.1-0.3-2.3
		c0.1-0.1,2.7-0.7,5.8-1.3c3.1-0.6,8.9-1.9,12.8-2.7c3.9-0.8,7.7-1.6,8.6-1.8l1.5-0.3l3.8,1l3.8,1l9.8-0.3c5.4-0.2,11.2-0.4,13-0.4
		c1.7-0.1,3.1-0.2,3.1-0.3c0-0.1-0.2-0.7-0.5-1.3c-0.3-0.6-0.5-1.2-0.4-1.3c0.1-0.1,3.5-0.6,7.6-1.2c4.1-0.6,10.6-1.6,14.5-2.2
		c3.9-0.6,9-1.4,11.3-1.7c4.8-0.7,5.1-0.8,3-1c-0.9-0.1-4-0.3-7.1-0.6c-3-0.3-7.8-0.7-10.5-0.9s-8.7-0.8-13.2-1.2
		C405.8,105.9,407.5,105.9,403,107.1 M328.2,117.9c1.6,0.8-0.5,3.5-2.8,3.5c-1.5,0-2.7-0.7-2.4-1.5
		C323.9,117.7,326.1,116.8,328.2,117.9 M374.2,187.1c0,0.1-0.4,1.6-1,3.3c-0.6,1.7-1.7,4.9-2.5,7.2c-0.8,2.2-1.9,5.5-2.5,7.2
		c-0.6,1.7-1.6,4.7-2.3,6.6c-2.9,8.3-4.5,10.8-8.1,12.1c-1.8,0.7-9.2,0.4-9.6-0.3c-0.1-0.1,0.4-5.4,0.5-5.5c0,0,0.2,0,0.4,0.1
		c1.3,0.7,4.6,1,5.9,0.6c1.4-0.5,3-2.4,3-3.6c0-0.3-1.1-2.9-6.8-15.8c-2.1-4.8-5-11.3-5.1-11.5c-0.1-0.2,0.6-0.2,3.5-0.2l3.6,0
		l0.7,1.7c0.4,0.9,1.8,4.2,3.1,7.3c1.3,3.1,2.8,6.8,3.4,8.1c1,2.4,1.3,3,1.3,2.5c0-0.1,0.6-2.1,1.3-4.3c0.7-2.2,1.9-6.1,2.7-8.7
		c0.8-2.5,1.5-5.1,1.7-5.7l0.4-1.1l2.5-0.1c1.4,0,2.9-0.1,3.3-0.1C373.8,186.9,374.1,187,374.2,187.1 M385.2,187.5
		c8.4,0.4,15.2,0.7,17.1,0.9l1.8,0.1v18.2v18.2l-3.4-0.1c-1.9-0.1-3.5-0.1-3.6-0.2c-0.2-0.1-0.2-3.3-0.2-15.5v-15.4l-1.9-0.1
		c-1-0.1-3.7-0.2-5.9-0.3l-4-0.2v15.5v15.5l-2.5-0.1c-1.4-0.1-3-0.2-3.6-0.2l-1.2-0.1l0-18.2l0-18.2l1.1,0
		C379.5,187.3,382.3,187.4,385.2,187.5 M341.6,205.9l0,18.2l-0.5,0.1c-0.3,0.1-1.9,0.1-3.7,0.2l-3.2,0.1v-18.3v-18.3l0.6,0
		c0.3,0,1.5-0.1,2.5-0.1c1.1-0.1,2.4-0.1,3-0.1l1.1,0L341.6,205.9 M322.2,189.5c10.7,2.7,9.4,20.2-1.7,23.2
		c-0.7,0.2-2.8,0.5-4.7,0.7c-1.9,0.2-3.7,0.4-3.9,0.4l-0.4,0.1v6.2v6.2l-0.4,0.1c-0.2,0-1.6,0.2-3.1,0.3c-1.5,0.1-3,0.3-3.2,0.4
		l-0.5,0.1v-18.3c0-17,0-18.3,0.3-18.3c0.4,0,12.1-1.2,12.4-1.2C317.7,189.2,321.2,189.3,322.2,189.5 M426.6,190.6
		c8.9,2.1,13.2,9.1,12.9,21.3c-0.3,11.1-4.3,16.3-12.4,16.3c-11.2,0-17.4-7.4-17.4-20.9C409.7,194,415.7,188,426.6,190.6
		 M290.6,194.5c0.5,1.8,2,6.7,5.7,19.3c2.7,9.3,4,13.6,3.9,13.7c0,0-1.6,0.3-3.4,0.6l-3.3,0.5l-0.1-0.3c-0.1-0.2-0.6-2-1.2-4
		c-0.6-2-1.1-3.7-1.1-3.7c0,0-2.6,0.4-5.7,0.9l-5.7,0.9l-1,4.2c-0.6,2.3-1.1,4.3-1.2,4.4c-0.1,0.2-6.8,1.5-6.9,1.3
		c0,0,0.6-2.6,1.4-5.7c3-11.8,4.8-18.7,6.1-24.1c1.7-6.9,2.1-8.2,2.3-8.4c0.1-0.2,8.4-1.6,9.3-1.6l0.6,0L290.6,194.5 M462.1,196.9
		c4.5,0.8,8.1,1.5,8.2,1.5c0.1,0,0.1,8.2,0.1,18.2c0,16.4,0,18.2-0.3,18.2c-0.4,0-6.6-1.2-6.8-1.3c-0.1,0-0.1-7-0.1-15.5
		c0-12.2,0-15.4-0.2-15.4c-0.1,0-1.9-0.3-4-0.7c-2.1-0.4-3.8-0.7-3.9-0.7s-0.1,1.7-0.2,3.7c-0.1,2-0.2,4.3-0.3,5.1s-0.2,3.1-0.3,5.2
		c-0.4,8.3-1,11.3-2.9,13.6c-1.7,2.1-5.2,2.4-9.4,0.9l-0.9-0.3l0.1-2.7c0.1-3.1,0-2.9,1.2-2.5c3,1,4.2,0,4.8-4.4
		c0.3-1.8,0.5-7.2,1.2-22.6c0.1-1.4,0.1-2.6,0.2-2.7C448.8,194.4,451.4,194.9,462.1,196.9 M314.1,195.2c-1.1,0.1-2.1,0.2-2.3,0.2
		l-0.4,0v6.5v6.5l1.3-0.1c4.6-0.5,5.3-0.7,6.7-1.7c3.5-2.5,3.4-9.1-0.1-10.9C317.9,194.9,317,194.8,314.1,195.2 M422.1,196.2
		c-2.9,0.7-4.5,3.9-4.9,9.5c-0.6,10.8,2.2,16.5,8.2,16.5c4.4,0,6.3-3.3,6.5-11.1C432.4,200.5,428.5,194.6,422.1,196.2 M266.3,206.8
		c0.1,5.5,0.1,13.7,0.1,18.2l-0.1,8.2l-3.2,0.8c-1.7,0.4-3.3,0.8-3.4,0.8c-0.2,0-0.2-18.5,0.1-24.2l0.1-1.9l-0.7,2.1
		c-1.6,5-4.4,13.6-5.8,18c-1.3,4-1.6,4.7-1.9,4.8c-0.7,0.3-6,1.4-6,1.3c-0.1-0.1-2.7-6.7-3.9-9.9c-0.4-1.1-1.5-4-2.5-6.5
		c-0.9-2.5-1.8-4.6-1.8-4.8c-0.2-0.5-0.2-0.3-0.1,2.5c0.2,5.6,0.4,23.7,0.2,23.8c-0.3,0.2-6.4,1.6-6.5,1.5c-0.1-0.1-0.1-36.3,0-36.4
		c0.2-0.1,8.7-2.1,9-2.1c0.2,0,0.4,0.3,0.7,1c0.2,0.5,1.2,3.3,2.3,6.2c1.1,2.9,2.8,7.4,3.8,10c2,5.3,2,5.4,2.2,5
		c0.2-0.4,3-9.2,3.9-12c1.5-4.6,4.7-14.2,4.7-14.3c0.1-0.1,7.8-2,8.2-2l0.4,0L266.3,206.8 M283.1,208c-1.1,4.4-2.1,8.2-2.1,8.4
		l-0.1,0.4l1.7-0.3c0.9-0.2,2.8-0.5,4.2-0.7l2.5-0.4l-0.1-0.5c-0.1-0.3-0.8-3-1.6-6.1c-0.8-3.1-1.6-6.3-1.8-7.1s-0.4-1.6-0.5-1.6
		C285.2,200,284.2,203.5,283.1,208 M481,201.1l3.2,0.9l0,6.7l0,6.7l0.7,0.2c7.1,1.9,9,2.5,10.9,3.9c7.3,5.2,8.2,17.4,1.6,20.6
		c-1.1,0.5-1.2,0.5-3.4,0.5l-2.2,0l-5.1-1.4c-2.8-0.8-5.6-1.5-6.2-1.7c-0.6-0.2-1.6-0.4-2.2-0.6l-1.1-0.3v-18.2
		c0-17.3,0-18.2,0.3-18.2C477.7,200.3,479.3,200.7,481,201.1 M484.3,227l0,6.1l2.8,0.7c5.5,1.5,7.5,0.6,7.8-3.5c0.3-4.9-2-7.3-8.6-9
		c-0.8-0.2-1.5-0.4-1.7-0.4C484.3,220.9,484.3,221.2,484.3,227 M385.7,236.7c23.2,1,45.8,3.5,67.3,7.4c17.4,3.2,38.2,8.1,53.4,12.7
		c2.2,0.6,4.1,1.2,4.3,1.3c0.5,0.1,0.5,0.4-0.7,5.7c-3.9,18.1-8.4,32.4-14,43.7c-12.5,25.4-34.3,50.7-66.9,77.9
		c-15.8,13.2-36.4,27.9-55.9,39.8c-2.2,1.4-4.4,2.6-4.8,2.8l-0.7,0.3l-1-0.5c-1.5-0.8-8-4.8-9.3-5.7c-0.6-0.4-1.7-1.1-2.2-1.4
		c-3.4-2-17.1-11.3-23.2-15.7c-36.2-26.1-62.9-51.9-81.4-78.6c-12.5-18-19.8-36.7-25.6-64.8c-1-4.9-1.1-4.3,1.1-5
		c42.7-12.5,86.1-19.2,130.1-20.3C361.5,236.2,380.4,236.4,385.7,236.7 M366.3,259.4c-14.1,2.1-19.7,18.3-9.7,27.8
		c3.7,3.5,4.8,4.7,5.3,5.7c1.2,2.3,2.1,5.4,2.6,9c0.3,2.3,0.3,19.2,0,23.3c-0.4,5.7-1.4,14.1-1.7,15l-0.1,0.4l-1.6-0.4
		c-8.3-2-15.7-7.7-19.6-15.3l-0.9-1.8l1.6-2.8c3.4-6,5.2-9.1,5.2-9.2c0,0-3.3-0.1-7.4-0.1h-7.4l0.1,1.1c1,9.4,3.3,15.5,8.2,21.4
		c6,7.2,15.5,12.1,24.2,12.6l1.7,0.1l0-28.4l0-28.4l-0.4-1c-0.5-1.2-1.4-2.1-3.5-3.6c-4-2.8-5.7-5.6-5.7-9.8
		c0-11.8,16-15.4,21.1-4.7c2.5,5.3,0.7,10.9-4.7,14.5c-2.3,1.5-3.2,2.4-3.7,3.7l-0.4,1l0,28.4l0,28.4l1.8-0.1
		c17.2-1,32.3-17,32.3-34.3v-0.8h-7.4h-7.4l0.2,0.4c0.1,0.2,0.9,1.5,1.6,2.8c0.8,1.3,2.2,3.8,3.2,5.6c2.1,3.6,2,3.1,0.7,5.7
		c-3.2,5.9-9.1,11-15.5,13.5c-1.8,0.7-5.4,1.6-5.6,1.5c-0.2-0.3-1.3-9-1.6-12.9c-0.1-0.9-0.1-1.8-0.2-2.1c-0.5-3.9-0.5-19.7,0-23.6
		c0.8-6.6,2.2-9.6,6.2-13.1c4.8-4.2,6.7-8,6.6-13.4C384.1,266,375.3,258,366.3,259.4 M345.8,369.7l-1.7,0.6l0.1,1.1
		c0.1,0.6,0.1,1.1,0.1,1.1s0.6-0.1,1.3-0.4l1.3-0.4l0,7.1l0,7.1h1.5h1.5l0-8.5l0-8.5l-1.3,0C347.8,369.1,347.2,369.2,345.8,369.7
		 M355.7,369.4c-3.8,1.5-4,8.5-0.3,10.2c1.5,0.7,3.8,0.3,4.8-0.7c0.5-0.5,0.6-0.3,0.4,1c-0.5,3.3-2.6,4.6-5.8,3.5
		c-1.3-0.4-1.2-0.5-1.2,1l-0.1,1.2l0.7,0.3c1.1,0.4,5,0.4,6-0.1c5.4-2.5,5.3-15-0.2-16.5C358.9,369,356.6,369.1,355.7,369.4
		 M370.9,369.2c-3.2,1-4.6,3.6-4.6,8.7c0,6.1,1.8,8.5,6.3,8.3c3.3-0.1,4.9-2,4.8-5.6c0-4.5-3.9-6.9-7.1-4.4
		c-0.9,0.7-0.9,0.7-0.7-0.7c0.3-3.3,2.7-4.7,5.9-3.6c1.2,0.4,1.1,0.5,1.2-1.1l0.1-1.2l-1.2-0.3C374.4,369.1,371.7,369,370.9,369.2
		 M383.5,369.4c-4.9,1.7-5.3,13.7-0.5,16.3c1.8,1,4.7,0.7,6.2-0.6c3.2-2.8,3.3-11.5,0.3-14.6C388.1,369.2,385.4,368.7,383.5,369.4
		 M359,371.4c1,0.4,1.7,2.4,1.5,3.7c-0.6,3.8-4.4,3.3-4.4-0.6C356.1,372.3,357.5,370.8,359,371.4 M386.9,372.1
		c1.9,1.9,1.7,10.1-0.3,11.3c-2.1,1.3-3.5-1.1-3.4-5.8C383.1,372.6,384.8,370.1,386.9,372.1 M373,377.9c1.3,0.8,1.7,3.6,0.7,5
		c-1.6,2.3-4.1,0.7-3.9-2.5C370,378.2,371.4,377,373,377.9"/>
	<path id="path2" class="st2" d="M301.4,100.9c-0.9,0.2-1.8,0.3-2,0.4c-2.7,0.6-10,2.1-15.6,3.2c-3.9,0.8-7.2,1.4-7.3,1.5
		c-0.2,0-0.5,0.1-0.8,0.2c-0.2,0-2.8,0.6-5.8,1.2c-2.9,0.6-5.9,1.2-6.5,1.3l-1.2,0.2l0.8,0.1c0.5,0,1.2,0.1,1.7,0.1
		c0.5,0,1.8,0.1,3.1,0.1c1.2,0.1,2.9,0.1,3.7,0.2c1.5,0.1,3.5,0.2,5.4,0.3c0.6,0,3.2,0.2,5.7,0.3c12.8,0.7,28.8,2.3,38.3,3.9
		c2.9,0.5,3.1,0.6,2.3,1c-0.6,0.3-1,0.6-4.1,3.4c-1.3,1.2-3.4,2.8-6.7,5.3l-0.5,0.4l0.7,0c3.4,0.1,9.3,2.1,12,4
		c3,2.2,8.1,4.5,11.1,5c0.2,0,0.4,0.1,0.4,0.1c0,0,0.1,0.1,0.3,0.1c0.2,0,0.8,0.2,1.3,0.3c1.1,0.3,4,0.7,7,0.9
		c2.7,0.2,10,0.2,13.5-0.1c3.5-0.3,8-0.7,8.4-0.8c0.3-0.1,1.3-0.3,3-0.5c1.3-0.2,4.4-0.7,6-1.1c8.3-1.7,15.8-1.5,21.1,0.6l0.9,0.4
		l-0.1-0.8c-0.4-2.8-1.1-4.7-2.4-6.4c-0.4-0.5-0.7-0.9-0.6-0.9c1.1-0.6,2.1-1.5,2.7-2.4l0.7-1l3.8-0.1c2.1-0.1,4.5-0.1,5.4-0.2
		c0.9,0,3-0.1,4.7-0.2c1.7-0.1,3.5-0.1,4-0.2l0.9-0.1l-0.4-1c-0.2-0.6-0.5-1.1-0.5-1.1s-0.1-0.2-0.1-0.2s-0.1-0.3-0.1-0.4
		c-0.1-0.2,0-0.3,0.7-0.4c0.4-0.1,0.9-0.2,1.1-0.2c0.1,0,0.5-0.1,0.8-0.1c0.3,0,1.6-0.2,2.8-0.4c7.3-1.1,13.3-2.1,15-2.3
		c1.1-0.1,3-0.4,4.4-0.7s3.5-0.6,4.8-0.7c1.2-0.2,4.2-0.6,6.6-1c4.3-0.7,6.1-0.9,13.7-2.1c5.1-0.7,5.2-0.8,1.3-1.1
		c-1.5-0.1-4.3-0.3-6.3-0.5c-7.3-0.7-15.1-1.4-18.8-1.7c-2.1-0.2-4.3-0.4-4.8-0.4c-2-0.2-2.5-0.2-3.4-0.3c-0.9-0.1-1.6-0.2-3.3-0.3
		c-0.4,0-2.2-0.2-4.1-0.3c-1.8-0.1-4-0.3-4.9-0.4c-0.9-0.1-3.8-0.3-6.5-0.6c-2.7-0.2-5.5-0.5-6.2-0.5c-1.3-0.1-1.7,0-6,1
		c-2.4,0.6-15.3,3.8-25.3,6.2c-11.1,2.7-11.6,2.8-12.2,3c-0.6,0.1-1.5,0.1-2,0c-0.5-0.1-2.1-0.5-4.8-1.1c-2.1-0.5-5.5-1.2-12.8-2.9
		c-1.8-0.4-3.9-0.9-4.8-1.1c-0.8-0.2-3.8-0.8-6.6-1.5c-2.8-0.7-5.3-1.2-5.5-1.2c-0.2,0-0.5-0.1-0.5-0.1c0,0-0.2,0-0.2-0.1
		c-0.1,0-0.3-0.1-0.4-0.1c-0.1-0.1-1.1-0.3-2.2-0.5c-3.4-0.7-7.2-1.6-11.5-2.6c-2.3-0.5-4.5-1-4.8-1.1c-0.3,0-0.6-0.1-0.8-0.2
		c-0.1-0.1-0.4-0.1-0.7-0.2s-1.1-0.2-1.9-0.4C303.7,100.5,303.5,100.5,301.4,100.9 M306.4,103.2c1.4,0.3,4.2,0.9,6.2,1.4
		c2,0.5,4.8,1.1,6.3,1.4c1.5,0.3,5.5,1.2,8.9,1.9c3.4,0.7,6.3,1.4,6.5,1.4c0.2,0,0.8,0.2,1.3,0.3s2.3,0.5,3.9,0.9
		c1.6,0.3,5.1,1.1,7.7,1.7c8,1.8,9.7,2.2,11.2,2.5c2.2,0.4,2.1,0.7-0.3,0.7c-1.1,0-5.6,0.1-10,0.2l-8,0.2l-2.1-1.1
		c-3.7-2-6.6-2.6-11.3-2.3l-2.2,0.1l-5.9-1c-7.7-1.3-9.6-1.6-12.7-1.9c-0.3,0-1.4-0.2-2.4-0.3c-1-0.1-3.4-0.4-5.2-0.5
		c-1.9-0.1-4.2-0.3-5.1-0.4s-4.1-0.3-7-0.5c-6.5-0.4-6.6-0.5-3.1-1.1c1.1-0.2,4.2-0.8,6.9-1.4c2.7-0.6,6.8-1.4,9.2-1.9
		c2.3-0.5,4.3-0.9,4.4-0.9C303.7,102.6,304.9,102.8,306.4,103.2 M410.4,106.2c0.2,0,1.5,0.1,2.8,0.2c2.4,0.2,4.5,0.4,17.3,1.5
		c3.1,0.3,6.1,0.5,6.6,0.6c0.5,0,1.8,0.2,2.8,0.2c1.1,0.1,2.4,0.2,3.1,0.3c0.6,0.1,1.4,0.1,1.8,0.2s1.1,0.1,1.8,0.2
		c0.7,0.1,1.4,0.1,1.7,0.2c0.2,0,0.9,0.1,1.6,0.2c1.5,0.2,1.3,0.3-1,0.6c-1,0.2-3.7,0.6-6.1,0.9c-2.3,0.4-5.5,0.8-7,1.1
		c-4.3,0.6-10.5,1.6-11.1,1.7c-0.3,0-0.7,0.1-1,0.2c-2.8,0.4-10.6,1.6-10.9,1.7c-0.5,0.1-0.5,0.3,0.1,1.6c0.3,0.6,0.4,1.1,0.4,1.2
		c-0.1,0.1-2.5,0.2-5.4,0.3c-2.9,0.1-7,0.3-9.1,0.3c-2.1,0.1-5.6,0.2-7.8,0.3l-4,0.1l-3.5-0.9c-4.2-1.1-3.5-1.1-9,0.1
		c-2.5,0.5-5.8,1.3-7.4,1.6c-5.9,1.2-7.6,1.6-7.9,1.7c-0.2,0.1-0.5,0.1-0.7,0.1c-1.5,0.2-7.2,1.5-7.3,1.6c-0.1,0.1,0.3,2,0.4,2
		c0.1,0,0.4-0.1,0.7-0.2c0.3-0.1,0.8-0.2,1-0.3c0.2,0,2.7-0.6,5.5-1.2c2.8-0.6,6.2-1.3,7.5-1.6c2.4-0.5,5.2-1.1,10.6-2.3l2.7-0.6
		l3.6,1c3.9,1.1,3.4,1,9.3,0.8c1.8-0.1,2.7,0,2.7,0.1c0,0.3-1.2,1.1-2.8,1.9c-0.9,0.4-1.7,0.8-1.7,0.8c0,0,0.7,0.9,1.7,1.8
		c1.6,1.6,2.5,3,2.3,3.3c-0.1,0.1-1.1-0.1-2.4-0.3c-4.2-0.7-11.6-0.4-16.4,0.6c-0.6,0.1-1.3,0.3-1.5,0.3c-0.2,0-0.8,0.2-1.2,0.3
		c-4.1,0.9-13.6,2-20.2,2.3c-6.1,0.2-14.6-0.8-18.8-2.2c-0.7-0.2-1.3-0.4-1.4-0.5c-1.4-0.4-5-2.3-6.6-3.5c-0.8-0.6-2.1-1.4-3-1.8
		l-1.6-0.8l-0.5-1.6c-0.6-2.3-0.6-2.3,0.7-3.5c6.2-5.2,7.8-5.4,15.8-1.7l1.6,0.7l1.8-0.1c1.7-0.1,4-0.3,5.8-0.4
		c0.5,0,1.7-0.1,2.8-0.1s2.6-0.1,3.4-0.2c0.8-0.1,3.6-0.2,6.3-0.2l4.9-0.1l4.2-1c2.3-0.6,7.2-1.8,10.8-2.7c6.9-1.7,10.8-2.7,12.4-3
		c0.5-0.1,1-0.2,1.1-0.3c0.1-0.1,0.3-0.1,0.4-0.1c0.1,0,2.8-0.7,5.9-1.4c3.1-0.8,6.2-1.5,6.8-1.7C406.8,106,409.2,105.9,410.4,106.2
		 M325.1,117.8c-0.9,0.4-2.2,2.2-1.9,2.7c1.1,1.8,5.4,0.4,5.4-1.8C328.6,117.9,326.2,117.3,325.1,117.8 M367.7,187.4
		c-0.1,0.1-0.3,0.6-0.5,1.1c-0.2,0.6-0.7,2.4-1.3,4.2c-0.5,1.8-1,3.3-1,3.5c0,0.2-0.1,0.4-0.2,0.5c-0.1,0.1-0.1,0.2,0,0.2
		c0.1,0,0,0.1-0.1,0.2c-0.1,0.1-0.2,0.2-0.1,0.2c0.1,0,0,0.1,0,0.2c-0.1,0.1-0.6,1.5-1,3.1c-2.2,7.5-2.1,7.2-2.7,5.6
		c-0.2-0.6-0.5-1.3-0.7-1.6c-0.2-0.3-0.3-0.6-0.2-0.6s0-0.1-0.1-0.1c-0.1,0-0.2,0-0.1-0.1c0.1-0.1-0.2-0.7-0.5-1.5
		c-0.3-0.7-1.3-3-2.1-5c-0.8-2-1.6-3.8-1.7-4c-0.1-0.2-0.2-0.4-0.1-0.5c0-0.1,0-0.1-0.1-0.1c-0.1,0-0.1-0.1-0.1-0.1
		c0-0.1-0.4-1.3-1-2.8l-1.1-2.6l-3.3,0.1l-3.3,0.1l0.3,0.6c0.2,0.3,0.7,1.6,1.2,2.8c0.5,1.2,1,2.3,1.1,2.3c0.1,0,0.1,0.1,0,0.2
		c-0.1,0.1,0,0.2,0.1,0.2c0.1,0,0.2,0.1,0.2,0.2c0,0.1,0.6,1.6,1.4,3.3c0.7,1.7,1.4,3.1,1.4,3.2c0,0.1,0.1,0.2,0.2,0.2
		c0.1,0,0.1,0.1,0.1,0.2c-0.1,0.1,0,0.2,0,0.2s0.2,0.1,0.2,0.2c0,0.1,0.5,1.3,1.1,2.7c0.6,1.4,1.6,3.6,2.1,4.8
		c0.6,1.3,1.1,2.4,1.2,2.4c0.1,0,0.1,0.1,0.1,0.2s0,0.2,0.1,0.2c0.1,0,0.2,0,0.1,0.1c-0.1,0.1,0.2,0.8,0.6,1.7
		c0.7,1.6,0.7,1.6,0.5,2.3c-1.2,3-3.5,4-7.3,3c-1.8-0.5-1.9-0.4-2,0.6c0,0.4-0.1,1.2-0.1,1.9c-0.2,2.3-0.3,2.1,1,2.5
		c3.3,0.9,8.3,0.4,10.4-1.1c1.1-0.7,3.8-4.3,3.3-4.3c-0.1,0,0-0.1,0.1-0.1c0.4-0.2,3.1-7.8,3-8.1c0-0.1,0-0.1,0.1-0.2
		c0.2-0.1,1.3-3.1,1.2-3.5c0-0.2,0-0.3,0.1-0.3c0.1,0,0.1-0.2,0.1-0.4c0-0.2,0.1-0.4,0.2-0.5c0.1-0.1,0.2-0.1,0.1-0.1
		c-0.1,0-0.1-0.1,0-0.2c0.1-0.1,0.3-0.6,0.4-1c0.1-0.5,0.8-2.5,1.5-4.5c0.7-2,1.9-5.5,2.7-7.7l1.4-4l-3.1,0
		C369.2,187.3,367.8,187.3,367.7,187.4 M378,205.5l0,18l1.8,0.1c1,0.1,2.5,0.1,3.5,0.2l1.7,0.1v-15.4V193l3.1,0.1
		c1.7,0.1,3.9,0.2,5,0.2c1,0,2.2,0.1,2.8,0.1c0.5,0,1,0.1,1.1,0.2c0.2,0.1,0.2,3.3,0.2,15.5l0,15.4l1.3,0.1c0.7,0,2.3,0.1,3.4,0.2
		l2.1,0.1v-18.1v-18.1l-4.3-0.2c-2.4-0.1-5.5-0.3-7-0.4c-3.4-0.2-13.2-0.6-14-0.6l-0.6,0L378,205.5 M338.3,187.9
		c-1.1,0.1-2.3,0.1-2.9,0.1l-1,0v18.1v18.1l2-0.1c1.1-0.1,2.5-0.1,3-0.1c0.5,0,1.2,0,1.4-0.1l0.4-0.1l0-18.1l0-18.1l-0.5,0
		C340.4,187.8,339.3,187.9,338.3,187.9 M316.8,189.5c-0.3,0-2,0.2-3.8,0.4c-1.8,0.2-3.5,0.4-3.8,0.4c-1.3,0.2-3.7,0.4-4.2,0.4h-0.4
		v18.1c0,12,0.1,18.1,0.2,18.1c0.1,0,1.4-0.2,2.9-0.3c1.5-0.1,3-0.3,3.2-0.4l0.5-0.1V220c0-5.8,0-6.2,0.3-6.2c0.2,0,1.3-0.1,2.4-0.3
		c2-0.2,2.5-0.3,4.1-0.5c0.3,0,0.8-0.1,1-0.1s0.4-0.1,0.4-0.1s0.2-0.1,0.5-0.1c3.7-0.5,7.6-4.4,8.8-8.8c0.7-2.7,0.3-8.2-0.6-9.2
		c-0.1-0.1-0.2-0.3-0.1-0.3s0-0.1-0.1-0.1s-0.2-0.1-0.1-0.2s0-0.2-0.2-0.3c-0.1-0.1-0.2-0.2-0.2-0.2c0.2-0.3-3-3.3-3.3-3.1
		c-0.1,0.1-0.1,0-0.1-0.1C324.1,189.8,319.3,189.2,316.8,189.5 M420,190.4c-0.1,0.1-0.3,0.1-0.5,0.2c-1.3,0.2-1.7,0.3-2.9,0.9
		c-1.5,0.7-3.5,2.5-4,3.6c-0.1,0.3-0.3,0.5-0.4,0.6c-1.1,0.8-2.3,6.3-2.4,10.7c-0.2,7.6,1.4,13,5.1,17c0.6,0.7,2.5,2.2,2.5,2
		c0-0.1,0.2,0,0.3,0.2c2,1.8,9.1,2.9,12.9,2c2-0.5,5.7-2.9,5.3-3.5c0-0.1,0-0.1,0.1-0.1c0.6,0,2.2-3.6,2.8-6.2
		c0.7-2.8,0.6-10.4,0-13.6c-0.4-2.2-2-6.2-2.5-6.6c-0.1,0-0.2-0.3-0.4-0.6c-1.1-2.3-6.2-5.7-9-6c-0.3,0-0.6-0.1-0.7-0.2
		c-0.1-0.1-0.3-0.1-0.4,0c-0.1,0.1-0.3,0-0.4,0C425.2,190.4,420.2,190.2,420,190.4 M286.7,193.2c-1.3,0.2-2.5,0.4-2.7,0.4
		c-0.2,0-0.4,0.1-0.5,0.2c-0.1,0.1-0.3,0.1-0.5,0c-0.2-0.1-0.4,0-0.4,0.1c-0.1,0.1-0.3,0.1-0.5,0.1c-0.2-0.1-0.4,0-0.5,0.1
		c-0.1,0.1-0.3,0.1-0.4,0.1c-0.4-0.1-1.1,0.3-1.1,0.6c0,0.1-0.6,2.5-1.3,5.2c-0.7,2.8-1.3,5.2-1.3,5.4c0,0.2-0.1,0.5-0.1,0.5
		c0,0,0,0.2-0.1,0.2c0,0.1-0.1,0.2-0.1,0.3c0,0.1-0.1,0.2-0.1,0.2c0,0.1-0.1,0.2-0.1,0.4c-0.2,0.5-0.9,3.6-0.9,3.6
		c0,0,0,0.2-0.1,0.3c-0.1,0.1-0.2,0.4-0.2,0.6c0,0.2-0.1,0.5-0.2,0.7c-0.1,0.3-2.8,11-2.9,11.3c0,0.1-0.1,0.3-0.2,0.5
		c-0.1,0.1-0.1,0.3,0,0.4c0.1,0.1,0,0.2-0.1,0.3c-0.1,0.1-0.1,0.2-0.1,0.3c0.1,0.1,0,0.3-0.1,0.4c-0.1,0.1-0.2,0.3-0.2,0.3
		c0,0.1,0,0.1,0,0.2c0,0,0,0.2-0.1,0.3c0,0.1-0.4,1.6-0.8,3.2c-0.4,1.6-0.7,2.9-0.7,2.9c0.2,0.2,6.5-1.1,6.6-1.4
		c0.1-0.3,1.4-5.3,1.5-6.1c0-0.2,0.1-0.4,0.1-0.4c0,0,0.2-0.4,0.3-1l0.3-1l1.7-0.3c2.3-0.4,5.8-1,6.3-1.1c0.2,0,0.6-0.1,0.8-0.2
		c0.3-0.1,0.6-0.1,0.9-0.1c0.2,0,0.5-0.1,0.5-0.1c1-0.5,1.7,0.2,2.1,2c0.2,0.8,1.1,3.9,1.3,4.1c0.1,0.1,0.1,0.2,0.1,0.2
		c0,1.6,0.2,1.6,3.9,1c3.4-0.6,3.2-0.5,2.9-1.2c-0.1-0.3-0.2-0.6-0.2-0.6s0-0.1-0.1-0.2c-0.1-0.1-0.2-0.2-0.1-0.2
		c0.1,0,0-0.1-0.1-0.2c-0.1-0.1-0.2-0.2-0.1-0.2c0.1,0,0-0.1-0.1-0.2c-0.1-0.1-0.2-0.2-0.1-0.2s0-0.1-0.1-0.2
		c-0.1-0.1-0.2-0.3-0.1-0.3c0,0-0.1-0.6-0.3-1.2c-0.2-0.6-0.8-2.6-1.3-4.6c-0.6-1.9-1.1-3.6-1.1-3.8c-0.1-0.1-0.1-0.3-0.1-0.4
		c0-0.1-0.1-0.1-0.2-0.1c-0.1,0-0.1-0.1-0.1-0.2c0.1-0.1,0-0.3-0.1-0.3c-0.1-0.1-0.1-0.2-0.1-0.2c0-0.1,0-0.2-0.1-0.2
		c-0.1-0.1-0.1-0.2-0.1-0.2c0-0.1-0.4-1.6-0.9-3.4c-0.6-1.8-1.5-4.9-2-6.8c-0.6-1.9-1.1-3.6-1.2-3.7c-0.1-0.1-0.1-0.3-0.1-0.4
		c0.1-0.1,0-0.2-0.1-0.2c-0.1,0-0.1-0.1-0.1-0.2c0.1-0.1,0-0.2-0.1-0.2c-0.1,0-0.2-0.1-0.1-0.2c0-0.1-0.3-1.2-0.6-2.5
		C289.7,192.4,290.2,192.6,286.7,193.2 M448.8,195c-0.2,2-0.8,18.6-0.8,20.2c0,0.3-0.1,1.1-0.1,1.9c-0.1,0.8-0.1,1.6-0.2,1.9
		c-0.5,5.1-2.1,6.7-5.5,5.4c-0.4-0.2-0.6-0.2-0.6,0c0,0.1-0.1,1.3-0.1,2.6l-0.1,2.4l1.8,0.6c7.4,2.3,10.3-0.9,10.9-12.3
		c0.1-1.8,0.2-3.9,0.2-4.7c0-0.7,0.2-3,0.3-5.1c0.3-6.5,0.4-6.8,0.7-6.7c0.2,0,0.6,0.1,0.9,0.1c0.3,0,0.7,0.1,0.8,0.2s0.3,0.1,0.4,0
		c0.1-0.1,0.3,0,0.4,0c0.1,0.1,0.4,0.1,0.5,0.2c0.2,0,0.8,0.1,1.4,0.3c0.6,0.1,1.7,0.3,2.4,0.5l1.3,0.2v15.5
		c0,8.5,0.1,15.5,0.1,15.5s0.2,0,0.2,0c0,0,0.3,0.1,0.5,0.1c0.4,0.1,3.6,0.6,5.4,1l0.6,0.1v-18c0-19.6,0.1-18.1-0.8-18.3
		c-0.1,0-0.8-0.2-1.4-0.3c-0.6-0.1-1.9-0.4-2.8-0.5c-2.1-0.3-2.1-0.3-4.1-0.7c-0.9-0.2-4-0.7-6.8-1.3s-5.2-1-5.3-1
		C448.9,194.6,448.8,194.7,448.8,195 M318.3,195c1.3,0.4,2.4,1.3,3.1,2.6l0.6,1.1v2.2c0,2.4-0.2,3.1-1.4,4.8
		c-1.1,1.5-2.8,2.3-5.7,2.6c-1.2,0.1-2.5,0.3-2.9,0.3l-0.7,0.1v-6.7v-6.7l2-0.2c1.1-0.1,2-0.2,2.1-0.3
		C315.8,194.7,317.4,194.8,318.3,195 M425.5,196c2.6,0.7,4.8,2.9,5.6,5.7c0.2,0.6,0.4,1.3,0.4,1.4c0.1,0.1,0.1,0.4,0.2,0.6
		c0.2,0.8,0.2,1,0.2,1c0.1,0,0.3,3.1,0.3,5.4c0,2.4-0.1,5.2-0.3,5.2c0,0-0.1,0.1-0.1,0.3c-0.5,2.9-2.7,6.4-4.1,6.4
		c-0.1,0-0.3,0.1-0.6,0.2c-0.5,0.2-2.7,0.3-2.8,0.1c0-0.1-0.2-0.1-0.3-0.1c-0.4,0.2-2.8-1.2-3.6-2c-2.4-2.5-3.4-6-3.3-12.2
		C417.1,198.7,420,194.5,425.5,196 M265.2,197.1c-0.3,0.1-0.7,0.2-1,0.2s-1.2,0.3-2.2,0.5c-0.9,0.2-1.7,0.4-1.8,0.5
		c-0.1,0-0.3,0.1-0.4,0.2c-0.1,0.1-0.3,0.1-0.4,0c-0.1-0.1-0.2,0-0.3,0.1c-0.1,0.1-0.2,0.1-0.3,0.1s-0.3,0-0.3,0.1
		c-0.1,0.1-0.2,0.1-0.3,0.1c-0.3-0.1-1.7,3.4-1.5,3.8c0.1,0.1,0,0.1-0.1,0.1s-0.1,0.1-0.1,0.2c0.1,0.1,0,0.2-0.1,0.2
		c-0.1,0-0.2,0.1-0.2,0.1c0,0.1,0,0.2,0,0.2c0,0.1-0.1,0.2-0.1,0.2c0,0.1-0.1,0.2-0.1,0.4c-0.2,0.6-2.7,8.1-2.7,8.3
		c0,0.1-0.1,0.3-0.1,0.3c-0.1,0-0.1,0.2-0.2,0.4c0,0.2-0.1,0.4-0.2,0.6c-0.3,0.7-1.1,3.2-1,3.2c0.1,0,0,0.1-0.1,0.2
		c-0.1,0.1-0.2,0.2-0.1,0.2c0.1,0,0.1,0.1,0,0.2c-0.1,0.1-0.7,1.9-1.4,4c-1.3,4-1.3,4.1-1.7,3.3c-0.1-0.3-0.2-0.5-0.2-0.5
		s-0.1-0.2-0.2-0.4c-0.1-0.2-0.2-0.5-0.3-0.7c0-0.1-0.4-1.2-0.9-2.4c-0.5-1.2-1.3-3.5-1.9-5.1c-0.6-1.6-1.2-3.1-1.3-3.3
		c-0.1-0.2-0.2-0.5-0.2-0.5c0-0.1,0-0.1-0.1-0.1c-0.1,0-0.1-0.1-0.1-0.2c0-0.1-0.6-1.7-1.3-3.5c-0.7-1.8-1.4-3.7-1.5-4.1
		c-0.5-1.3-0.6-1.3-8.2,0.6c-0.6,0.1-1.1,0.3-1.2,0.3c-0.1,0-0.2,6.1-0.2,18v18l0.6-0.1c0.3,0,1.6-0.3,2.9-0.6
		c1.3-0.3,2.4-0.6,2.5-0.6c0.4,0,0.2-16.4-0.2-24.9c-0.1-1.7-0.1-1.9,0.2-1.8c0.2,0,0.3,0.2,0.3,0.4c0,0.3,1.1,3.2,2.4,6.4
		c0.1,0.2,0.2,0.5,0.2,0.6c0,0.1,0.1,0.2,0.2,0.3c0.1,0.1,0.2,0.3,0.2,0.5s0.1,0.4,0.1,0.4c0.1,0,0.1,0.1,0.1,0.3
		c0,0.2,0.5,1.5,1.1,3c0.6,1.5,1.2,3.1,1.4,3.6c0.2,0.5,0.4,0.9,0.4,1s0.1,0.2,0.1,0.3c-0.1,0.1,0,0.2,0.1,0.2
		c0.1,0,0.2,0.1,0.1,0.1s0,0.2,0.1,0.3c0.1,0.1,0.1,0.2,0.1,0.2c-0.1,0,0.8,2.5,1.1,2.8c0.1,0.1,0.1,0.2,0,0.3c-0.1,0.1,0,0.1,0,0.1
		c0.1,0,0.2,0.2,0.2,0.4c0,0.6,0.3,0.7,1.3,0.4c0.5-0.1,1.5-0.3,2.1-0.5c0.6-0.1,1.2-0.3,1.3-0.4c0.1-0.1,0.3-0.1,0.4-0.1
		c0.1,0.1,0.2,0,0.3-0.1c0.1-0.1,0.2-0.1,0.3-0.1c0.5,0.2,0.9-0.5,1.8-3.2c0.5-1.5,1.4-4.4,2-6.3c0.6-2,1.2-3.7,1.2-3.8
		c0-0.1,0.1-0.3,0.1-0.4c0.1,0,0.1-0.2,0.2-0.4c0-0.2,0.1-0.4,0.1-0.5c0-0.1,0.2-0.5,0.3-0.9c0.1-0.4,0.7-2.2,1.3-4
		c0.6-1.8,1.1-3.4,1.1-3.7c0-0.2,0.1-0.4,0.1-0.5s0.1-0.1,0.1-0.2s0.1-0.2,0.1-0.3c0-0.1,0-0.2,0-0.2c0-0.1,0.1-0.1,0.2-0.1
		s0.1,0,0.1-0.1s0-0.3,0.1-0.4c0.4-0.7,0.4-0.7,0.2,4.9c-0.2,5.7-0.2,21.3,0,21.3c0.1,0,0.8-0.2,1.6-0.4c0.8-0.2,1.5-0.4,1.6-0.4
		c0.1-0.1,0.3-0.1,0.4-0.1c0.1,0.1,0.2,0,0.3-0.1c0.1-0.1,0.2-0.1,0.3-0.1c0.1,0,0.3,0,0.3-0.1c0.1-0.1,0.2-0.1,0.3-0.1
		s0.3,0,0.3-0.1c0.1-0.1,0.2-0.1,0.3-0.1s0.3,0,0.3-0.1c0.1-0.1,0.2-0.1,0.2-0.1c0.1,0,0.1-8.1,0.1-18c0-14.3-0.1-18.1-0.2-18.1
		C265.8,196.9,265.5,197,265.2,197.1 M286.5,203.9c0.6,2.5,1.3,4.9,1.5,5.3c0.2,0.5,0.3,1,0.2,1c-0.1,0.1,0,0.2,0.1,0.2
		c0.1,0,0.2,0.1,0.1,0.2c-0.1,0.1,0,0.3,0.1,0.3c0.1,0.1,0.1,0.2,0.1,0.2c0,0.1,0.1,0.9,0.4,1.9c0.7,2.6,0.9,2.3-1.9,2.7
		c-1.3,0.2-3.2,0.5-4.3,0.7c-1,0.2-1.9,0.3-2,0.2c0,0,0.5-2.3,1.1-5c0.7-2.7,1.2-5,1.2-5.2c0-0.2,0-0.3,0.1-0.3
		c0.1,0,0.1-0.1,0.1-0.2c0-0.1,0-0.3,0.1-0.3c0.1-0.1,0.1-0.2,0.1-0.3c-0.1-0.1,0-0.2,0-0.4c0.1-0.1,0.1-0.2,0.1-0.3
		s0.1-0.2,0.1-0.3c0.1-0.1,0.3-1.1,0.5-2.1c0.6-2.6,0.8-3.1,0.9-3.1C285.3,199.4,285.9,201.4,286.5,203.9 M477.5,200.5
		c-0.1,0.1-0.1,8.2-0.1,18c0,18.5,0,18.3,0.6,18.2c0.1,0,0.2,0,0.3,0c0.1,0,0.2,0.1,0.3,0.1c0.1,0,0.2,0.1,0.2,0.1
		c0.1,0-0.2,0,5.9,1.6c8.1,2.2,7.9,2.1,9.8,2.1c2.2-0.1,5.8-1.9,5.3-2.6c0-0.1,0.1-0.2,0.2-0.3c1.5-0.8,2.1-6.9,0.9-10.5
		c-1.3-4.1-5.6-8.9-8.2-9c-0.2,0-0.3-0.1-0.3-0.2s-0.1-0.1-0.2,0c-0.1,0.1-0.2,0-0.3-0.1c-0.1-0.1-0.2-0.1-0.2-0.1
		c-0.1,0-0.2,0-0.2-0.1c-0.1-0.1-0.5-0.2-1-0.4c-1.5-0.3-5.9-1.5-6.3-1.7l-0.4-0.2v-6.7c0-6.9,0-7.2-0.7-6.8c-0.1,0-0.2,0-0.2-0.1
		c-0.1-0.1-0.2-0.1-0.3-0.1c-0.1,0.1-0.2,0-0.2-0.1c0-0.1-0.1-0.1-0.2-0.1s-0.3,0-0.5-0.1c-0.2-0.1-1.1-0.4-2-0.6
		c-0.9-0.2-1.8-0.5-1.9-0.5C477.8,200.5,477.6,200.5,477.5,200.5 M484.6,220.8c0,0.1,0.1,0.1,0.2,0.1c0.1,0,0.3,0,0.3,0
		c0.1,0.1,0.2,0.1,0.2,0.1s0.6,0.2,1.3,0.4c0.6,0.2,1.5,0.4,2,0.6c4.4,1.1,6.6,4.2,6.4,8.5c-0.2,3.7-2.4,5-6.7,3.9
		c-0.9-0.2-1.7-0.4-1.8-0.3s-0.1,0-0.1-0.1s-0.1-0.2-0.2-0.1c-0.1,0.1-0.3,0-0.3-0.1c-0.1-0.1-0.2-0.1-0.2-0.1
		c-0.1,0.1-0.3,0-0.4-0.1c-0.2-0.1-0.5-0.2-0.8-0.3l-0.5-0.2V227c0-4.5,0.1-6.1,0.2-6.3C484.4,220.5,484.6,220.5,484.6,220.8
		 M355,236.6c-3.6,0.1-9.4,0.3-13,0.5c-10.5,0.6-11.3,0.6-16.1,1.1c-0.3,0-1,0.1-1.6,0.1c-0.5,0-1.4,0.1-1.9,0.2s-1.1,0.1-1.3,0.1
		c-3.1,0.2-23,2.5-24.5,2.9c-0.5,0.1-1.4,0.2-2,0.3c-0.2,0-0.5,0.1-0.6,0.2c-0.1,0.1-0.3,0.1-0.4,0.1c-0.1-0.1-0.6,0-1.1,0.1
		c-11,1.8-18.7,3.2-21.4,3.8c-1.5,0.3-1.9,0.4-2.2,0.4c-0.1,0-0.3,0.1-0.5,0.2c-0.1,0.1-0.3,0.1-0.4,0.1c-0.1-0.1-0.2,0-0.3,0.1
		c-0.1,0.1-0.2,0.1-0.3,0.1c-0.2-0.1-5.6,1-10.8,2.2c-2.7,0.6-2.5,0.6-2.8,0.7c-0.1,0.1-0.3,0.1-0.4,0c-0.1-0.1-0.2,0-0.3,0.1
		c-0.1,0.1-0.2,0.1-0.3,0.1s-0.3,0-0.3,0.1c-0.1,0.1-0.2,0.1-0.2,0.1s-1,0.1-2.1,0.4c-1.1,0.3-2.2,0.5-2.4,0.6
		c-1.8,0.4-11.6,3-11.8,3.1c-0.1,0.1-0.3,0.1-0.4,0.1c-0.1-0.1-0.2,0-0.3,0.1c-0.1,0.1-0.2,0.1-0.2,0.1c-0.1,0-0.2,0-0.2,0.1
		c-0.1,0.1-0.2,0.1-0.2,0.1c-0.1,0-2.3,0.6-5,1.3c-2.7,0.8-5,1.4-5.1,1.4c-0.1,0-0.2,0.1,0,0.2c0.1,0.1,0.1,0.3,0.1,0.4
		c-0.1,0.1,0,0.3,0.1,0.4c0.1,0.1,0.2,0.3,0.1,0.4c-0.1,0.1,1.1,5.6,2.2,10.7c0.3,1.2,0.5,2.3,0.6,2.5c0,0.1,0.1,0.2,0.2,0.3
		c0.1,0.1,0.1,0.2,0,0.3c0,0.1,0,0.2,0.1,0.2c0.1,0,0.2,0.1,0.1,0.3c-0.1,0.2,0,0.3,0.1,0.3c0.1,0,0.1,0.1,0.1,0.2
		c-0.1,0.2,0.8,3.9,1.1,4.3c0.1,0.1,0.1,0.3,0.1,0.5c0,0.5,2.7,9.8,2.9,10c0.1,0.1,0.2,0.4,0.2,0.6c0,0.2,0.1,0.4,0.1,0.4
		c0,0,0.1,0.1,0.1,0.2c0,0.1,0.1,0.2,0.1,0.2c0,0,0.1,0.2,0.1,0.4c0.2,0.9,2.6,7.9,2.9,8.2c0.1,0.1,0.1,0.2,0.1,0.3
		c-0.1,0.1,0,0.1,0.1,0.1c0.1,0,0.2,0.1,0.2,0.3c0,0.2,0.3,0.8,0.6,1.5c0.3,0.6,0.5,1.2,0.5,1.3c0,0.1,0.1,0.1,0.2,0.1
		c0.1,0,0.2,0,0.1,0.1c-0.2,0.2,2.6,6.1,2.9,6.2c0.1,0,0.1,0.1,0.1,0.2c-0.1,0.1,0,0.2,0.1,0.2c0.1,0,0.1,0.1,0.1,0.2
		c-0.1,0.1,0,0.2,0,0.2s0.1,0.1,0.2,0.2c0,0.6,7.2,13.1,7.8,13.6c0.1,0.1,0.2,0.2,0.2,0.2c-0.3,0,6.9,10.3,7.5,10.8
		c0.1,0.1,0.2,0.2,0.1,0.2c-0.1,0,0,0.2,0.3,0.5c0.2,0.3,0.9,1.1,1.5,1.9c0.6,0.8,1.7,2.2,2.4,3.1c0.7,0.9,1.7,2.1,2.2,2.7
		c1.9,2.3,7.3,8.6,10.1,11.5c3.9,4.2,11.6,12.1,11.8,12.1c0.1,0,0.9,0.8,1.9,1.8c1,1,1.8,1.7,1.7,1.5c-0.1-0.1,0-0.1,0.1,0.1
		c0.2,0.3,3.1,3,4.7,4.4c0.4,0.3,1.4,1.3,2.3,2.1c3.9,3.5,8.5,7.4,14.9,12.7c0.8,0.7,1.6,1.3,1.7,1.3c0.1,0,0.2,0.1,0.3,0.2
		c0.1,0.1,1.1,1,2.3,1.9c1.2,0.9,2.3,1.8,2.4,1.9c1.6,1.4,15.7,11.9,16,11.9c0.1,0,0.2,0.1,0.3,0.3c0.1,0.1,1.1,0.9,2.1,1.6
		c1.1,0.7,2.7,1.9,3.7,2.6c3.1,2.2,5.1,3.5,5.2,3.5c0.1,0,0.2,0.1,0.3,0.2c0.2,0.2,3.5,2.4,10.3,6.8c1.1,0.7,2,1.2,2,1.2
		c0-0.1,0.1,0,0.1,0.1c0.1,0.2,3.6,2.4,7.1,4.5c3.1,1.8,3.5,2,3.8,2c0.5-0.1,10.4-6.1,10.7-6.4c0.1-0.1,0.1-0.1,0.2-0.1
		c0.3,0.3,23.8-15.6,23.8-16.1c0-0.1,0-0.1,0.1-0.1c0.2,0.2,20.2-14.7,20.8-15.6c0.1-0.1,0.3-0.2,0.4-0.4c1.1-0.6,13.4-11,17.9-15.1
		c0.9-0.8,2-1.8,2.5-2.3c3.9-3.6,5.7-5.2,9.8-9.3c2.6-2.6,5.5-5.5,6.5-6.6c1-1.1,2.2-2.3,2.7-2.8c2.9-3.1,8.6-9.6,11.3-13.1
		c2.4-2.9,4.9-6.3,4.8-6.3c-0.1,0,0-0.1,0.2-0.3c1.3-1.1,12.3-17.8,12.4-18.8c0-0.1,0.1-0.2,0.2-0.2c0.2-0.1,2.9-5.2,2.9-5.5
		c0-0.1,0.1-0.2,0.2-0.2s0.1-0.1,0.1-0.2s0-0.2,0.1-0.2c0.3-0.1,4.4-8.8,4.4-9.5c0-0.2,0.1-0.3,0.2-0.3c0.1,0,0.1-0.1,0-0.2
		c-0.1-0.1,0-0.2,0.1-0.2s0.2,0,0.1-0.1c-0.1-0.1,0-0.2,0-0.3c0.1-0.2,0.9-2.3,2.3-6.3c0.3-0.8,0.5-1.6,0.6-1.8
		c0-0.2,0.1-0.5,0.2-0.6c0.1-0.1,0.1-0.2,0-0.2c-0.1,0-0.1-0.1,0-0.1c0.2-0.1,1.3-3.8,2-6.5c0.2-0.6,0.8-3,1.4-5.2
		c0.6-2.2,1.1-4.1,1-4.2c0-0.1,0-0.2,0.1-0.2c0.1-0.1,0.1-0.2,0.1-0.3c0-0.1,0-0.3,0.1-0.3c0.1-0.1,0.1-0.2,0.1-0.3
		c-0.1-0.1,0-0.3,0.1-0.4c0.1-0.1,0.3-0.8,0.4-1.5c0.1-0.7,0.4-1.9,0.6-2.8c0.5-2.3,1.8-8.4,1.8-8.8c0-0.3-0.7-0.6-1.6-0.7
		c-0.1,0-0.3-0.1-0.3-0.1c-0.1-0.1-0.2-0.1-0.3,0c-0.1,0-0.2,0-0.2-0.1c0-0.1-0.1-0.2-0.1-0.2c-0.1,0-0.2,0-0.4-0.1
		c-0.4-0.2-9.7-2.8-10.2-2.9c-0.2,0-0.4-0.1-0.5-0.1c0,0-0.1-0.1-0.2-0.1c-0.1,0-0.2-0.1-0.3-0.1c-0.1,0-0.2,0-0.3,0
		c-0.1,0-0.2,0-0.3-0.1c-0.2-0.1-10.2-2.8-11.8-3.1c-0.2,0-1.3-0.3-2.3-0.6s-2-0.5-2-0.4c-0.1,0-0.2,0-0.2-0.1s-0.3-0.1-0.4-0.1
		c-0.2,0.1-0.3,0-0.3-0.1c0-0.1-0.1-0.1-0.3-0.1c-0.2,0.1-0.3,0-0.3-0.1c0-0.1-0.1-0.2-0.2-0.2c-0.1,0-0.3,0-0.5-0.1
		c-0.1-0.1-1.1-0.3-2.2-0.5s-3.9-0.8-6.2-1.3c-2.3-0.5-4.3-0.9-4.4-0.8c-0.1,0-0.2,0-0.3-0.1c-0.1-0.1-0.2-0.1-0.4-0.1
		c-0.2,0.1-0.4,0-0.4-0.1c-0.1-0.1-0.2-0.1-0.3-0.1c-0.1,0.1-0.3,0-0.4-0.1c-0.1-0.1-0.3-0.2-0.5-0.2c-0.1,0-1.6-0.3-3.2-0.6
		c-1.6-0.3-4-0.8-5.2-1c-6.1-1.1-14.4-2.4-15.2-2.5c-1.3-0.1-1.7-0.2-1.8-0.2c-0.1,0-0.3-0.1-0.6-0.1c-0.3,0-0.6-0.1-0.9-0.1
		c-1.9-0.4-21.8-2.8-24.4-2.9c-0.7,0-3.3-0.3-4.9-0.4C394.2,236.9,374,236.2,355,236.6 M371.6,259.5c5.3,1.3,10.3,5.7,11.8,10.4
		c0.2,0.5,0.4,1,0.4,1.1c0.1,0.1,0.1,0.2,0,0.3c-0.1,0.1,0,0.2,0.1,0.3c0.1,0.1,0.2,0.3,0.2,0.4c0,0.1,0,0.2,0,0.2
		c0.2,0.5,0.2,5.9,0,6.6c0,0.1-0.1,0.2-0.1,0.3c0,0.1-0.1,0.2-0.1,0.3c0,0.1-0.1,0.2-0.1,0.3c0,0.1-0.1,0.2-0.1,0.2
		c0,0-0.1,0.1-0.1,0.2c-0.1,0.2-0.3,0.7-0.7,1.8c-0.9,2.3-2.8,4.8-4.9,6.5c-0.6,0.5-1.2,1-1.2,1.1c0,0.1-0.2,0.2-0.3,0.2
		c-1,0.3-4.1,5.5-3.7,6.1c0.1,0.1,0,0.1-0.1,0.1c-0.1,0-0.1,0.1-0.1,0.2c0.1,0.1,0,0.2-0.1,0.2c-0.1,0-0.2,0.1-0.1,0.1
		c0,0.1-0.1,0.5-0.2,1c-1.4,4.4-1.4,28.7,0,35.7c0,0.2,0.1,0.7,0.2,1.1c0.1,0.4,0.1,0.9,0.2,1.2s0.1,0.7,0.1,1
		c0,0.3,0.1,0.6,0.1,0.7c0,0.1,0.1,0.4,0.1,0.6c0,0.2,0.1,0.6,0.1,0.9c0,0.3,0.1,0.7,0.1,0.9c0,0.4,0.1,0.4,0.8,0.4
		c1.8-0.2,8.1-2.5,8.1-3c0-0.1,0-0.1,0.1-0.1c0.6,0.6,9.6-7,9.6-8.2c0-0.1,0.1-0.2,0.1-0.2c0.4,0,3.4-5.2,3.3-5.7
		c0-0.3-3.1-5.7-3.3-5.8c-0.1,0-0.1-0.1-0.1-0.2s-0.8-1.5-1.7-3.1c-1-1.8-1.6-3-1.5-3.1c0.1-0.1,3.3-0.1,7.6-0.1l7.4,0l0.1,0.8
		c0.2,3.1-1.2,9.9-2.9,13.4c-0.3,0.7-0.5,1.2-0.5,1.2c0.1,0,0,0.1-0.1,0.3c-0.1,0.2-0.5,0.8-0.8,1.4c-1.4,2.8-6.6,9.4-7.3,9.4
		c-0.1,0-0.3,0.2-0.6,0.5c-0.7,0.7-3.3,2.6-4.7,3.5c-0.7,0.4-1.2,0.8-1.2,0.9c0,0.1,0,0.1-0.1,0.1c-0.1-0.1-1,0.3-2.1,0.9
		c-1.1,0.5-2.8,1.2-3.7,1.5c-0.9,0.3-1.8,0.6-1.9,0.7c-0.1,0.1-0.2,0.1-0.3,0c-0.1-0.1-0.2,0-0.3,0c-0.2,0.2-0.4,0.2-1.3,0.3
		c-0.3,0-0.7,0.1-0.8,0.2c-0.7,0.2-4.7,0.7-5.2,0.6l-0.6-0.1l0-28.5c0-27.7,0.1-28.5,0.4-29.4c0.4-1.1,1.6-2.2,3.8-3.7
		c9.3-6.2,6.8-19.2-3.9-20.6c-9.4-1.2-15.6,9.9-9.8,17.6c0.8,1,1.1,1.3,4,3.4c1.9,1.4,2.4,2,3,3.2c0.3,0.8,0.3,0.9,0.4,29.3l0,28.5
		l-0.5,0.1c-0.5,0.1-3-0.2-4.7-0.5c-0.5-0.1-1.1-0.2-1.3-0.2s-0.6-0.1-0.8-0.2c-0.1-0.1-0.4-0.1-0.6-0.2c-0.2,0-0.4-0.1-0.6-0.2
		c-0.1,0-1-0.3-1.9-0.6c-0.9-0.3-2.6-1-3.8-1.5s-2.1-1-2.1-1c0,0-0.1,0-0.2-0.1c-0.1-0.1-1.1-0.8-2.3-1.6
		c-4.8-3.2-9.2-8.1-11.4-12.7c-0.2-0.4-0.4-0.8-0.5-0.8c-0.1,0-0.1-0.1,0-0.2c0.1-0.1,0-0.2-0.1-0.2c-0.1,0-0.1-0.1-0.1-0.2
		c0.1-0.1,0-0.2,0-0.2s-0.2-0.1-0.2-0.2c0-0.1-0.4-1-0.8-2c-1.1-2.6-1.5-4.4-2-7.8c-0.6-4.4-0.7-5.2-0.4-5.3c0.5-0.3,15-0.2,15,0.1
		c0,0.2-2,3.9-3.1,5.6c-0.2,0.3-0.3,0.7-0.3,0.7c0.1,0.1,0,0.1-0.1,0.1c-0.1,0-0.2,0.1-0.2,0.2c0,0.1-0.1,0.4-0.3,0.6
		c-0.5,0.7-2.5,4.3-2.5,4.4c0,0.1-0.1,0.2-0.2,0.3c-0.4,0.2,2.7,5.6,3.4,6c0.1,0.1,0.2,0.2,0.2,0.4c0,0.2,4,4.5,4.1,4.4
		c0,0,0.3,0.2,0.7,0.5c0.8,0.8,4.1,2.9,4.2,2.8c0.1,0,0.1,0,0.1,0.1c0,0.5,7.2,3.2,8.6,3.2c0.3,0,0.5-0.5,0.6-1.5
		c0.1-1,0.2-1.6,0.3-2.4c0.5-3.1,0.6-4.8,0.9-7.6c1-13.6,0.6-28.7-0.8-32.1c-0.1-0.2-0.2-0.6-0.2-0.7c-0.1-0.6-1.2-2.8-1.8-3.8
		c-0.7-1.1-1.1-1.5-4.4-4.4c-0.9-0.8-1.7-1.6-1.7-1.6c0-0.1-0.3-0.5-0.6-0.9c-0.7-0.9-1.7-2.9-2.1-4c-0.1-0.4-0.3-0.8-0.4-0.9
		c-0.1-0.1-0.1-0.2,0-0.2c0.1,0,0-0.1-0.1-0.2c-0.1-0.1-0.2-0.3-0.1-0.4c0.1-0.1,0-0.2-0.1-0.3c-0.1-0.1-0.1-0.2-0.1-0.4
		c0.1-0.1,0-0.3-0.1-0.4c-0.1-0.1-0.1-1.4-0.1-2.9c0.1-3.4,0.1-3.3,0.3-3.4c0.1-0.1,0.1-0.2,0.1-0.3c-0.1-0.1,0-0.2,0-0.4
		c0.1-0.1,0.1-0.2,0.1-0.3c0,0,0.1-0.2,0.1-0.3c0.1-0.1,0.3-0.8,0.5-1.4C355.3,262.2,364,257.7,371.6,259.5 M350.1,369
		c0.1,0.2,0.2,2.6,0.1,8.7l0,8.5l-1.3,0c-0.7,0-1.5,0-1.7,0l-0.4-0.1v-6.9c0-3.8-0.1-6.9-0.1-7c-0.1,0-0.6,0.1-1.2,0.3
		c-1.3,0.5-1.5,0.4-1.5-0.6c0-1.6,0.1-1.7,1.2-2c0.5-0.2,1.1-0.4,1.2-0.4c0.2-0.1,0.4-0.1,0.4-0.1c0.1,0,0.1-0.1,0.1-0.2
		c0-0.1,0.1-0.1,0.2-0.1c0.1,0.1,0.2,0,0.2-0.1C347.4,368.7,349.9,368.7,350.1,369 M359.5,368.9c0,0,0.2,0,0.3,0.1
		c3.2,0.4,5.2,6.2,4,11.8c-1,4.7-4.8,6.7-9.6,5.2l-1-0.3l0.1-1.3c0.1-1.7,0.1-1.7,1.1-1.2c1,0.4,2.8,0.6,3.6,0.3
		c0.6-0.2,1.9-1.3,1.7-1.5c0-0.1,0-0.3,0.2-0.4c0.2-0.2,0.6-1.6,0.6-2.3c0-0.3-0.1-0.3-0.7,0.2c-4,2.9-8.8-1.9-7.1-7.1
		c0.4-1.2,2.9-3.9,2.9-3.1c0,0.1,0.1,0,0.2-0.1c0.1-0.1,0.2-0.1,0.2-0.1c0,0.1,0.1,0.1,0.2,0C356.5,368.9,359.5,368.8,359.5,368.9
		 M374.7,369c0.1,0.1,0.3,0.1,0.4,0c0.1-0.1,0.3,0,0.4,0.1c0.1,0.1,0.3,0.2,0.3,0.2c0,0,0.3,0,0.6,0.1l0.5,0.2l-0.1,1.4
		c-0.1,1.7-0.1,1.6-0.7,1.3c-2.9-1.5-5.7-0.4-6.3,2.5c-0.2,1.3-0.2,1.3,0.9,0.8c4.4-2.3,8.7,3,6.4,7.9c-1.5,3.3-6.5,4-9.1,1.3
		c-2.7-2.9-2.7-10.5,0-13.9c0.5-0.7,2.3-1.8,2.6-1.7c0.1,0,0.1,0,0.1-0.1c0-0.1,0.1-0.1,0.2-0.1c0.1,0.1,0.3,0,0.3,0
		C371.4,368.8,374.5,368.8,374.7,369 M387,369c0.1,0.1,0.2,0.1,0.3,0c0.1,0,0.2,0,0.2,0.1c0,0.1,0,0.2,0.1,0.1
		c0.2-0.2,2,1.2,2.5,1.8c2.3,3.3,2,11.2-0.5,13.8c-1.2,1.3-3.9,2-5.4,1.6c-3.2-1-4.7-3.7-4.7-8.7c0-4.2,0.9-6.5,3.2-8.1
		c0.4-0.3,0.7-0.4,0.8-0.4c0.1,0.1,0.1,0,0.1-0.1c0-0.1,0.1-0.2,0.2-0.1c0.1,0.1,0.3,0,0.3,0C384.2,368.8,386.9,368.8,387,369
		 M357.5,371.7c-1.3,0.8-1.9,3.7-0.8,4.7c0.1,0.1,0.2,0.3,0.3,0.5c0.2,0.5,1.2,0.9,1.8,0.6c0.5-0.2,1.1-0.8,0.9-0.8
		c-0.1,0,0-0.1,0.1-0.2c0.1-0.1,0.3-0.2,0.3-0.3c0-0.1,0.1-0.3,0.2-0.5c0.2-0.5,0.2-2.6-0.1-2.7c-0.1,0-0.2-0.1-0.1-0.2
		c0.1-0.1,0-0.2-0.1-0.2c-0.1,0-0.1-0.1-0.1-0.1c0.2-0.3-1.1-1.2-1.6-1.2C358.1,371.4,357.8,371.6,357.5,371.7 M384.7,372
		c-0.4,0.2-0.7,0.7-0.7,1c0,0.1,0,0.1-0.1,0.1c-0.1,0-0.2,0.1-0.1,0.1c0,0.1-0.1,0.4-0.2,0.6c-0.3,0.7-0.3,7.1,0,7.5
		c0.1,0.2,0.2,0.3,0.1,0.3c-0.1,0,0,0.1,0.1,0.2c0.1,0.1,0.1,0.3,0.1,0.3c-0.1,0.1,0,0.1,0.1,0.1s0.2,0.1,0.1,0.1
		c-0.2,0.4,1.1,1.2,1.7,1.1c1.5-0.2,2.1-1.5,2.2-5.3C388,373.1,386.9,370.8,384.7,372 M371.6,377.7c-0.5,0.1-1.3,1.1-1.5,1.8
		c-0.8,2.9,1.4,5.5,3.1,3.7C375,381.3,373.8,377.3,371.6,377.7"/>
	<path id="path3" class="st3" d="M408.4,103.7c0.2,0,0.5,0,0.7,0c0.2,0,0-0.1-0.4-0.1S408.2,103.7,408.4,103.7 M410.3,103.9
		c0.2,0,0.4,0,0.6,0c0.2,0,0-0.1-0.3-0.1C410.3,103.8,410.1,103.8,410.3,103.9 M412.1,104c0.2,0,0.4,0,0.6,0c0.2,0,0-0.1-0.3-0.1
		C412.1,104,412,104,412.1,104 M417.8,104.5c0.2,0,0.4,0,0.6,0c0.2,0,0-0.1-0.3-0.1C417.8,104.5,417.6,104.5,417.8,104.5
		 M419.6,104.7c0.2,0,0.4,0,0.6,0c0.2,0,0-0.1-0.3-0.1S419.5,104.7,419.6,104.7 M421.6,104.9c0.2,0,0.4,0,0.6,0c0.2,0,0-0.1-0.3-0.1
		C421.6,104.8,421.5,104.8,421.6,104.9 M432.8,105.9c0.2,0,0.4,0,0.6,0c0.2,0,0-0.1-0.3-0.1C432.8,105.8,432.6,105.8,432.8,105.9
		 M408.6,106.2c0.2,0,0.5,0,0.7,0c0.2,0,0-0.1-0.4-0.1C408.5,106.1,408.4,106.2,408.6,106.2 M416.1,106.9c0.2,0,0.4,0,0.6,0
		c0.2,0,0-0.1-0.3-0.1S416,106.8,416.1,106.9 M444.1,106.9c0.2,0,0.4,0,0.6,0c0.2,0,0-0.1-0.3-0.1
		C444.1,106.8,444,106.8,444.1,106.9 M417.8,107c0.2,0,0.4,0,0.6,0c0.2,0,0-0.1-0.3-0.1C417.8,107,417.6,107,417.8,107 M445.9,107
		c0.2,0,0.5,0,0.7,0s0-0.1-0.4-0.1C445.8,107,445.7,107,445.9,107 M419.7,107.2c0.2,0,0.5,0,0.7,0c0.2,0,0-0.1-0.4-0.1
		C419.7,107.1,419.5,107.2,419.7,107.2 M447.9,107.2c0.2,0,0.5,0,0.7,0c0.2,0,0-0.1-0.4-0.1S447.7,107.2,447.9,107.2 M421.7,107.4
		c0.2,0,0.5,0,0.7,0c0.2,0,0-0.1-0.4-0.1C421.7,107.3,421.5,107.3,421.7,107.4 M449.8,107.4c0.2,0,0.4,0,0.6,0c0.2,0,0-0.1-0.3-0.1
		C449.8,107.3,449.6,107.3,449.8,107.4 M282.1,107.5c0.3,0,0.7,0,0.9,0c0.3,0,0-0.1-0.5-0.1C282.1,107.5,281.9,107.5,282.1,107.5
		 M423.4,107.5c0.2,0,0.5,0,0.8,0c0.2,0,0-0.1-0.4-0.1C423.4,107.5,423.2,107.5,423.4,107.5 M451.7,107.5c0.2,0,0.5,0,0.7,0
		c0.2,0,0-0.1-0.4-0.1C451.7,107.5,451.5,107.5,451.7,107.5 M285,107.7c0.3,0,0.6,0,0.8,0c0.2,0,0-0.1-0.5-0.1
		C284.9,107.6,284.7,107.7,285,107.7 M425.4,107.7c0.2,0,0.5,0,0.7,0c0.2,0,0-0.1-0.4-0.1S425.2,107.7,425.4,107.7 M453.7,107.7
		c0.2,0,0.5,0,0.7,0c0.2,0,0-0.1-0.4-0.1C453.7,107.6,453.5,107.7,453.7,107.7 M287.3,107.9c0.3,0,0.6,0,0.8,0c0.2,0,0-0.1-0.5-0.1
		C287.2,107.8,287.1,107.8,287.3,107.9 M427.5,107.9c0.2,0,0.4,0,0.6,0c0.2,0,0-0.1-0.3-0.1C427.4,107.8,427.3,107.8,427.5,107.9
		 M455.6,107.9c0.2,0,0.5,0,0.7,0c0.2,0,0-0.1-0.4-0.1C455.5,107.8,455.4,107.8,455.6,107.9 M289.6,108c0.3,0,0.6,0,0.8,0
		c0.2,0,0-0.1-0.5-0.1C289.6,108,289.4,108,289.6,108 M429.3,108c0.2,0,0.4,0,0.6,0c0.2,0,0-0.1-0.3-0.1
		C429.3,108,429.1,108,429.3,108 M457.4,108c0.2,0,0.5,0,0.7,0s0-0.1-0.4-0.1C457.3,108,457.2,108,457.4,108 M291.9,108.2
		c0.2,0,0.5,0,0.7,0c0.2,0,0-0.1-0.4-0.1S291.7,108.2,291.9,108.2 M431.2,108.2c0.2,0,0.5,0,0.7,0c0.2,0,0-0.1-0.4-0.1
		C431.2,108.1,431,108.2,431.2,108.2 M459.3,108.2c0.2,0,0.4,0,0.6,0c0.2,0,0-0.1-0.3-0.1C459.3,108.1,459.1,108.2,459.3,108.2
		 M294.1,108.4c0.2,0,0.4,0,0.6,0c0.2,0,0-0.1-0.3-0.1C294.1,108.3,294,108.3,294.1,108.4 M433.2,108.4c0.2,0,0.5,0,0.7,0
		c0.2,0,0-0.1-0.4-0.1C433.2,108.3,433,108.3,433.2,108.4 M461.3,108.4c0.2,0,0.4,0,0.6,0c0.2,0,0-0.1-0.3-0.1
		C461.3,108.3,461.1,108.3,461.3,108.4 M434.9,108.5c0.2,0,0.5,0,0.7,0s0-0.1-0.4-0.1C434.8,108.5,434.7,108.5,434.9,108.5
		 M263.6,109.2c0.3,0,0.7,0,0.9,0c0.3,0,0-0.1-0.5-0.1C263.6,109.1,263.4,109.2,263.6,109.2 M470.6,109.3c0,0.1,0.1,0.2,0.2,0.2
		c0.1,0,0.2-0.1,0.2-0.2c0-0.1-0.1-0.2-0.2-0.2C470.7,109.1,470.6,109.2,470.6,109.3 M267.8,109.4c0.3,0,0.7,0,0.9,0
		c0.3,0,0-0.1-0.5-0.1S267.6,109.3,267.8,109.4 M271,109.5c0.3,0,0.6,0,0.8,0c0.2,0,0-0.1-0.5-0.1
		C270.9,109.5,270.7,109.5,271,109.5 M446.3,109.5c0.2,0,0.4,0,0.6,0c0.2,0,0-0.1-0.3-0.1C446.3,109.5,446.1,109.5,446.3,109.5
		 M274.6,109.7c0.2,0,0.5,0,0.8,0c0.2,0,0-0.1-0.4-0.1C274.5,109.6,274.4,109.7,274.6,109.7 M277.9,109.9c0.2,0,0.5,0,0.7,0
		s0-0.1-0.4-0.1C277.8,109.8,277.7,109.8,277.9,109.9 M450,109.9c-0.1,0.2,0,0.2,0.5,0c0.3-0.1,0.3-0.1,0-0.2
		C450.3,109.8,450.1,109.8,450,109.9 M280.4,110c0.2,0,0.5,0,0.7,0s0-0.1-0.4-0.1C280.3,110,280.2,110,280.4,110 M285.5,110.4
		c0.2,0,0.4,0,0.6,0c0.2,0,0-0.1-0.3-0.1C285.4,110.3,285.3,110.3,285.5,110.4 M287.6,110.5c0.2,0,0.4,0,0.6,0c0.2,0,0-0.1-0.3-0.1
		C287.6,110.5,287.5,110.5,287.6,110.5 M290.2,110.7c0.2,0,0.5,0,0.8,0c0.2,0,0-0.1-0.4-0.1C290.2,110.6,290,110.7,290.2,110.7
		 M292.2,110.9c0.2,0,0.5,0,0.8,0c0.2,0,0-0.1-0.4-0.1C292.2,110.8,292,110.8,292.2,110.9 M294.3,111c0.2,0,0.4,0,0.6,0
		c0.2,0,0-0.1-0.3-0.1C294.3,111,294.1,111,294.3,111 M296.5,111.2c0.2,0,0.4,0,0.6,0s0-0.1-0.3-0.1
		C296.4,111.1,296.3,111.2,296.5,111.2 M298.3,111.4c0.2,0,0.4,0,0.6,0c0.2,0,0-0.1-0.3-0.1C298.3,111.3,298.1,111.3,298.3,111.4
		 M300.1,111.5c0.2,0,0.4,0,0.6,0c0.2,0,0-0.1-0.3-0.1C300.1,111.5,300,111.5,300.1,111.5 M301.9,111.7c0.2,0,0.5,0,0.7,0
		c0.2,0,0-0.1-0.4-0.1S301.7,111.7,301.9,111.7 M303.6,111.9c0.2,0,0.4,0,0.6,0c0.2,0,0-0.1-0.3-0.1
		C303.6,111.8,303.5,111.8,303.6,111.9 M305.1,112c0.2,0,0.4,0,0.6,0c0.2,0,0-0.1-0.3-0.1S305,112,305.1,112 M306.8,112.2
		c0.2,0,0.4,0,0.6,0c0.2,0,0-0.1-0.3-0.1C306.8,112.1,306.6,112.2,306.8,112.2 M328.1,112.2c0.5,0,1.3,0,1.8,0
		c0.5,0,0.1-0.1-0.9-0.1C328,112.1,327.6,112.2,328.1,112.2 M325.1,112.4c0.2,0,0.5,0,0.7,0c0.2,0,0-0.1-0.4-0.1
		C325,112.3,324.9,112.3,325.1,112.4 M358.1,115.1l-0.9,0.1l1.2,0c0.9,0,1.2,0,1-0.1c-0.1-0.1-0.3-0.2-0.3-0.1
		C359.1,115,358.6,115,358.1,115.1 M351.6,115.4c0.4,0,1.1,0,1.6,0c0.4,0,0.1-0.1-0.8-0.1S351.2,115.3,351.6,115.4 M321.3,116
		l-0.6,0.6L321.3,116c0.6-0.5,0.8-0.6,0.6-0.6C321.9,115.4,321.6,115.7,321.3,116 M341.8,115.5c1.2,0,3.1,0,4.2,0s0.2-0.1-2.1-0.1
		C341.6,115.5,340.6,115.5,341.8,115.5 M360.7,116.7c0.5,0,1.3,0,1.8,0c0.5,0,0.1-0.1-0.9-0.1C360.6,116.6,360.2,116.7,360.7,116.7
		 M356,116.9c0.2,0,0.4,0,0.6,0c0.2,0,0-0.1-0.3-0.1C355.9,116.8,355.8,116.8,356,116.9 M352.3,117c0.3,0,0.6,0,0.8,0
		c0.2,0,0-0.1-0.5-0.1C352.2,117,352.1,117,352.3,117 M349.4,117.2c0.2,0,0.5,0,0.8,0c0.2,0,0-0.1-0.4-0.1
		C349.4,117.1,349.2,117.2,349.4,117.2 M346.4,117.4c0.2,0,0.5,0,0.7,0c0.2,0,0-0.1-0.4-0.1S346.2,117.3,346.4,117.4 M343.7,117.5
		c0.2,0,0.5,0,0.8,0c0.2,0,0-0.1-0.4-0.1C343.7,117.5,343.5,117.5,343.7,117.5 M340.9,117.7c0.2,0,0.5,0,0.7,0c0.2,0,0-0.1-0.4-0.1
		S340.7,117.7,340.9,117.7 M321.5,119.1l-0.5,0.5L321.5,119.1c0.4-0.2,0.6-0.5,0.6-0.5C322.1,118.5,322,118.6,321.5,119.1
		 M409.5,118.7c0.4,0,1.1,0,1.5,0c0.4,0,0-0.1-0.8-0.1C409.4,118.6,409,118.7,409.5,118.7 M405.1,118.9c0.3,0,0.8,0,1.1,0
		c0.3,0,0.1-0.1-0.5-0.1C405,118.8,404.8,118.8,405.1,118.9 M400.4,119c0.4,0,1,0,1.4,0s0.1-0.1-0.7-0.1
		C400.3,119,400,119,400.4,119 M395.3,119.2c0.4,0,1.1,0,1.6,0c0.4,0,0.1-0.1-0.8-0.1C395.2,119.1,394.9,119.2,395.3,119.2
		 M390.5,119.4c0.4,0,1.1,0,1.6,0c0.4,0,0.1-0.1-0.8-0.1C390.4,119.3,390,119.3,390.5,119.4 M387.5,119.5c0.3,0,0.6,0,0.8,0
		c0.2,0,0-0.1-0.5-0.1C387.4,119.5,387.2,119.5,387.5,119.5 M414.2,121c0.3,0,0.8,0,1.2,0c0.3,0,0.1-0.1-0.5-0.1
		C414.2,121,413.9,121,414.2,121 M409.9,121.2c0.2,0,0.5,0,0.8,0c0.2,0,0-0.1-0.4-0.1C409.9,121.1,409.7,121.2,409.9,121.2
		 M325.1,121.4c0.2,0,0.5,0,0.8,0c0.2,0,0-0.1-0.4-0.1C325,121.3,324.9,121.3,325.1,121.4 M405.2,121.4c0.3,0,0.7,0,1,0
		c0.2,0,0-0.1-0.5-0.1C405.1,121.3,404.9,121.3,405.2,121.4 M400.9,121.5c0.2,0,0.5,0,0.8,0c0.2,0,0-0.1-0.4-0.1
		C400.9,121.5,400.7,121.5,400.9,121.5 M391.2,121.7c0.3,0,0.8,0,1.1,0s0.1-0.1-0.5-0.1C391.2,121.6,390.9,121.7,391.2,121.7
		 M387.1,121.9c0.2,0,0.5,0,0.7,0c0.2,0,0-0.1-0.4-0.1C387,121.8,386.9,121.8,387.1,121.9 M311.7,123.7c-0.2,0.2-0.1,0.4,0.3,0.4
		c0.3,0,0.3,0,0.1-0.1c-0.2,0-0.3-0.1-0.2-0.2C312,123.6,311.9,123.5,311.7,123.7 M390.3,124.1c-0.1,0.1,0.1,0.4,0.4,0.7l0.6,0.5
		l-0.5-0.6c-0.4-0.5-0.5-0.6-0.2-0.7c0.1-0.1,0.2-0.2,0-0.2C390.5,123.9,390.4,124,390.3,124.1 M413.6,124c0.2,0,0.4,0,0.6,0
		c0.2,0,0-0.1-0.3-0.1C413.6,124,413.5,124,413.6,124 M383.6,128.5c0.3,0,0.8,0,1.1,0s0.1-0.1-0.5-0.1
		C383.5,128.5,383.3,128.5,383.6,128.5 M387.9,128.5c0.3,0,0.8,0,1.1,0s0.1-0.1-0.5-0.1C387.8,128.5,387.6,128.5,387.9,128.5
		 M383.6,131c0.3,0,0.6,0,0.8,0c0.2,0,0-0.1-0.5-0.1C383.6,131,383.4,131,383.6,131 M388.2,131c0.2,0,0.5,0,0.8,0
		c0.2,0,0-0.1-0.4-0.1C388.2,131,388,131,388.2,131 M381.3,131.2c0.2,0,0.4,0,0.6,0c0.2,0,0-0.1-0.3-0.1
		C381.3,131.1,381.1,131.2,381.3,131.2 M362,131.7c0.2,0,0.4,0,0.6,0c0.2,0,0-0.1-0.3-0.1C361.9,131.6,361.8,131.7,362,131.7
		 M360.2,131.9c0.2,0,0.5,0,0.7,0c0.2,0,0-0.1-0.4-0.1C360.2,131.8,360,131.8,360.2,131.9 M397.6,132.4c0,0.4,0,0.6,0.1,0.4
		c0-0.2,0-0.5,0-0.8C397.7,131.8,397.6,132,397.6,132.4 M343.4,132c0.2,0,0.5,0,0.7,0c0.2,0,0-0.1-0.4-0.1
		C343.3,132,343.2,132,343.4,132 M358.4,132c0.2,0,0.5,0,0.8,0c0.2,0,0-0.1-0.4-0.1C358.4,132,358.2,132,358.4,132 M345.5,132.2
		c0.3,0,0.7,0,0.9,0c0.3,0,0-0.1-0.5-0.1S345.2,132.2,345.5,132.2 M355.6,132.2c0.3,0,0.8,0,1.1,0s0.1-0.1-0.5-0.1
		C355.5,132.1,355.3,132.2,355.6,132.2 M349.9,132.4c0.6,0,1.5,0,2,0c0.5,0,0.1-0.1-1-0.1C349.8,132.3,349.3,132.3,349.9,132.4
		 M386.1,133.9c0.2,0,0.5,0,0.7,0c0.2,0,0-0.1-0.4-0.1C386,133.8,385.9,133.8,386.1,133.9 M343.5,134.5c0.2,0,0.4,0,0.6,0
		c0.2,0,0-0.1-0.3-0.1S343.3,134.5,343.5,134.5 M358.1,134.5c0.2,0,0.5,0,0.7,0c0.2,0,0-0.1-0.4-0.1
		C358,134.5,357.9,134.5,358.1,134.5 M345.7,134.7c0.3,0,0.7,0,1,0c0.2,0,0-0.1-0.5-0.1C345.6,134.6,345.4,134.7,345.7,134.7
		 M354.9,134.7c0.3,0,0.8,0,1.2,0c0.3,0,0.1-0.1-0.5-0.1C354.9,134.6,354.6,134.7,354.9,134.7 M217.3,158.4c0,0.4,0,0.6,0.1,0.4
		c0-0.2,0-0.5,0-0.8C217.3,157.8,217.3,158,217.3,158.4 M518.5,167.5c0,1.1,0,1.5,0.1,1c0-0.6,0-1.5,0-2
		C518.5,165.9,518.5,166.4,518.5,167.5 M358.8,172.9c0.3,0,0.9,0,1.2,0s0.1-0.1-0.6-0.1C358.7,172.8,358.5,172.8,358.8,172.9
		 M373.2,172.9c0.3,0,0.8,0,1.2,0c0.3,0,0.1-0.1-0.5-0.1C373.2,172.8,372.9,172.8,373.2,172.9 M518.5,178.3c0,1.1,0,1.5,0.1,1
		c0-0.6,0-1.5,0-2C518.5,176.8,518.5,177.2,518.5,178.3 M217.3,187.1c0,0.4,0,0.6,0.1,0.4c0-0.2,0-0.5,0-0.8
		C217.3,186.5,217.3,186.7,217.3,187.1 M373.2,187c0.6,0,0.9,0.1,0.9,0.3c0.1,0.2,0.1,0.2,0.1-0.1C374.2,187,374.1,187,373.2,187
		l-0.9-0.1L373.2,187 M377.8,205.4c0,18.1,0,18.2,0.3,18.3c0.3,0,0.3,0,0-0.1C378,223.6,377.9,222.5,377.8,205.4l0-18.2L377.8,205.4
		 M380.1,187.4c0.3,0,0.7,0,0.9,0s0-0.1-0.5-0.1C380.1,187.3,379.9,187.3,380.1,187.4 M383.4,187.5c0.3,0,0.8,0,1.2,0
		c0.3,0,0.1-0.1-0.5-0.1C383.4,187.5,383.1,187.5,383.4,187.5 M340.4,187.7l1,0.1l0,18.2l0,18.2l0-18.2l0-18.2L340.4,187.7l-1-0.1
		L340.4,187.7 M387.1,187.7c0.3,0,0.8,0,1.2,0s0.1-0.1-0.5-0.1C387,187.6,386.8,187.7,387.1,187.7 M336.5,187.9c0.3,0,0.9,0,1.2,0
		c0.3,0,0.1-0.1-0.6-0.1C336.4,187.8,336.1,187.8,336.5,187.9 M390.2,187.9c0.3,0,0.8,0,1.2,0c0.3,0,0.1-0.1-0.5-0.1
		C390.2,187.8,389.9,187.8,390.2,187.9 M334.3,206.2c0,10.1,0,14.2,0,9.1c0-5.1,0-13.3,0-18.3C334.4,191.9,334.3,196.1,334.3,206.2
		 M393.7,188c0.3,0,0.8,0,1.2,0c0.3,0,0.1-0.1-0.5-0.1C393.7,188,393.4,188,393.7,188 M397.5,188.2c0.3,0,0.6,0,0.8,0
		c0.2,0,0-0.1-0.5-0.1C397.4,188.1,397.2,188.2,397.5,188.2 M401.1,188.4c0.3,0,0.6,0,0.8,0c0.2,0,0-0.1-0.5-0.1
		C401.1,188.3,400.9,188.3,401.1,188.4 M420.4,190.2c0.2,0,0.5,0,0.7,0c0.2,0,0-0.1-0.4-0.1S420.2,190.2,420.4,190.2 M423.2,190.2
		c0.2,0,0.5,0,0.8,0c0.2,0,0-0.1-0.4-0.1C423.2,190.1,423,190.2,423.2,190.2 M326.3,191.8c0.3,0.3,0.6,0.6,0.6,0.6
		c0,0-0.2-0.3-0.5-0.6c-0.3-0.3-0.6-0.6-0.6-0.6C325.7,191.3,326,191.5,326.3,191.8 M385,208.4c0,8.4,0,11.8,0,7.6
		c0-4.2,0-11.1,0-15.2C385,196.6,385,200,385,208.4 M391.8,193.5c0.3,0,0.6,0,0.8,0c0.2,0,0-0.1-0.5-0.1
		C391.7,193.5,391.6,193.5,391.8,193.5 M395.5,193.7c0.3,0,0.6,0,0.8,0c0.2,0,0-0.1-0.5-0.1C395.4,193.6,395.2,193.7,395.5,193.7
		 M315.1,195c0.2,0,0.4,0,0.6,0c0.2,0,0-0.1-0.3-0.1S315,195,315.1,195 M313.5,195.2c0.2,0,0.4,0,0.6,0c0.2,0,0-0.1-0.3-0.1
		S313.3,195.2,313.5,195.2 M311.8,195.4c0.2,0,0.4,0,0.6,0c0.2,0,0-0.1-0.3-0.1C311.8,195.3,311.6,195.3,311.8,195.4 M311.3,201.9
		c0,3.6,0,5.1,0,3.3c0-1.8,0-4.8,0-6.6C311.4,196.8,311.3,198.3,311.3,201.9 M428.3,197.5c0,0,0.2,0.3,0.5,0.5l0.5,0.5l-0.5-0.5
		C428.4,197.5,428.3,197.3,428.3,197.5 M448.5,198.3c0,0.5,0,0.7,0.1,0.5c0-0.3,0-0.7,0-0.9C448.5,197.5,448.5,197.7,448.5,198.3
		 M470.3,216.8c0,10,0,14.1,0,9.1c0-5,0-13.1,0-18.2C470.4,202.8,470.3,206.8,470.3,216.8 M322,200.8c0,0.7,0,1,0.1,0.6s0-1,0-1.3
		C322,199.8,322,200.1,322,200.8 M477.3,218.5c0,10.1,0,14.2,0,9.1c0-5.1,0-13.3,0-18.3C477.4,204.3,477.3,208.4,477.3,218.5
		 M448.3,202.6c0,0.5,0,0.7,0.1,0.5c0-0.3,0-0.7,0-0.9S448.3,202.1,448.3,202.6 M455,202.5c0,0.5,0,0.6,0.1,0.4c0-0.3,0-0.6,0-0.8
		C455,201.8,455,202,455,202.5 M409.8,203.3c0,0.3,0,0.5,0.1,0.3c0-0.2,0-0.4,0-0.6C409.8,202.8,409.8,202.9,409.8,203.3
		 M463.3,218.1c0,8.5,0,15.5,0.1,15.5c0.1,0.1,0.1-10.7,0-25.4C463.4,205.2,463.3,209.6,463.3,218.1 M409.7,207.3
		c0,1.6,0,2.3,0.1,1.5c0-0.8,0-2.1,0-2.9C409.7,205,409.7,205.6,409.7,207.3 M231,205c-0.2,0.2-0.1,36.4,0,36.4
		c0.1,0,0.1-8.1,0.1-18.1c0-14.5,0-18.2,0.2-18.3c0.1-0.1,0.1-0.1,0-0.1C231.2,204.9,231.1,205,231,205 M417.2,206.3
		c0,0.7,0,1,0.1,0.6s0-1,0-1.3C417.2,205.3,417.2,205.6,417.2,206.3 M448.2,206.1c0,0.5,0,0.7,0.1,0.5c0-0.3,0-0.7,0-0.9
		S448.2,205.6,448.2,206.1 M454.8,206c0,0.5,0,0.6,0.1,0.4c0-0.3,0-0.6,0-0.8C454.8,205.3,454.8,205.5,454.8,206 M266.3,220
		c0,7.3,0,13.2,0,13.2s0.1-6,0.1-13.3l0-13.2L266.3,220 M313.3,208.2c0.2,0,0.4,0,0.6,0c0.2,0,0-0.1-0.3-0.1
		C313.3,208.1,313.1,208.2,313.3,208.2 M259.9,208.5c0,0.1,0,0.4,0,0.7c0.1,0.5,0.1,0.4,0.1-0.2C260.1,208.3,260,208.1,259.9,208.5
		 M454.6,209c0,0.5,0,0.6,0.1,0.4c0-0.3,0-0.6,0-0.8C454.7,208.3,454.6,208.5,454.6,209 M417.2,209.8c0,0.7,0,1,0.1,0.6s0-1,0-1.3
		C417.2,208.8,417.2,209.1,417.2,209.8 M325.6,209.7c-0.4,0.4-0.7,0.8-0.7,0.8c0,0,0.4-0.3,0.8-0.8c0.4-0.4,0.7-0.8,0.7-0.8
		C326.4,208.9,326,209.3,325.6,209.7 M448,210.1c0,0.3,0,0.5,0.1,0.3c0-0.2,0-0.4,0-0.6C448,209.6,448,209.8,448,210.1 M409.8,211.1
		c0,0.3,0,0.5,0.1,0.3c0-0.2,0-0.4,0-0.6C409.8,210.6,409.8,210.8,409.8,211.1 M259.8,212.8c0,0.6,0,0.8,0.1,0.5c0-0.3,0-0.8,0-1.1
		C259.9,211.9,259.8,212.2,259.8,212.8 M454.5,212.6c0,0.5,0,0.7,0.1,0.5c0-0.3,0-0.7,0-0.9C454.5,211.9,454.5,212.1,454.5,212.6
		 M447.8,213.9c0,0.5,0,0.7,0.1,0.5s0-0.7,0-0.9C447.8,213.2,447.8,213.4,447.8,213.9 M237.2,215.1c0,0.8,0,1.1,0.1,0.7
		c0-0.4,0-1,0-1.4C237.2,214,237.2,214.3,237.2,215.1 M311.3,214c0,0.1-0.1,3,0,6.4l0,6.2l0-6.3c0-4.8,0.1-6.3,0.2-6.4
		c0.2-0.1,0.2-0.1,0-0.1C311.5,213.8,311.4,213.8,311.3,214 M454.3,216.1c0,0.5,0,0.7,0.1,0.5c0-0.3,0-0.7,0-0.9
		S454.3,215.6,454.3,216.1 M259.7,218.2c0,0.7,0,1,0.1,0.6s0-1,0-1.3C259.7,217.1,259.7,217.4,259.7,218.2 M237.3,219.6
		c0,0.7,0,1,0.1,0.6c0-0.3,0-0.9,0-1.2C237.4,218.6,237.3,218.9,237.3,219.6 M454.1,219.2c0,0.5,0,0.6,0.1,0.4c0-0.3,0-0.6,0-0.8
		C454.2,218.5,454.1,218.7,454.1,219.2 M352.9,218.7c0.2,0,0.5,0,0.8,0c0.2,0,0-0.1-0.4-0.1C352.9,218.6,352.7,218.7,352.9,218.7
		 M429.3,220.9l-0.6,0.6L429.3,220.9c0.6-0.5,0.8-0.6,0.6-0.6C429.9,220.3,429.6,220.5,429.3,220.9 M497.4,221c0,0,0.2,0.3,0.5,0.5
		l0.5,0.5l-0.5-0.5C497.6,221,497.4,220.8,497.4,221 M425.1,222.4c0.3,0,0.7,0,0.9,0c0.3,0,0-0.1-0.5-0.1
		C425.1,222.3,424.9,222.3,425.1,222.4 M348.2,222.7c0,0.2,0.1,0.4,0.3,0.5c0.2,0,0.2,0,0.1-0.1
		C348.4,223.1,348.3,222.9,348.2,222.7C348.1,222.4,348.1,222.4,348.2,222.7 M259.7,229.1c0,3.2,0,4.5,0,2.9c0-1.6,0-4.2,0-5.8
		C259.7,224.6,259.7,225.9,259.7,229.1 M351.7,223.9c0.2,0,0.5,0,0.8,0c0.2,0,0-0.1-0.4-0.1C351.7,223.8,351.5,223.8,351.7,223.9
		 M355.3,223.9c0.2,0,0.4,0,0.6,0c0.2,0,0-0.1-0.3-0.1C355.3,223.8,355.1,223.8,355.3,223.9 M380.3,223.9c0.3,0,0.9,0,1.2,0
		s0.1-0.1-0.6-0.1C380.2,223.8,380,223.8,380.3,223.9 M383.9,223.9l-1.1,0.1l1.1,0c0.7,0,1.1,0,1.1-0.1c0-0.1,0-0.2,0-0.1
		C385,223.8,384.5,223.9,383.9,223.9 M237.4,232c0,4.5,0,8.1,0,8c0.1-0.1,0.1-3.7,0.1-8.1l0-8L237.4,232 M339.8,224.2
		c0.3,0,0.7,0,0.9,0c0.3,0,0-0.1-0.5-0.1C339.8,224.1,339.6,224.2,339.8,224.2 M336.3,224.4c0.3,0,0.7,0,0.9,0c0.3,0,0-0.1-0.5-0.1
		S336.1,224.3,336.3,224.4 M397.6,224.7c0.3,0,0.8,0,1.2,0c0.3,0,0.1-0.1-0.5-0.1C397.5,224.6,397.3,224.7,397.6,224.7 M444.1,224.7
		c0.2,0,0.5,0,0.7,0c0.2,0,0-0.1-0.4-0.1C444,224.6,443.9,224.7,444.1,224.7 M401.6,224.9c0.2,0,0.5,0,0.7,0c0.2,0,0-0.1-0.4-0.1
		C401.5,224.8,401.4,224.8,401.6,224.9 M441.3,227.2c0,1.1,0,1.5,0.1,1c0-0.6,0-1.5,0-2C441.4,225.6,441.3,226.1,441.3,227.2
		 M307.1,226.9c0.2,0,0.4,0,0.6,0c0.2,0,0-0.1-0.3-0.1S307,226.8,307.1,226.9 M426.5,228.2c0.3,0,0.9,0,1.2,0c0.3,0,0.1-0.1-0.6-0.1
		C426.4,228.1,426.1,228.2,426.5,228.2 M501.8,231.7c0,0.8,0,1.2,0.1,0.8c0-0.4,0-1.1,0-1.5S501.8,230.8,501.8,231.7 M270.3,232.1
		c0,0.2,0.1,0.3,0.4,0.3c0.3,0,0.3,0,0.1-0.1c-0.1-0.1-0.3-0.2-0.4-0.3C270.3,231.9,270.3,231.9,270.3,232.1 M490.6,234.7
		c0.3,0,0.8,0,1,0s0-0.1-0.5-0.1C490.5,234.6,490.3,234.7,490.6,234.7 M362.4,236.4c2.1,0,5.6,0,7.8,0c2.1,0,0.4,0-3.9,0
		C362,236.3,360.3,236.4,362.4,236.4 M352.1,236.5c0.6,0,1.5,0,2,0c0.5,0,0.1-0.1-1-0.1C351.9,236.5,351.5,236.5,352.1,236.5
		 M378.6,236.5c0.5,0,1.4,0,1.9,0c0.5,0,0.1-0.1-1-0.1C378.5,236.5,378.1,236.5,378.6,236.5 M347.2,236.7c0.3,0,0.8,0,1.2,0
		c0.3,0,0.1-0.1-0.5-0.1C347.2,236.6,346.9,236.7,347.2,236.7 M384.2,236.7c0.3,0,0.8,0,1.1,0s0.1-0.1-0.5-0.1
		C384.2,236.6,383.9,236.7,384.2,236.7 M343.3,236.9c0.3,0,0.7,0,0.9,0s0-0.1-0.5-0.1C343.3,236.8,343.1,236.8,343.3,236.9
		 M388.5,236.9c0.3,0,0.7,0,0.9,0c0.3,0,0-0.1-0.5-0.1S388.2,236.8,388.5,236.9 M340.3,237c0.3,0,0.6,0,0.8,0c0.2,0,0-0.1-0.5-0.1
		C340.2,237,340.1,237,340.3,237 M391.6,237c0.2,0,0.5,0,0.8,0s0-0.1-0.4-0.1C391.5,237,391.4,237,391.6,237 M337.2,237.2
		c0.2,0,0.5,0,0.7,0c0.2,0,0-0.1-0.4-0.1C337.2,237.1,337,237.2,337.2,237.2 M394.7,237.2c0.2,0,0.5,0,0.7,0c0.2,0,0-0.1-0.4-0.1
		C394.7,237.1,394.5,237.2,394.7,237.2 M327.8,237.9c0.2,0,0.4,0,0.6,0c0.2,0,0-0.1-0.3-0.1C327.8,237.8,327.6,237.8,327.8,237.9
		 M325.8,238c0.2,0,0.4,0,0.6,0c0.2,0,0-0.1-0.3-0.1C325.8,238,325.6,238,325.8,238 M406.1,238c0.2,0,0.4,0,0.6,0
		c0.2,0,0-0.1-0.3-0.1S406,238,406.1,238 M323.8,238.2c0.2,0,0.4,0,0.6,0c0.2,0,0-0.1-0.3-0.1C323.8,238.1,323.6,238.2,323.8,238.2
		 M415.3,238.9c0.2,0,0.4,0,0.6,0c0.2,0,0-0.1-0.3-0.1C415.3,238.8,415.1,238.8,415.3,238.9 M312,239.4c0.2,0,0.4,0,0.6,0
		c0.2,0,0-0.1-0.3-0.1S311.8,239.3,312,239.4 M420,239.4c0.2,0,0.4,0,0.6,0c0.2,0,0-0.1-0.3-0.1C419.9,239.3,419.8,239.3,420,239.4
		 M356.2,264.1l-0.8,0.9L356.2,264.1c0.5-0.4,0.9-0.8,0.9-0.8C357.1,263.2,356.9,263.3,356.2,264.1 M367.6,264c0.2,0,0.4,0,0.6,0
		c0.2,0,0-0.1-0.3-0.1S367.5,264,367.6,264 M375.3,266.8c0,0,0.2,0.3,0.5,0.5l0.5,0.5l-0.5-0.5C375.4,266.8,375.3,266.7,375.3,266.8
		 M379,275.1c0,0.7,0,1,0.1,0.6c0-0.3,0-0.9,0-1.2C379,274.1,379,274.4,379,275.1 M360.1,283c0.7,0.7,0.8,0.9,0.8,0.7
		C360.9,283.7,360.6,283.3,360.1,283l-0.7-0.8L360.1,283 M356.3,287.2c0.3,0.3,0.6,0.6,0.6,0.6c0,0-0.2-0.3-0.5-0.6
		c-0.3-0.3-0.6-0.6-0.6-0.6C355.7,286.6,356,286.8,356.3,287.2 M378.8,287.7l-0.6,0.6L378.8,287.7c0.6-0.5,0.8-0.6,0.6-0.6
		C379.4,287.1,379.1,287.4,378.8,287.7 M375.8,290.3l-0.8,0.9L375.8,290.3c0.9-0.7,1-0.9,0.9-0.9
		C376.7,289.4,376.3,289.8,375.8,290.3 M366.6,318.5l0,27.7l-0.7,0.1l-0.7,0.1l0.7,0c0.4,0,0.7,0,0.8-0.2c0-0.1,0.1-12.6,0-27.8
		l0-27.6L366.6,318.5 M364.5,302.9c0,0.3,0,0.5,0.1,0.3c0-0.2,0-0.4,0-0.6C364.5,302.5,364.5,302.6,364.5,302.9 M371.1,304
		c0,0.4,0,0.5,0.1,0.3c0-0.2,0-0.5,0-0.7C371.2,303.5,371.1,303.6,371.1,304 M364.7,306.3c0,1,0,1.4,0.1,0.9c0-0.5,0-1.3,0-1.8
		C364.7,304.9,364.7,305.3,364.7,306.3 M371,312.3c0,3.3,0,4.6,0,3c0-1.6,0-4.3,0-5.9C371,307.7,371,309,371,312.3 M335,311
		c6.8,0.1,12.4,0.1,12.3,0c0-0.1-3.4-0.1-7.5-0.1C335.7,311,333.6,311,335,311 M392.2,311c2.1,0,5.5,0,7.5,0c2,0,0.3,0-3.8,0
		S390.1,311,392.2,311 M364.7,318.7c0,1.1,0,1.5,0.1,1c0-0.6,0-1.5,0-2C364.7,317.1,364.7,317.6,364.7,318.7 M371.2,321.5
		c0,0.5,0,0.8,0.1,0.5c0-0.3,0-0.8,0-1S371.2,321,371.2,321.5 M364.5,323.2c0,0.5,0,0.6,0.1,0.4c0-0.3,0-0.6,0-0.8
		C364.5,322.5,364.5,322.7,364.5,323.2 M371.3,324.8c0,0.3,0,0.5,0.1,0.3c0-0.2,0-0.4,0-0.6C371.3,324.3,371.3,324.4,371.3,324.8
		 M364.3,326.3c0,0.3,0,0.5,0.1,0.3c0-0.2,0-0.4,0-0.6C364.3,325.8,364.3,325.9,364.3,326.3 M389.8,331.3c-0.4,0.4-0.7,0.8-0.7,0.8
		c0,0,0.4-0.3,0.8-0.8c0.4-0.4,0.7-0.8,0.7-0.8C390.5,330.6,390.2,330.9,389.8,331.3 M346.6,332.2c0.3,0.3,0.6,0.6,0.6,0.6
		c0,0-0.2-0.3-0.5-0.6c-0.3-0.3-0.6-0.6-0.6-0.6C346.1,331.6,346.3,331.8,346.6,332.2 M341.6,334.8c0,0,0.6,0.6,1.3,1.3l1.3,1.2
		l-1.2-1.3C341.8,334.8,341.6,334.7,341.6,334.8 M369.5,346.4c0.3,0,0.6,0,0.8,0s0-0.1-0.5-0.1C369.4,346.3,369.2,346.3,369.5,346.4
		 M468.5,347.5L468,348L468.5,347.5c0.6-0.4,0.7-0.5,0.5-0.5C469,346.9,468.8,347.2,468.5,347.5 M465.8,350.5l-0.5,0.5L465.8,350.5
		c0.6-0.4,0.7-0.5,0.5-0.5C466.4,349.9,466.1,350.2,465.8,350.5 M464.3,352.2c-0.4,0.4-0.7,0.8-0.7,0.8c0,0,0.4-0.3,0.8-0.8
		c0.4-0.4,0.7-0.8,0.7-0.8S464.7,351.8,464.3,352.2 M271.5,352.4c0.4,0.4,0.7,0.7,0.7,0.7c0,0-0.2-0.3-0.6-0.7
		c-0.4-0.4-0.7-0.7-0.7-0.7S271.2,352.1,271.5,352.4 M462.1,354.5c-0.4,0.4-0.7,0.8-0.7,0.8s0.4-0.3,0.8-0.8
		c0.4-0.4,0.7-0.8,0.7-0.8S462.5,354.1,462.1,354.5 M273.7,354.8c0.4,0.4,0.7,0.7,0.7,0.7c0,0-0.2-0.3-0.6-0.7
		c-0.4-0.4-0.7-0.7-0.7-0.7C273.1,354.1,273.3,354.4,273.7,354.8 M458.8,358l-1.1,1.1L458.8,358c1.1-1,1.2-1.1,1.1-1.1
		C459.9,356.9,459.4,357.4,458.8,358 M280.5,361.8c2.2,2.2,4,4,4.1,4c0,0-1.7-1.8-3.9-4s-4-4-4.1-4
		C276.6,357.8,278.3,359.6,280.5,361.8 M451,365.8l-1.5,1.5L451,365.8c1.5-1.3,1.7-1.5,1.5-1.5C452.5,364.3,451.8,364.9,451,365.8
		 M287.5,368.6c0.4,0.4,0.7,0.7,0.7,0.7c0,0-0.2-0.3-0.6-0.7s-0.7-0.7-0.7-0.7C286.9,367.9,287.2,368.2,287.5,368.6 M447.8,368.8
		l-0.7,0.7L447.8,368.8c0.7-0.6,0.8-0.7,0.7-0.7C448.5,368.1,448.2,368.4,447.8,368.8 M357.6,369c0.3,0,0.8,0,1.1,0s0.1-0.1-0.5-0.1
		C357.5,369,357.3,369,357.6,369 M372.4,369c0.3,0,0.8,0,1.2,0c0.3,0,0.1-0.1-0.5-0.1C372.4,369,372.1,369,372.4,369 M385.1,369
		c0.3,0,0.8,0,1.1,0c0.3,0,0.1-0.1-0.5-0.1C385,369,384.8,369,385.1,369 M388.9,370c0,0,0.2,0.3,0.5,0.5l0.5,0.5l-0.5-0.5
		C389.1,370,388.9,369.8,388.9,370 M290.3,371.2c0.3,0.3,0.6,0.6,0.6,0.6c0,0-0.2-0.3-0.5-0.6c-0.3-0.3-0.6-0.6-0.6-0.6
		S290,370.8,290.3,371.2 M445.1,371.4l-0.6,0.6L445.1,371.4c0.4-0.3,0.7-0.5,0.7-0.6C445.8,370.7,445.6,370.8,445.1,371.4
		 M344.2,371.8c0,0.5,0,0.7,0.1,0.5c0-0.3,0-0.7,0-0.9C344.2,371,344.2,371.2,344.2,371.8 M358,371.4c0.2,0,0.4,0,0.6,0
		c0.2,0,0-0.1-0.3-0.1S357.8,371.3,358,371.4 M376.6,372c0,0.2,0,0.4,0.1,0.4c0.1,0,0.1-0.2,0.1-0.4c0-0.2,0-0.4-0.1-0.4
		C376.7,371.6,376.6,371.8,376.6,372 M291.6,372.3c0,0,0.2,0.3,0.5,0.5l0.5,0.5l-0.5-0.5C291.7,372.3,291.6,372.2,291.6,372.3
		 M443.3,373l-0.5,0.5L443.3,373c0.6-0.4,0.7-0.5,0.5-0.5C443.9,372.4,443.6,372.7,443.3,373 M352.7,374.7c0,0.5,0,0.8,0.1,0.5
		c0-0.3,0-0.8,0-1C352.7,373.9,352.7,374.1,352.7,374.7 M293.6,374.1c0,0,0.2,0.3,0.5,0.5l0.5,0.5l-0.5-0.5
		C293.7,374.1,293.6,374,293.6,374.1 M360.5,374.6c0,0.3,0,0.5,0.1,0.3c0-0.2,0-0.4,0-0.6C360.5,374.1,360.5,374.3,360.5,374.6
		 M441.5,374.6l-0.5,0.5L441.5,374.6c0.6-0.4,0.7-0.5,0.5-0.5C442,374.1,441.8,374.3,441.5,374.6 M366.2,378c0,0.9,0,1.3,0.1,0.8
		c0-0.5,0-1.2,0-1.7S366.2,377.1,366.2,378 M391.5,379.3c0,0.3,0,0.5,0.1,0.3c0-0.2,0-0.4,0-0.6
		C391.5,378.8,391.5,378.9,391.5,379.3 M385.3,383.7c0.2,0,0.4,0,0.6,0c0.2,0,0-0.1-0.3-0.1C385.3,383.6,385.1,383.7,385.3,383.7
		 M353.5,384.5c0,0.4,0,0.5,0.1,0.3c0-0.2,0-0.5,0-0.7C353.5,384,353.5,384.1,353.5,384.5 M356.7,386.4c0.3,0,0.8,0,1.1,0
		s0.1-0.1-0.5-0.1C356.7,386.3,356.4,386.3,356.7,386.4 M371.7,386.4c0.3,0,0.8,0,1.1,0c0.3,0,0.1-0.1-0.5-0.1
		S371.4,386.3,371.7,386.4 M385.1,386.4c0.3,0,0.6,0,0.8,0s0-0.1-0.5-0.1C385.1,386.3,384.9,386.3,385.1,386.4"/>
	<path id="path4" class="st4" d="M368.8,187.2c0.6,0,1.7,0,2.3,0c0.7,0,0.2-0.1-1.1-0.1C368.7,187.2,368.2,187.2,368.8,187.2
		 M346.6,187.4c0.3,0,0.8,0,1,0c0.2,0,0-0.1-0.5-0.1C346.5,187.3,346.3,187.3,346.6,187.4 M421.7,190.2c0.2,0,0.5,0,0.8,0
		c0.2,0,0-0.1-0.4-0.1C421.7,190.1,421.5,190.2,421.7,190.2 M304.3,208.9c0,9.9,0,13.9,0,9c0-4.9,0-13,0-17.9
		C304.4,195,304.3,199.1,304.3,208.9 M316.2,194.9c0.2,0,0.5,0,0.8,0c0.2,0,0-0.1-0.4-0.1C316.2,194.8,316,194.8,316.2,194.9
		 M266.2,201.9c0,2.7,0,3.8,0.1,2.5c0-1.4,0-3.6,0-4.9C266.2,198.1,266.2,199.2,266.2,201.9 M329.3,200c0,0.5,0,0.6,0.1,0.4
		c0-0.3,0-0.6,0-0.8C329.3,199.3,329.3,199.5,329.3,200 M259.8,215.3c0,0.3,0,0.5,0.1,0.3c0-0.2,0-0.4,0-0.6
		C259.8,214.8,259.8,214.9,259.8,215.3 M237.3,222.3c0,0.3,0,0.5,0.1,0.3c0-0.2,0-0.4,0-0.6C237.3,221.8,237.3,221.9,237.3,222.3
		 M355.4,236.5c0.2,0,0.5,0,0.8,0c0.2,0,0-0.1-0.4-0.1C355.4,236.5,355.2,236.5,355.4,236.5 M376.6,236.5c0.2,0,0.5,0,0.7,0
		c0.2,0,0-0.1-0.4-0.1C376.5,236.5,376.4,236.5,376.6,236.5 M367.5,259.2c0.3,0,0.6,0,0.8,0c0.2,0,0-0.1-0.5-0.1
		C367.4,259.1,367.2,259.2,367.5,259.2 M364.7,309.9c0,1.1,0,1.5,0.1,1c0-0.5,0-1.4,0-1.9C364.7,308.4,364.7,308.9,364.7,309.9
		 M403.3,312.2c0,0.4,0,0.5,0.1,0.3s0-0.5,0-0.7C403.3,311.6,403.3,311.8,403.3,312.2 M364.7,315c0,0.9,0,1.3,0.1,0.8
		c0-0.5,0-1.2,0-1.7S364.7,314.1,364.7,315 M371.1,318.8c0,0.4,0,0.5,0.1,0.3c0-0.2,0-0.5,0-0.7
		C371.2,318.3,371.1,318.5,371.1,318.8 M348.1,369c0.4,0,1,0,1.4,0c0.4,0,0.1-0.1-0.7-0.1C348,369,347.7,369,348.1,369"/>
	<path id="path5" class="st5" d="M412.5,104.2c0.2,0,0.4,0,0.6,0s0-0.1-0.3-0.1C412.4,104.1,412.3,104.2,412.5,104.2 M439,106.5
		c0.2,0,0.4,0,0.6,0s0-0.1-0.3-0.1C438.9,106.5,438.8,106.5,439,106.5 M415.6,106.7c0.2,0,0.5,0,0.8,0c0.2,0,0-0.1-0.4-0.1
		C415.5,106.6,415.4,106.7,415.6,106.7 M282.8,107.7c0.3,0,0.6,0,0.8,0c0.2,0,0-0.1-0.5-0.1C282.7,107.6,282.6,107.7,282.8,107.7
		 M427.1,107.7c0.2,0,0.5,0,0.7,0c0.2,0,0-0.1-0.4-0.1C427,107.6,426.9,107.7,427.1,107.7 M452.1,107.7c0.2,0,0.4,0,0.6,0
		c0.2,0,0-0.1-0.3-0.1C452.1,107.6,452,107.7,452.1,107.7 M285.4,107.9c0.2,0,0.5,0,0.7,0s0-0.1-0.4-0.1
		C285.3,107.8,285.2,107.8,285.4,107.9 M287.6,108c0.2,0,0.4,0,0.6,0c0.2,0,0-0.1-0.3-0.1C287.6,108,287.5,108,287.6,108
		 M296.2,108.7c0.2,0,0.5,0,0.8,0c0.2,0,0-0.1-0.4-0.1C296.2,108.6,296,108.7,296.2,108.7 M463.3,108.7c0.2,0,0.4,0,0.6,0
		c0.2,0,0-0.1-0.3-0.1C463.3,108.6,463.1,108.7,463.3,108.7 M262.2,108.9c0,0.1,0.5,0.1,1,0.1c1,0,0.9-0.1-0.3-0.2
		C262.5,108.8,262.1,108.9,262.2,108.9 M440.1,108.9c0.2,0,0.4,0,0.6,0c0.2,0,0-0.1-0.3-0.1C440.1,108.8,440,108.8,440.1,108.9
		 M465.5,108.9c0.2,0,0.4,0,0.6,0c0.2,0,0-0.1-0.3-0.1C465.4,108.8,465.3,108.8,465.5,108.9 M282.1,110c0.2,0,0.4,0,0.6,0
		c0.2,0,0-0.1-0.3-0.1C282.1,110,282,110,282.1,110 M284.9,110.2c0.2,0,0.5,0,0.8,0c0.2,0,0-0.1-0.4-0.1
		C284.9,110.1,284.7,110.2,284.9,110.2 M298,111.2c0.2,0,0.4,0,0.6,0c0.2,0,0-0.1-0.3-0.1S297.8,111.2,298,111.2 M327,112.4
		c0.3,0,0.7,0,0.9,0c0.3,0,0-0.1-0.5-0.1S326.7,112.3,327,112.4 M329.9,112.4c0.2,0,0.5,0,0.8,0c0.2,0,0-0.1-0.4-0.1
		C329.9,112.3,329.7,112.3,329.9,112.4 M359.8,115.1c0.2,0.1-0.1,0.2-1.2,0.2l-1.4,0.1l1.5,0c1.4,0,1.9-0.2,1.1-0.4
		C359.6,114.9,359.6,114.9,359.8,115.1 M350.4,115.5c0.4,0,1,0,1.4,0s0.1-0.1-0.7-0.1C350.3,115.5,350,115.5,350.4,115.5
		 M341.5,115.7c0.9,0,2.4,0,3.2,0c0.9,0,0.2-0.1-1.6-0.1C341.3,115.7,340.6,115.7,341.5,115.7 M357.1,116.7c0.3,0,0.8,0,1.1,0
		s0.1-0.1-0.5-0.1C357,116.6,356.8,116.7,357.1,116.7 M353.5,116.9c0.3,0,0.7,0,0.9,0c0.3,0,0-0.1-0.5-0.1S353.2,116.8,353.5,116.9
		 M350.2,117c0.2,0,0.5,0,0.8,0c0.2,0,0-0.1-0.4-0.1C350.2,117,350,117,350.2,117 M408.7,118.9c0.2,0,0.5,0,0.7,0
		c0.2,0,0-0.1-0.4-0.1C408.7,118.8,408.5,118.8,408.7,118.9 M404.1,119c0.3,0,0.8,0,1.1,0c0.3,0,0.1-0.1-0.5-0.1
		C404,119,403.8,119,404.1,119 M399.2,119.2c0.3,0,0.8,0,1.1,0s0.1-0.1-0.5-0.1C399.2,119.1,398.9,119.2,399.2,119.2 M395.1,119.4
		c0.3,0,0.8,0,1.1,0s0.1-0.1-0.5-0.1C395,119.3,394.8,119.3,395.1,119.4 M390.9,119.5c0.2,0,0.5,0,0.7,0c0.2,0,0-0.1-0.4-0.1
		C390.8,119.5,390.7,119.5,390.9,119.5 M416,120.9c0.2,0,0.4,0,0.6,0c0.2,0,0-0.1-0.3-0.1C415.9,120.8,415.8,120.8,416,120.9
		 M402.2,121.4c0.3,0,0.8,0,1.1,0c0.3,0,0.1-0.1-0.5-0.1S401.9,121.3,402.2,121.4 M393.1,121.5c0.3,0,0.8,0,1.1,0s0.1-0.1-0.5-0.1
		C393,121.5,392.8,121.5,393.1,121.5 M398.3,121.5c0.3,0,0.7,0,0.9,0s0-0.1-0.5-0.1C398.3,121.5,398.1,121.5,398.3,121.5
		 M388.2,121.7c0.3,0,0.8,0,1.1,0s0.1-0.1-0.5-0.1C388.2,121.6,387.9,121.7,388.2,121.7 M390.4,124.2c0,0.1,0.5,0.6,1,1.2l1,1
		l-1-1.1C391,124.7,390.5,124.1,390.4,124.2C390.5,124.1,390.4,124.1,390.4,124.2 M383.7,130.9c0.2,0,0.5,0,0.8,0
		c0.2,0,0-0.1-0.4-0.1C383.7,130.8,383.5,130.8,383.7,130.9 M388.2,130.9c0.2,0,0.5,0,0.7,0c0.2,0,0-0.1-0.4-0.1
		C388.2,130.8,388,130.8,388.2,130.9 M345.9,132.4c0.2,0,0.5,0,0.8,0c0.2,0,0-0.1-0.4-0.1C345.9,132.3,345.7,132.3,345.9,132.4
		 M355.4,132.4c0.2,0,0.5,0,0.8,0c0.2,0,0-0.1-0.4-0.1C355.4,132.3,355.2,132.3,355.4,132.4 M349.9,132.5c0.6,0,1.5,0,2,0
		c0.5,0,0.1-0.1-1-0.1S349.3,132.5,349.9,132.5 M349.5,134.7c0.7,0,1.9,0,2.6,0c0.7,0,0.1-0.1-1.3-0.1
		C349.3,134.7,348.8,134.7,349.5,134.7 M372.7,187.2c0.3,0,0.7,0,1,0c0.2,0,0-0.1-0.5-0.1C372.6,187.1,372.4,187.2,372.7,187.2
		 M349.1,187.4c0.7,0,1.8,0,2.5,0c0.7,0,0.1-0.1-1.3-0.1C349,187.3,348.4,187.3,349.1,187.4 M380.9,187.5c0.2,0,0.5,0,0.8,0
		c0.2,0,0-0.1-0.4-0.1C380.9,187.5,380.7,187.5,380.9,187.5 M341.3,205.8c0,9.9,0,14,0,9c0-5,0-13.1,0-18.1
		C341.4,191.7,341.3,195.8,341.3,205.8 M394.4,188.2c0.2,0,0.5,0,0.8,0c0.2,0,0-0.1-0.4-0.1C394.4,188.1,394.2,188.2,394.4,188.2
		 M398.1,188.4c0.3,0,0.6,0,0.8,0c0.2,0,0-0.1-0.5-0.1C398.1,188.3,397.9,188.3,398.1,188.4 M401.4,188.5c0.3,0,0.8,0,1.1,0
		s0.1-0.1-0.5-0.1S401.1,188.5,401.4,188.5 M319.1,189.4c0.2,0,0.5,0,0.7,0c0.2,0,0-0.1-0.4-0.1C319,189.3,318.9,189.3,319.1,189.4
		 M387.2,193.2c0.2,0,0.5,0,0.8,0c0.2,0,0-0.1-0.4-0.1C387.2,193.1,387,193.2,387.2,193.2 M394.1,193.5c0.2,0,0.5,0,0.7,0
		c0.2,0,0-0.1-0.4-0.1C394,193.5,393.9,193.5,394.1,193.5 M396.9,209l0.1,15.4l0-15.2c0-8.4,0-15.3-0.1-15.4
		C396.9,193.7,396.9,200.5,396.9,209 M231.2,223.3c0,9.9,0,13.9,0,9c0-4.9,0-13,0-17.9C231.2,209.4,231.2,213.4,231.2,223.3
		 M320,206.1l-0.5,0.5L320,206.1c0.4-0.2,0.6-0.5,0.6-0.5C320.6,205.5,320.5,205.6,320,206.1 M417,207.1c0,0.4,0,0.6,0.1,0.4
		c0-0.2,0-0.5,0-0.8C417,206.5,417,206.7,417,207.1 M266.2,219.8c0,7.2,0,10.2,0,6.5c0-3.6,0-9.6,0-13.2
		C266.2,209.6,266.2,212.6,266.2,219.8 M432.1,208c0,0.4,0,0.5,0.1,0.3c0-0.2,0-0.5,0-0.7C432.2,207.5,432.1,207.6,432.1,208
		 M417,209.2c0,0.5,0,0.6,0.1,0.4c0-0.3,0-0.6,0-0.8C417,208.5,417,208.7,417,209.2 M439.5,210.9c0,1,0,1.4,0.1,0.9
		c0-0.5,0-1.3,0-1.8C439.5,209.6,439.5,210,439.5,210.9 M260,211.2c0,0.4,0,0.5,0.1,0.3s0-0.5,0-0.7C260,210.6,260,210.8,260,211.2
		 M432.1,212.1c0,0.4,0,0.6,0.1,0.4c0-0.2,0-0.5,0-0.8C432.2,211.5,432.1,211.7,432.1,212.1 M448,212.3c0,0.5,0,0.7,0.1,0.5
		c0-0.3,0-0.7,0-0.9C448,211.5,448,211.7,448,212.3 M259.8,216.3c0,0.4,0,0.5,0.1,0.3c0-0.2,0-0.5,0-0.7
		C259.8,215.8,259.8,216,259.8,216.3 M237.1,218.1c0,0.3,0,0.5,0.1,0.3c0-0.2,0-0.4,0-0.6C237.2,217.6,237.1,217.8,237.1,218.1
		 M454,219.8c0,0.3,0,0.5,0.1,0.3c0-0.2,0-0.4,0-0.6C454,219.3,454,219.4,454,219.8 M383.2,223.9c0.2,0,0.5,0,0.8,0
		c0.2,0,0-0.1-0.4-0.1C383.2,223.8,383,223.8,383.2,223.9 M441.5,225.5c0,0.8,0,1.2,0.1,0.8c0-0.4,0-1.1,0-1.5
		C441.5,224.4,441.5,224.7,441.5,225.5 M501.6,230.4c0,0.3,0,0.5,0.1,0.3c0-0.2,0-0.4,0-0.6C501.7,230,501.6,230.1,501.6,230.4
		 M357.8,236.5c0.7,0,1.8,0,2.5,0c0.7,0,0.1-0.1-1.3-0.1S357.1,236.5,357.8,236.5 M372.3,236.5c0.7,0,1.8,0,2.5,0
		c0.7,0,0.1-0.1-1.3-0.1S371.6,236.5,372.3,236.5 M350.3,236.7c0.2,0,0.4,0,0.6,0c0.2,0,0-0.1-0.3-0.1
		C350.3,236.6,350.1,236.7,350.3,236.7 M381.8,236.7c0.2,0,0.4,0,0.6,0c0.2,0,0-0.1-0.3-0.1C381.8,236.6,381.6,236.7,381.8,236.7
		 M333.8,237.5c0.2,0,0.4,0,0.6,0c0.2,0,0-0.1-0.3-0.1C333.8,237.5,333.6,237.5,333.8,237.5 M398.3,237.5c0.2,0,0.4,0,0.6,0
		c0.2,0,0-0.1-0.3-0.1C398.3,237.5,398.1,237.5,398.3,237.5 M493.9,240.7c0.2,0,0.5,0,0.7,0c0.2,0,0-0.1-0.4-0.1
		S493.7,240.7,493.9,240.7 M375.3,267c0,0,0.2,0.3,0.5,0.5l0.5,0.5l-0.5-0.5C375.4,267,375.3,266.8,375.3,267 M357,274.6
		c0,0.3,0,0.5,0.1,0.3c0-0.2,0-0.4,0-0.6C357,274.1,357,274.3,357,274.6 M384.3,275.6c0,0.5,0,0.7,0.1,0.5c0-0.3,0-0.7,0-0.9
		C384.3,274.9,384.3,275.1,384.3,275.6 M357,275.8c0,0.3,0,0.5,0.1,0.3c0-0.2,0-0.4,0-0.6C357,275.3,357,275.4,357,275.8 M371.1,307
		c0,0.5,0,0.6,0.1,0.4c0-0.3,0-0.6,0-0.8C371.2,306.3,371.1,306.5,371.1,307 M336.3,310.9c2.1,0,5.5,0,7.5,0c2,0,0.3,0-3.8,0
		S334.2,310.9,336.3,310.9 M391,310.9c6.8,0.1,12.4,0.1,12.3,0c0-0.1-3.4-0.1-7.5-0.1C391.7,310.8,389.6,310.8,391,310.9
		 M364.6,312.4c0,0.4,0,0.6,0.1,0.4c0-0.2,0-0.5,0-0.8C364.7,311.8,364.6,312,364.6,312.4 M371.2,317.4c0,0.5,0,0.7,0.1,0.5
		c0-0.3,0-0.7,0-0.9C371.2,316.7,371.2,316.9,371.2,317.4 M342.5,335.9c0.5,0.5,1,1,1.1,1c0,0-0.4-0.5-0.9-1s-1-1-1.1-1
		C341.6,334.9,342,335.4,342.5,335.9 M459.7,357l-0.7,0.7L459.7,357c0.7-0.6,0.8-0.7,0.7-0.7C460.4,356.3,460,356.6,459.7,357
		 M275.6,356.6c0,0,0.2,0.3,0.5,0.5l0.5,0.5l-0.5-0.5C275.7,356.6,275.6,356.5,275.6,356.6 M284.6,365.6c0,0,0.2,0.3,0.5,0.5
		l0.5,0.5l-0.5-0.5C284.7,365.6,284.6,365.5,284.6,365.6 M450.5,366.1l-0.5,0.5L450.5,366.1c0.6-0.4,0.7-0.5,0.5-0.5
		C451,365.6,450.8,365.8,450.5,366.1 M350.1,377.5l0,8.5l-1.5,0.1l-1.5,0.1l1.5,0c1.1,0,1.6,0,1.6-0.2c0-0.1,0.1-4,0-8.6l0-8.4
		L350.1,377.5 M346.8,379.1l0.1,7.1l0-7c0-3.8,0-7-0.1-7.1C346.7,372,346.7,375.1,346.8,379.1 M383.2,377.7c0,0.9,0,1.3,0.1,0.8
		c0-0.5,0-1.2,0-1.7C383.2,376.4,383.2,376.8,383.2,377.7 M388,377.7c0,0.9,0,1.3,0.1,0.8c0-0.5,0-1.2,0-1.7
		C388,376.4,388,376.8,388,377.7 M379.5,377.7c0,0.6,0,0.9,0.1,0.5c0-0.3,0-0.9,0-1.2C379.5,376.7,379.5,377,379.5,377.7
		 M356.9,380.2c0.2,0,0.5,0,0.8,0c0.2,0,0-0.1-0.4-0.1C356.9,380.1,356.7,380.2,356.9,380.2 M376.2,385l-0.5,0.5L376.2,385
		c0.4-0.2,0.6-0.5,0.6-0.5C376.8,384.3,376.6,384.5,376.2,385"/>
	<path id="path6" class="st6" d="M356.1,115.4c0.2,0,0.5,0,0.8,0c0.2,0,0-0.1-0.4-0.1C356,115.3,355.9,115.3,356.1,115.4
		 M348.5,115.5c0.3,0,0.6,0,0.8,0c0.2,0,0-0.1-0.5-0.1C348.4,115.5,348.2,115.5,348.5,115.5 M359,116.7c0.2,0,0.4,0,0.6,0
		s0-0.1-0.3-0.1C358.9,116.6,358.8,116.7,359,116.7 M326,117.5c0.2,0,0.4,0,0.6,0s0-0.1-0.3-0.1C325.9,117.5,325.8,117.5,326,117.5
		 M411.8,118.7c0.2,0,0.4,0,0.6,0c0.2,0,0-0.1-0.3-0.1C411.8,118.6,411.6,118.7,411.8,118.7 M407,118.9c0.2,0,0.4,0,0.6,0
		c0.2,0,0-0.1-0.3-0.1S406.8,118.8,407,118.9 M402.8,119c0.2,0,0.4,0,0.6,0c0.2,0,0-0.1-0.3-0.1C402.8,119,402.6,119,402.8,119
		 M389,119.5c0.2,0,0.4,0,0.6,0s0-0.1-0.3-0.1C388.9,119.5,388.8,119.5,389,119.5 M385.5,130.9c0.4,0,1.1,0,1.6,0
		c0.4,0,0.1-0.1-0.8-0.1C385.4,130.8,385,130.8,385.5,130.9 M354.1,132.4c0.2,0,0.4,0,0.6,0c0.2,0,0-0.1-0.3-0.1
		S354,132.3,354.1,132.4 M347.5,134.7c0.2,0,0.4,0,0.6,0c0.2,0,0-0.1-0.3-0.1C347.4,134.6,347.3,134.7,347.5,134.7 M353.5,134.7
		c0.2,0,0.4,0,0.6,0c0.2,0,0-0.1-0.3-0.1C353.4,134.6,353.3,134.7,353.5,134.7"/>
	<path id="path7" class="st7" d="M354.5,115.4c0.2,0,0.4,0,0.6,0c0.2,0,0-0.1-0.3-0.1S354.3,115.3,354.5,115.4 M385.8,128.5
		c0.3,0,0.7,0,0.9,0c0.3,0,0-0.1-0.5-0.1C385.8,128.5,385.6,128.5,385.8,128.5 M348.1,132.4c0.2,0,0.5,0,0.7,0c0.2,0,0-0.1-0.4-0.1
		C348,132.3,347.9,132.3,348.1,132.4 M353.1,132.4c0.2,0,0.5,0,0.7,0c0.2,0,0-0.1-0.4-0.1C353,132.3,352.9,132.3,353.1,132.4
		 M404,206.8c0,9.9,0,14,0,9c0-5,0-13.1,0-18.1C404,192.7,404,196.8,404,206.8 M423.4,195.9c0.2,0,0.5,0,0.8,0c0.2,0,0-0.1-0.4-0.1
		C423.4,195.8,423.2,195.8,423.4,195.9 M484.2,208.8c0,3.7,0,5.1,0,3.3c0-1.9,0-4.9,0-6.7C484.2,203.6,484.2,205.2,484.2,208.8
		 M432.2,210c0,0.7,0,1,0.1,0.6s0-1,0-1.3C432.2,208.9,432.2,209.3,432.2,210 M259.8,214.3c0,0.3,0,0.5,0.1,0.3c0-0.2,0-0.4,0-0.6
		C259.8,213.8,259.8,213.9,259.8,214.3 M454.3,214.7c0,0.4,0,0.5,0.1,0.3c0-0.2,0-0.5,0-0.7C454.3,214.1,454.3,214.3,454.3,214.7
		 M237.1,216.9c0,0.3,0,0.5,0.1,0.3c0-0.2,0-0.4,0-0.6C237.2,216.5,237.1,216.6,237.1,216.9 M259.7,221.4c0,1.1,0,1.6,0.1,1
		c0-0.6,0-1.5,0-2.1C259.7,219.8,259.7,220.3,259.7,221.4 M237.3,221.3c0,0.3,0,0.5,0.1,0.3c0-0.2,0-0.4,0-0.6
		C237.3,220.8,237.3,220.9,237.3,221.3 M484.2,221c0,0.1-0.1,2.9,0,6.2l0,6l0.1-6.2c0-3.4,0.1-6.2,0-6.2S484.2,220.8,484.2,221
		 M414.9,223.5c0.3,0.3,0.6,0.6,0.6,0.6c0,0-0.2-0.3-0.5-0.6c-0.3-0.3-0.6-0.6-0.6-0.6C414.4,222.9,414.6,223.2,414.9,223.5
		 M353.3,223.9c0.3,0,0.9,0,1.2,0s0.1-0.1-0.6-0.1C353.2,223.8,353,223.8,353.3,223.9 M334.6,224.4c0.2,0,0.4,0,0.6,0
		c0.2,0,0-0.1-0.3-0.1S334.5,224.3,334.6,224.4 M495,229.8c0,0.5,0,0.7,0.1,0.5c0-0.3,0-0.7,0-0.9C495,229,495,229.2,495,229.8
		 M446.6,230.7c0.2,0,0.5,0,0.8,0c0.2,0,0-0.1-0.4-0.1C446.5,230.6,446.4,230.7,446.6,230.7 M349.1,236.7c0.2,0,0.4,0,0.6,0
		c0.2,0,0-0.1-0.3-0.1C349.1,236.6,349,236.7,349.1,236.7 M383,236.7c0.2,0,0.4,0,0.6,0s0-0.1-0.3-0.1
		C382.9,236.6,382.8,236.7,383,236.7 M351.5,275.6c0,0.5,0,0.7,0.1,0.5c0-0.3,0-0.7,0-0.9C351.5,274.9,351.5,275.1,351.5,275.6
		 M369,318.3c0,15.4,0,21.7,0,13.9c0-7.7,0-20.3,0-28C369,296.6,369,302.9,369,318.3 M371.1,320c0,0.4,0,0.5,0.1,0.3
		c0-0.2,0-0.5,0-0.7C371.2,319.5,371.1,319.6,371.1,320 M371.3,323.8c0,0.3,0,0.5,0.1,0.3c0-0.2,0-0.4,0-0.6
		C371.3,323.3,371.3,323.4,371.3,323.8 M393,336l-0.8,0.9L393,336c0.5-0.4,0.9-0.8,0.9-0.8C393.9,335,393.8,335.1,393,336
		 M457.1,359.7l-0.6,0.6L457.1,359.7c0.4-0.3,0.7-0.5,0.7-0.6C457.8,359,457.6,359.1,457.1,359.7 M453.8,363l-0.6,0.6L453.8,363
		c0.4-0.3,0.7-0.5,0.7-0.6C454.4,362.3,454.3,362.5,453.8,363 M364.1,377.4c0,0.3,0,0.5,0.1,0.3c0-0.2,0-0.4,0-0.6
		C364.2,377,364.1,377.1,364.1,377.4 M377.6,380.6c0,0.3,0,0.5,0.1,0.3c0-0.2,0-0.4,0-0.6C377.7,380.1,377.6,380.3,377.6,380.6"/>
	<path id="path8" class="st8" d="M346.6,187.5c0.3,0,0.7,0,0.9,0c0.3,0,0-0.1-0.5-0.1C346.6,187.5,346.4,187.5,346.6,187.5
		 M304.5,208.9c0,9.9,0,14,0,9c0-5,0-13.1,0-18.1C304.5,194.9,304.5,199,304.5,208.9 M393.2,193.4c0.2,0,0.5,0,0.8,0
		c0.2,0,0-0.1-0.4-0.1C393.2,193.3,393,193.3,393.2,193.4 M484,208.8c0,3.7,0,5.2,0,3.4c0-1.9,0-4.9,0-6.8
		C484,203.5,484,205,484,208.8 M439.3,208.7c0,0.4,0,0.5,0.1,0.3c0-0.2,0-0.5,0-0.7C439.3,208.1,439.3,208.3,439.3,208.7
		 M439.3,213.3c0,0.4,0,0.6,0.1,0.4c0-0.2,0-0.5,0-0.8C439.3,212.7,439.3,212.8,439.3,213.3 M260,214.3c0,0.4,0,0.5,0.1,0.3
		c0-0.2,0-0.5,0-0.7C260,213.8,260,214,260,214.3 M259.8,218.9c0,0.4,0,0.6,0.1,0.4c0-0.2,0-0.5,0-0.8
		C259.8,218.3,259.8,218.5,259.8,218.9 M484,227c0,3.4,0,4.8,0,3c0-1.7,0-4.5,0-6.2S484,223.6,484,227 M259.8,228.4
		c0,2.9,0,4.1,0,2.6c0-1.4,0-3.8,0-5.2C259.9,224.4,259.8,225.5,259.8,228.4 M348.1,368.9c0.4,0,1,0,1.3,0c0.3,0,0-0.1-0.7-0.1
		C348,368.8,347.7,368.8,348.1,368.9 M344,371.8c0,0.5,0,0.7,0.1,0.5c0-0.3,0-0.7,0-0.9C344,371,344,371.2,344,371.8 M385.1,386.5
		c0.3,0,0.8,0,1,0c0.2,0,0-0.1-0.5-0.1C385,386.5,384.8,386.5,385.1,386.5"/>
</g>
<path id="path28" inkscape:connector-curvature="0" class="st9" d="M110.3,121.9c-0.6-1.6,0.3-33.1,1.3-44.4c1.1-12.5,3.1-29,3.9-31
	c1.3-3.4,20.3-11.1,36.5-14.7c15.3-3.4,26.5-4.7,45.3-5.1c24.8-0.6,44,1.3,62.4,5.9c15.8,4,32.7,11,33.4,13.9
	c0.2,0.9,1.1,7.8,1.9,15.3c3,27,4.2,61.3,2.1,61.3c-0.6,0-7-1.5-14.3-3.4c-27.5-7-50.5-9.8-79.1-9.8c-30.1,0-58.5,3.7-86.1,11.2
	C111.5,122.9,110.7,122.9,110.3,121.9z M208.4,86.9c7.5-1.2,8.4-1.2,11.9,0c2.1,0.7,4,1.2,4.3,1.2s0.3-1.9,0-4.2l-0.5-4.2h6.9
	c5.8,0,6.9-0.2,6.5-1.1c-0.5-1.4-1.5-1.2,23.5-5c20.1-3,23.6-3.7,22.1-4.2c-0.4-0.1-13-1.3-27.9-2.6l-27.1-2.4L215,67.8l-13.2,3.3
	l-18.8-4.3l-18.8-4.3l-18.8,3.7c-19.6,3.9-21.2,4.2-20.6,4.8c0.2,0.2,5.6,0.7,12.1,1.1c23.6,1.6,33.5,2.5,33.5,3.1
	c0,0.3-1.6,1.7-3.6,3.1l-3.6,2.6l5.3,0.9c2.9,0.5,6.6,1.7,8.1,2.6s4.3,2.2,6.1,2.7C187.1,88.5,198.7,88.4,208.4,86.9z"/>
<path id="path30" inkscape:connector-curvature="0" class="st10" d="M199.8,266.9c-19.4-11.8-41.5-29.4-54.5-43.4
	c-13.4-14.5-20.8-26.1-25.3-39.7c-2.5-7.5-5.7-20.3-5.2-20.8c0.1-0.1,3.3-1,7.2-2.1c30.2-8.2,61.9-11.9,91.9-10.7
	c26.3,1.1,49.2,4.7,75.3,12.1l3.8,1.1l-0.1,1.5c-0.2,4-4.4,18.8-7,24.8c-8.6,20.1-27.6,41.3-55.2,61.9c-8.4,6.2-25.6,17.8-26.6,17.8
	C204,269.4,202.1,268.3,199.8,266.9L199.8,266.9z M200.1,242.8c1.7-1.5,2.3-5.2,1.1-8.1c-0.7-1.8-1.4-2.3-3.5-2.3
	c-2.8,0-4.3,3-2.9,5.7c0.7,1.3,2.3,2,3.5,1.5c1.1-0.4,1.2,0.4,0.1,1.4c-0.6,0.5-1.1,0.6-2.1,0.4c-1.4-0.3-1.4-0.3-1.5,1.4
	C194.8,244,198.8,244,200.1,242.8L200.1,242.8z M209.4,242.6c1-1,1.2-3.4,0.4-4.7c-0.7-1.1-2.3-1.7-3.6-1.4c-1,0.2-1,0.2-0.6-0.6
	c0.6-1.1,1.9-1.5,3-1.1c1.2,0.5,1.2,0.5,1.2-0.8c0-1.3-0.5-1.6-2.7-1.6c-3.7,0-5.7,5.1-3.7,9.4C204.5,244,207.7,244.4,209.4,242.6
	L209.4,242.6z M217.4,243.1c1-0.8,1.6-2.8,1.6-5c0-3.7-1.3-5.6-3.8-5.6c-2.6,0-3.8,1.8-3.8,5.5c0,2.9,0.4,4.1,1.8,5.2
	C214.4,244.1,216.3,244,217.4,243.1L217.4,243.1z M193.2,238v-5.5h-0.9c-1.8,0-3.3,0.8-3.3,1.7c0,0.6,0.2,0.9,0.9,1
	c0.8,0.1,0.9,0.3,1,4.2l0.1,4.1h1.1h1.1V238z M203.4,200.5v-18.3l-1.1-1c-0.6-0.6-1.8-1.6-2.6-2.4c-4.4-4-1.5-11.4,4.5-11.4
	c1.9,0,4.2,1.2,5.4,2.7c1.1,1.4,1.3,4.7,0.5,6.4c-0.4,0.7-1.7,2.3-3.1,3.6l-2.4,2.3v18.2v18.2l2.4-0.3c5.3-0.6,11.5-4.1,14.7-8.4
	c2.7-3.6,4.1-7,4.8-12l0.2-1.8l-2.1-0.3c-2.1-0.3-7.3-0.1-7.6,0.3c-0.1,0.1,0.8,1.9,1.9,3.9c2.1,3.7,2.1,3.7,1.5,4.9
	c-1.8,3.6-6,7.2-10,8.5c-2.3,0.8-2.5,0.8-2.8,0.2c-0.7-2-1.2-9-1-16.8c0.2-10.1,0.4-10.8,4.1-14.7c2.9-3,3.8-4.9,3.8-8.1
	c0-9.3-11.2-13.8-17.8-7.2c-4.2,4.2-3.7,11.5,0.9,15.4c2.3,1.9,3.5,4.4,4,8.5c0.5,3.8,0.2,14.8-0.5,20.1c-0.5,3.5-0.5,3.5-1.5,3.3
	c-0.5-0.1-2.2-0.8-3.7-1.5c-3-1.5-6.4-4.5-7.8-7.2l-0.8-1.6l2-3.5c1.1-1.9,2-3.7,2-3.8c0-0.6-7.4-1.1-8.9-0.5
	c-1.2,0.5-0.2,6.1,1.9,10.3c3.3,6.7,11.1,12,18.2,12.2l1,0L203.4,200.5z"/>
</svg>
