<?xml version="1.0" encoding="utf-8"?>
<!-- Generator: Adobe Illustrator 25.0.1, SVG Export Plug-In . SVG Version: 6.00 Build 0)  -->
<svg version="1.0"
	 id="svg88" xmlns:cc="http://creativecommons.org/ns#" xmlns:dc="http://purl.org/dc/elements/1.1/" xmlns:rdf="http://www.w3.org/1999/02/22-rdf-syntax-ns#" xmlns:svg="http://www.w3.org/2000/svg"
	 xmlns="http://www.w3.org/2000/svg" xmlns:xlink="http://www.w3.org/1999/xlink" x="0px" y="0px" viewBox="0 0 392.2 284"
	 style="enable-background:new 0 0 392.2 284;" xml:space="preserve">
<style type="text/css">
	.st0{fill-rule:evenodd;clip-rule:evenodd;fill:#080808;}
	.st1{fill-rule:evenodd;clip-rule:evenodd;fill:#241301;}
	.st2{fill-rule:evenodd;clip-rule:evenodd;fill:#0A0A0A;}
	.st3{fill:none;}
	.st4{fill-rule:evenodd;clip-rule:evenodd;fill:#FFCA34;}
	.st5{fill-rule:evenodd;clip-rule:evenodd;fill:#00AD5E;}
	.st6{fill-rule:evenodd;clip-rule:evenodd;fill:#FFFFFF;}
</style>
<g id="Layer1000" transform="matrix(0.34181878,0,0,0.34181878,-15.633068,-16.886855)">
	<g id="Layer1001">
		<path id="path2" class="st0" d="M400.3,320v30.6c0,8,5.5,13.9,16.5,12.4c8.3-1.1,17.9-9.4,17.9-17.8l-0.1-30.7
			c0-10.2-6.8-14.7-16.9-12.5C408.9,303.8,400.3,309.7,400.3,320z M417.5,312.5c-1.7,0.3-3.5,1.9-3.5,4l-0.1,32.7
			c0,3,1.8,3.9,3.6,3.5c2.4-0.6,3.9-1.9,3.9-5.5v-31.6C421.5,313,419.2,312.2,417.5,312.5L417.5,312.5z"/>
		<path id="path4" class="st0" d="M467.3,305l-7.7,1l0,33.6c0,4.4-2.3,10.3-4.3,12.6c-2.4,2.8-5.7,4-9.8,4.8
			c-1.8,0.4-3.6,0.2-5.5,0.2l0-11.1c3.8-0.1,6-2.8,6-6.5v-42.5l13.5-2.4l7.7-1.3l13.7-2.2v59.5l-13.8,2.4L467.3,305z"/>
		<path id="path6" class="st0" d="M488,290.2l13.8-1.9l16.4-1.9l0,11.3l-16.4,1.7l0,11.7l14.1-1.5l0,11.7l-14.2,1.6l0,12.9l16.8-2.4
			l0,12.5l-16.8,2l-13.8,1.9L488,290.2z"/>
		<path id="path8" class="st0" d="M526.1,285.5l13.2-1.2l0,23.5l9.1-24.3l14.9-1l-11.6,24.7l11.5,34.9l-14.1,1l-6.3-22.3l-3.4,6.8
			l0,16.4l-13.1,1.2L526.1,285.5z"/>
		<path id="path10" class="st0" d="M584.2,341c-8.3,0.4-15.9-5.7-15.9-14v-31c0-9.2,7-15.1,17.8-15.5c8.6-0.3,17.1,4,17.1,14.7v7.5
			h-13.7l0-7.5c0-1.8-1.4-4.5-4-4.1c-3.1,0.5-3.8,2.6-3.8,4.8v31c0,2.1,1.8,4.5,4.2,4c3.5-0.7,3.6-4.2,3.6-7v-7.5h13.7v7.5
			C603.1,332.5,598.6,340.4,584.2,341L584.2,341z"/>
		<path id="path12" class="st0" d="M619.3,280.8l-10.7,59.5l12.7-0.1l1.7-10.9l9.7,0l1.6,11l13.6,0.3L637.1,281L619.3,280.8z
			 M627.9,289.8l-3.4,29l6.9,0.1L627.9,289.8z"/>
		<path id="path14" class="st0" d="M674.3,304.3l0-21.8l14,0.9l0.1,59.4l-14.1-0.9l0.5-25.5l-8.2-0.5v25.6l-13.5-0.6v-59.4l13.5,0.6
			v21.9L674.3,304.3z"/>
		<path id="path16" class="st0" d="M723.3,346v7.4l12.2,1.7l0-20l-2-0.2l-0.1-46.9l-12.7-1.5l-8.6-0.9l-11.8-1.1v25.5
			c0,5.1-1.8,18.7-7.1,20.7l0,20.5l12.1,1v-7.9l15.3,1.5L723.3,346z M707.5,331.9c2.7-3.5,4.7-14.6,4.7-22v-13.3l8.6,1.5l0,35.1
			L707.5,331.9z"/>
		<path id="path18" class="st0" d="M754.9,301l0,14.6c5.2,2.1,7.3,0,8.1-2.8c0.6-2.2,0.6-4.4,0-6.6C762,302.4,758.2,301.3,754.9,301
			L754.9,301z M759.7,291.5c12.4,1.8,16.7,9,16.7,16.5v4.9c0,15.6-8.5,15.7-16,14.7l-5.5-0.8l0,23.3l-13.4-1.8v-59.4l13.4,1.9
			L759.7,291.5z"/>
		<path id="path20" class="st0" d="M784.1,295.5l13.2,2.4l0.2,59.3l-13.5-2.5L784.1,295.5z"/>
		<path id="path22" class="st0" d="M817.6,340.8l0,18.3c0,1.1-0.9,1.7-2,1.5l-12.2-2.3l0-1.8c0.9,0.2,1.7-0.2,1.7-1.1l0-19
			c0-6.9,3-6.7,7-8c-4.7-1.9-6.8-6.4-6.8-10.6v-5.8c0-9.1,5.3-11.7,14.5-9.7l6.1,1.3l13.4,3l0,59.2l-13.2-3l0-24.6
			c0-1.6-2.9-2.3-4.5-2.2C818.8,336.4,817.6,338.8,817.6,340.8L817.6,340.8z M817.8,316.3c-0.2,1.3-0.3,2.7,0,4.8
			c0.7,4.5,3.9,6.4,7.9,6.2l0.1-13.2C821.3,312.2,818.2,313.4,817.8,316.3z"/>
		<path id="path24" class="st1" d="M611.2,185.3c0-2.9-2.3-6.7-7.2-5.2l0,28.1c5.1,1.1,7.5-3.3,7.4-6.4L611.2,185.3z M591.5,217.5
			c-13.5,0.9-20-7.6-20-16.3V185c0-8.3,7.5-16.4,20-14.8v-5.7h12.5v6c10.6-2.5,20.1,6.3,20.1,14.5l0,16c0,8.5-4.6,16.8-20.1,16.3
			l0,6h-12.5L591.5,217.5z M591.5,208.3l-0.1-28.3c-3.6-0.8-7.3,2.1-7.3,5.1v16.1C584,204.5,586.6,209.2,591.5,208.3z"/>
		<path id="path26" class="st1" d="M653.1,164.6l15.5,0l-13.3,22.8l12.4,36l-14.3,0l-6.8-21l-3.1,5.3l0.2,15.7h-12.9v-58.9h12.9
			v23.8L653.1,164.6z"/>
		<path id="path28" class="st2" d="M578.2,639.8h8.7l0-41.1h-7.5c-1.5,3.4-4.3,4.7-8,4.8l-0.1,6l6.8,0L578.2,639.8z"/>
		<path id="path30" class="st2" d="M601.6,627.3c-5.9-0.1-7.9-4.5-7.9-9.3v-10.7c0-4.8,4.1-8.6,11.5-8.6s10.9,4.5,10.9,9.2v22.2
			c0,7.4-6.1,9.7-11.2,9.7c-6.7,0-11-2.8-11.1-10.2l8.6,0c0,2.5,0.9,3.6,2.7,3.6c1.7,0,2.4-1.5,2.4-2.7l0-4.9
			C605,627.3,602.1,627.3,601.6,627.3z M604.9,620.5c1.7,0,2.4-1.5,2.4-2.7l0-10.2c0-1.1-1.3-2.1-2.4-2.1c-1.1,0-2.5,0.8-2.5,1.9
			V618C602.5,619.2,603.2,620.5,604.9,620.5L604.9,620.5z"/>
		<path id="path32" class="st2" d="M631.3,618.5c2.1-3.4,3.8-6.6,5.1-11.2l3.7,0l0,12.1v5.6h2.6v6.5h-2.6v8.3h-8.8v-8.3h-11.6V623
			c3.2-8.5,5.1-16.7,5.3-24.3l10.4,0c-1.5,9.1-5.3,17.3-10.4,24.9l0,1.4h6.3V618.5z"/>
		<path id="path34" class="st2" d="M657.7,621.3h0.2c1.1,0,2,0.9,2,2v7.8c0,1.1-0.9,2-2,2h-0.2c-1.1,0-2-0.9-2-2v-7.8
			C655.7,622.2,656.6,621.3,657.7,621.3z M657.7,605.4h0.2c1.1,0,2,0.9,2,2v4.8c0,1.1-0.9,2-2,2h-0.2c-1.1,0-2-0.9-2-2v-4.8
			C655.7,606.3,656.6,605.4,657.7,605.4z M655.7,598.7h4.3c4.8,0,8.8,3.5,8.8,8.3l0,4c0,3.4-2,5.4-4.9,6.9c3.3,0.9,5.2,2.8,5.2,8
			v4.1c0,5.2-3.8,9.8-9.8,9.8h-2.9c-5.7,0-9.8-3.7-9.8-10v-4.1c0-4.6,1.5-6.8,5.2-7.7c-3.6-1.2-4.9-3.7-4.9-7.1l0-4
			C646.9,602,650.9,598.7,655.7,598.7L655.7,598.7z"/>
		<path id="path36" class="st3" d="M619.5,813.2c29.2-2.2,75.8-37.4,110.5-76.7c41.9-49.6,78.1-101.6,100.9-162.3
			c14.7-39.2,23.2-82.5,26.1-129.3c5.2-84.4,0.3-166.8-10.4-247.9c-1.2-8.8-2.6-17-6.1-23.3c-8-14.4-22.6-21.2-37.8-26.2
			c-46.9-15.4-123.8-25.8-183.3-25.9c-60.2-0.1-136.5,10.4-183.4,25.9c-15.1,5-29.8,11.8-37.8,26.2c-3.5,6.3-5,14.5-6.1,23.3
			c-10.7,81.2-15.6,163.5-10.4,247.9c2.9,46.8,11.4,90.1,26.1,129.3c22.8,60.7,59,112.7,100.9,162.3
			C543.6,775.9,590.3,811,619.5,813.2L619.5,813.2z M619.5,99.1c57.7,0,145.4,10.8,195,29.6c12.6,4.8,32.5,17.3,35.8,38.1
			c10.4,65.9,14.6,133,15.2,200.8c0.9,102.1-11.4,185.4-40.5,246.4c-44,92.1-97.4,155.8-154.5,194.6c-16.5,11.2-32.8,19-50.9,21.9
			c-18.1-2.9-34.5-10.7-51.1-21.9C511.3,769.8,457.9,706.1,413.9,614c-29.1-61-41.4-144.2-40.5-246.4c0.6-67.9,4.8-134.9,15.2-200.8
			c3.3-20.8,23.2-33.3,35.8-38.1C474,109.9,563.7,99.1,619.5,99.1L619.5,99.1z"/>
		<path id="path38" class="st0" d="M436.1,147.6c46.9-15.4,123.2-26,183.4-25.9c59.4,0.1,136.4,10.4,183.3,25.9
			c15.1,5,29.8,11.8,37.8,26.2c3.5,6.3,5,14.5,6.1,23.3c10.7,81.2,15.6,163.5,10.4,247.9c-2.9,46.8-11.4,90.1-26.1,129.3
			c-22.8,60.7-59,112.7-100.9,162.3c-34.7,39.3-81.3,74.5-110.5,76.7c-29.2-2.2-75.9-37.4-110.6-76.7C467,687,430.8,634.9,408,574.2
			c-14.7-39.2-23.2-82.5-26.1-129.3c-5.2-84.4-0.3-166.8,10.4-247.9c1.2-8.8,2.6-17,6.1-23.3C406.3,159.3,421,152.5,436.1,147.6z
			 M619.5,99.1c-55.8,0-145.5,10.8-195.1,29.6c-12.6,4.8-32.5,17.3-35.8,38.1c-10.4,65.9-14.6,133-15.2,200.8
			C372.5,469.7,384.8,553,413.9,614c44,92.1,97.4,155.8,154.5,194.6c16.5,11.2,32.9,19,51.1,21.9c18.1-2.9,34.4-10.7,50.9-21.9
			C727.6,769.8,781,706.1,824.9,614c29.1-61,41.4-144.2,40.5-246.4c-0.6-67.9-4.8-134.9-15.2-200.8c-3.3-20.8-23.2-33.3-35.8-38.1
			C764.9,109.9,677.1,99.1,619.5,99.1z"/>
		<path id="path40" class="st3" d="M713.8,135c33.6,4.6,67.5,10.5,94.7,21.7c9.1,3.8,15.9,8,17.8,20.6c5.2,34.8,9.1,72.8,11.6,108.5
			c-40.5-11-82.1-16.9-124.1-20.7V135z"/>
		<path id="path42" class="st3" d="M429.9,157.3c33.7-13.6,66.6-18.5,96.8-22.7v130.1c-43.2,3.6-84.2,11.3-124.1,21
			c2.4-37.1,5.9-73.8,11.8-109.6C416.1,165.9,422.1,160.5,429.9,157.3z"/>
		<path id="path44" class="st3" d="M563.2,130c38.2-3.9,75.9-4.1,113.1,0v132.6c-37.6-2.5-75.3-2.5-113.1,0V130z"/>
		<path id="path46" class="st3" d="M563.5,363.9c37.8-2.4,75.7-1.9,113.3,0.2l0,383.4c-15.6,12.6-28.9,24-55.5,32.2
			c-21.7-4.9-45.1-21.1-57.8-33.2L563.5,363.9z"/>
		<path id="path48" class="st3" d="M713.8,367c43.3,4.8,85.4,12.8,126.6,21.9c-0.3,38.1-7.9,104.3-19.2,139.8
			c-13.9,43.6-32.3,80.3-55.5,115.3c-15.6,23.5-32.3,46-51.9,67.7V367z"/>
		<path id="path50" class="st3" d="M400.3,388.5c42.4-9.6,84.6-17.2,126.6-21.5v345.8c-24-26.9-44.3-55.5-62.4-85.5
			C448.6,601,434,573.4,423.6,543C408.1,498.2,400.4,447.6,400.3,388.5z"/>
		<path id="path52" class="st0" d="M402.6,285.7c39.9-9.6,80.9-17.3,124.1-21V134.6c-30.2,4.2-63.1,9.2-96.8,22.7
			c-7.9,3.2-13.8,8.6-15.5,18.8C408.5,211.9,405,248.6,402.6,285.7z"/>
		<path id="path54" class="st0" d="M526.8,367c-41.9,4.3-84.1,12-126.6,21.5c0.1,59,7.8,109.7,23.3,154.5
			c10.4,30.4,25.1,57.9,40.9,84.2c18.1,29.9,38.4,58.6,62.4,85.5V367z"/>
		<path id="path56" class="st4" d="M563.5,363.9l0,382.5c12.7,12.2,36.1,28.4,57.8,33.2c26.6-8.2,39.9-19.6,55.5-32.2l0-383.4
			C639.1,362,601.3,361.4,563.5,363.9L563.5,363.9z M646.9,606.8c0-4.8,3.9-8.1,8.8-8.1h4.3c4.8,0,8.8,3.5,8.8,8.3l0,4
			c0,3.4-2,5.4-4.9,6.9c3.3,0.9,5.2,2.8,5.2,8v4.1c0,5.2-3.8,9.8-9.8,9.8h-2.9c-5.7,0-9.8-3.7-9.8-10v-4.1c0-4.6,1.5-6.8,5.2-7.7
			c-3.6-1.2-4.9-3.7-4.9-7.1L646.9,606.8z M625,598.7l10.4,0c-1.5,9.1-5.3,17.3-10.4,24.9l0,1.4h6.3v-6.5c2.1-3.4,3.8-6.6,5.1-11.2
			l3.7,0l0,12.1v5.6h2.6v6.5h-2.6v8.3h-8.8v-8.3h-11.6V623C622.9,614.5,624.8,606.4,625,598.7z M593.7,607.3c0-4.8,4.1-8.6,11.5-8.6
			c7.5,0,10.9,4.5,10.9,9.2v22.2c0,7.4-6.1,9.7-11.2,9.7c-6.7,0-11-2.8-11.1-10.2l8.6,0c0,2.5,0.9,3.6,2.7,3.6
			c1.7,0,2.4-1.5,2.4-2.7l0-4.9c-2.5,1.8-5.3,1.7-5.9,1.7c-5.9-0.1-7.9-4.5-7.9-9.3V607.3z M586.9,598.7l0,41.1h-8.7v-30.3l-6.8,0
			l0.1-6c3.7-0.1,6.5-1.4,8-4.8H586.9z"/>
		<path id="path58" class="st4" d="M602.5,618c0,1.2,0.8,2.5,2.5,2.5c1.7,0,2.4-1.5,2.4-2.7l0-10.2c0-1.1-1.3-2.1-2.4-2.1
			c-1.1,0-2.5,0.8-2.5,1.9V618z"/>
		<path id="path60" class="st4" d="M655.7,607.4v4.8c0,1.1,0.9,2,2,2h0.2c1.1,0,2-0.9,2-2v-4.8c0-1.1-0.9-2-2-2h-0.2
			C656.6,605.4,655.7,606.3,655.7,607.4z"/>
		<path id="path62" class="st4" d="M657.7,621.3c-1.1,0-2,0.9-2,2v7.8c0,1.1,0.9,2,2,2h0.2c1.1,0,2-0.9,2-2v-7.8c0-1.1-0.9-2-2-2
			H657.7z"/>
		<path id="path64" class="st4" d="M563.2,262.6c37.8-2.5,75.5-2.5,113.1,0V130c-37.2-4.1-74.9-3.9-113.1,0V262.6z M643.8,223.4
			h-12.9v-58.9h12.9v23.8l9.3-23.7l15.5,0l-13.3,22.8l12.4,36l-14.3,0l-6.8-21l-3.1,5.3L643.8,223.4z M624,201.1
			c0,8.5-4.6,16.8-20.1,16.3l0,6h-12.5v-5.8c-13.5,0.9-20-7.6-20-16.3V185c0-8.3,7.5-16.4,20-14.8v-5.7h12.5v6
			c10.6-2.5,20.1,6.3,20.1,14.5L624,201.1z"/>
		<path id="path66" class="st4" d="M584,201.2c0,3.3,2.6,8,7.4,7.1l-0.1-28.3c-3.6-0.8-7.3,2.1-7.3,5.1V201.2z"/>
		<path id="path68" class="st4" d="M603.9,180.1l0,28.1c5.1,1.1,7.5-3.3,7.4-6.4l-0.2-16.5C611.1,182.4,608.8,178.6,603.9,180.1
			L603.9,180.1z"/>
		<path id="path70" class="st5" d="M713.8,135V265c42,3.8,83.6,9.7,124.1,20.7c-2.5-35.7-6.4-73.7-11.6-108.5
			c-1.9-12.6-8.6-16.8-17.8-20.6C781.4,145.4,747.5,139.6,713.8,135z"/>
		<path id="path72" class="st5" d="M840.4,388.9c-41.2-9.2-83.3-17.1-126.6-21.9v344.6c19.6-21.7,36.3-44.2,51.9-67.7
			c23.2-35,41.6-71.7,55.5-115.3C832.5,493.2,840.1,427,840.4,388.9L840.4,388.9z"/>
	</g>
	<path id="path75" class="st6" d="M563.5,746.3l0-382.5c37.8-2.4,75.7-1.9,113.3,0.2l0,383.4c-15.6,12.6-28.9,24-55.5,32.2
		C599.6,774.7,576.1,758.5,563.5,746.3L563.5,746.3z M713.8,711.6V367c43.3,4.8,85.4,12.8,126.6,21.9
		c-0.3,38.1-7.9,104.3-19.2,139.8c-13.9,43.6-32.3,80.3-55.5,115.3C750.1,667.4,733.4,689.9,713.8,711.6L713.8,711.6z M539.2,343.9
		l-13.1,1.2l-0.1-59.6l13.2-1.2l0,23.5l9.1-24.3l14.9-1l-11.6,24.7l11.5,34.9l-14.1,1l-6.3-22.3l-3.4,6.8L539.2,343.9z M526.7,264.8
		c-43.2,3.6-84.2,11.3-124.1,21c2.4-37.1,5.9-73.8,11.8-109.6c1.7-10.2,7.6-15.6,15.5-18.8c33.7-13.6,66.6-18.5,96.8-22.7V264.8z
		 M608.6,340.4l10.7-59.5l17.8,0.2l10.9,59.7l-13.6-0.3l-1.6-11l-9.7,0l-1.7,10.9L608.6,340.4z M676.3,262.6
		c-37.6-2.5-75.3-2.5-113.1,0V130c38.2-3.9,75.9-4.1,113.1,0V262.6z M666.5,341.5l-13.5-0.6v-59.4l13.5,0.6v21.9l7.8,0.4l0-21.8
		l14,0.9l0.1,59.4l-14.1-0.9l0.5-25.5l-8.2-0.5V341.5z M700.3,309.9v-25.5l11.8,1.1l8.6,0.9l12.7,1.5l0.1,46.9l2,0.2l0,20l-12.2-1.7
		V346l-2.6-0.3l-15.3-1.5v7.9l-12.1-1l0-20.5C698.5,328.7,700.3,315,700.3,309.9L700.3,309.9z M838,285.7
		c-40.5-11-82.1-16.9-124.1-20.7V135c33.6,4.6,67.5,10.5,94.7,21.7c9.1,3.8,15.9,8,17.8,20.6C831.6,212,835.5,250,838,285.7z
		 M846.7,197.1c-1.2-8.8-2.6-17-6.1-23.3c-8-14.4-22.6-21.2-37.8-26.2c-46.9-15.4-123.8-25.8-183.3-25.9
		c-60.2-0.1-136.5,10.4-183.4,25.9c-15.1,5-29.8,11.8-37.8,26.2c-3.5,6.3-5,14.5-6.1,23.3c-10.7,81.2-15.6,163.5-10.4,247.9
		c2.9,46.8,11.4,90.1,26.1,129.3c22.8,60.7,59,112.7,100.9,162.3c34.7,39.3,81.4,74.5,110.6,76.7c29.2-2.2,75.8-37.4,110.5-76.7
		c41.9-49.6,78.1-101.6,100.9-162.3c14.7-39.2,23.2-82.5,26.1-129.3C862.3,360.6,857.3,278.2,846.7,197.1L846.7,197.1z M526.8,367
		v345.8c-24-26.9-44.3-55.5-62.4-85.5C448.6,601,434,573.4,423.6,543c-15.4-44.8-23.1-95.5-23.3-154.5
		C442.7,378.9,484.9,371.3,526.8,367z M518.6,345.9l-16.8,2l-13.8,1.9l0-59.7l13.8-1.9l16.4-1.9l0,11.3l-16.4,1.7l0,11.7l14.1-1.5
		l0,11.7l-14.2,1.6l0,12.9l16.8-2.4L518.6,345.9z M584.2,341c-8.3,0.4-15.9-5.7-15.9-14v-31c0-9.2,7-15.1,17.8-15.5
		c8.6-0.3,17.1,4,17.1,14.7v7.5h-13.7l0-7.5c0-1.8-1.4-4.5-4-4.1c-3.1,0.5-3.8,2.6-3.8,4.8v31c0,2.1,1.8,4.5,4.2,4
		c3.5-0.7,3.6-4.2,3.6-7v-7.5h13.7v7.5C603.1,332.5,598.6,340.4,584.2,341L584.2,341z M797.6,357.2l-13.5-2.5v-59.2l13.2,2.4
		L797.6,357.2z M805,355.4l0-19c0-6.9,3-6.7,7-8c-4.7-1.9-6.8-6.4-6.8-10.6v-5.8c0-9.1,5.3-11.7,14.5-9.7l6.1,1.3l13.4,3l0,59.2
		l-13.2-3l0-24.6c0-1.6-2.9-2.3-4.5-2.2c-2.6,0.2-3.8,2.6-3.8,4.6l0,18.3c0,1.1-0.9,1.7-2,1.5l-12.2-2.3l0-1.8
		C804.2,356.7,805,356.4,805,355.4L805,355.4z M741.5,348.3v-59.4l13.4,1.9l4.9,0.7c12.4,1.8,16.7,9,16.7,16.5v4.9
		c0,15.6-8.5,15.7-16,14.7l-5.5-0.8l0,23.3L741.5,348.3z M481.1,291.2v59.5l-13.8,2.4l0.1-48.1l-7.7,1l0,33.6
		c0,4.4-2.3,10.3-4.3,12.6c-2.4,2.8-5.7,4-9.8,4.8c-1.8,0.4-3.6,0.2-5.5,0.2l0-11.1c3.8-0.1,6-2.8,6-6.5v-42.5l13.5-2.4l7.7-1.3
		L481.1,291.2z M434.7,345.1c0,8.4-9.5,16.7-17.9,17.8c-11.1,1.5-16.5-4.4-16.5-12.4V320c0-10.2,8.7-16.2,17.4-18.1
		c10.1-2.2,16.8,2.4,16.9,12.5L434.7,345.1z"/>
	<path id="path77" class="st6" d="M421.5,347.2v-31.6c0-2.6-2.3-3.4-4-3c-1.7,0.3-3.5,1.9-3.5,4l-0.1,32.7c0,3,1.8,3.9,3.6,3.5
		C419.9,352,421.5,350.8,421.5,347.2L421.5,347.2z"/>
	<path id="path79" class="st6" d="M627.9,289.8l-3.4,29l6.9,0.1L627.9,289.8z"/>
	<path id="path81" class="st6" d="M712.1,309.9c0,7.3-1.9,18.5-4.7,22l13.2,1.3l0-35.1l-8.6-1.5L712.1,309.9z"/>
	<path id="path83" class="st6" d="M754.9,301l0,14.6c5.2,2.1,7.3,0,8.1-2.8c0.6-2.2,0.6-4.4,0-6.6C762,302.4,758.2,301.3,754.9,301
		L754.9,301z"/>
	<path id="path85" class="st6" d="M817.8,321.2c0.7,4.5,3.9,6.4,7.9,6.2l0.1-13.2c-4.5-2-7.6-0.8-8,2.1
		C817.6,317.6,817.5,319,817.8,321.2z"/>
</g>
</svg>
