<?xml version="1.0" encoding="utf-8"?>
<!-- Generator: Adobe Illustrator 25.0.1, SVG Export Plug-In . SVG Version: 6.00 Build 0)  -->
<svg version="1.0" id="Layer_1" xmlns="http://www.w3.org/2000/svg" xmlns:xlink="http://www.w3.org/1999/xlink" x="0px" y="0px"
	 viewBox="0 0 329.5 253.5" style="enable-background:new 0 0 329.5 253.5;" xml:space="preserve">
<style type="text/css">
	.st0{fill:#FFE600;}
</style>
<polygon class="st0" points="148.8,221.5 150,221.5 151.6,218.4 153.3,221.5 154.5,221.5 151.6,215.9 "/>
<path class="st0" d="M157.3,220.4v-1.5h1.9c0.3,0,0.6,0.2,0.6,0.5c0,0,0,0.1,0,0.1v0.4c0,0.3-0.1,0.6-0.6,0.6L157.3,220.4z
	 M159.1,217.9h-1.9v-1.8h-1.1v5.4h3.1c1,0,1.6-0.5,1.6-1.4v-0.7C160.9,218.4,160.1,217.9,159.1,217.9"/>
<rect x="169" y="216.1" class="st0" width="1.1" height="5.4"/>
<path class="st0" d="M173.1,218.2v-1h1.7c0.4,0,0.5,0.2,0.5,0.5v0c0,0.4-0.4,0.5-0.7,0.5L173.1,218.2z M175.6,219.9
	c0,0.4-0.3,0.5-0.6,0.5h-1.9v-1.2h1.9c0.4,0,0.6,0.2,0.6,0.5V219.9z M176,218.6c0.3-0.2,0.4-0.6,0.4-0.9v-0.1
	c0.1-0.8-0.5-1.4-1.3-1.5c-0.1,0-0.2,0-0.3,0H172v5.4h3.1c0.8,0.1,1.5-0.5,1.6-1.3c0-0.1,0-0.2,0-0.3v-0.1
	C176.7,219.3,176.4,218.8,176,218.6"/>
<path class="st0" d="M163.7,218.2v-1h1.7c0.4,0,0.5,0.2,0.5,0.5v0c0,0.4-0.4,0.5-0.7,0.5L163.7,218.2z M166.2,219.9
	c0,0.4-0.3,0.5-0.6,0.5h-1.9v-1.2h1.9c0.3,0,0.6,0.2,0.6,0.5V219.9z M166.6,218.6c0.3-0.2,0.4-0.6,0.4-0.9v-0.1
	c0.1-0.8-0.5-1.4-1.3-1.5c-0.1,0-0.2,0-0.3,0h-2.9v5.4h3.1c0.8,0.1,1.5-0.5,1.6-1.3c0-0.1,0-0.2,0-0.3v-0.1
	C167.3,219.3,167,218.8,166.6,218.6"/>
<path class="st0" d="M153.2,34.7c0,0-7.7,11-9.2,23.4c-2.7,22.1-3.3,44.5-1.8,66.7c0.9,10.8,4.3,21.2,10,30.4c0,0-1.6-21.7-1.9-34.1
	c-0.4-22-0.1-42.6,1-64.6C151.8,49,153.3,34.7,153.2,34.7"/>
<path class="st0" d="M140.2,39.4c-6.1,7.6-10.2,16.6-11.9,26.2c-1.5,9.5-3.1,28.6-2.5,45.6c0.5,15.5,10.4,29.1,10.4,29.1
	s-2-15-2.3-28.2c-0.3-12.1,0.1-36.5,1.9-51.5C136.7,53,140.2,39.4,140.2,39.4"/>
<path class="st0" d="M173.5,34.7c0,0,1.5,14.3,1.9,21.8c1.1,22.1,1.4,42.6,1,64.6c-0.2,12.3-1.8,34.1-1.8,34.1
	c5.7-9.2,9.1-19.6,10-30.4c1.4-22.3,0.8-44.6-1.8-66.7C181.2,45.7,173.5,34.7,173.5,34.7"/>
<path class="st0" d="M163.3,32c0,0-3.3,11.7-3.7,21.6c-1.1,27-1.5,55.8-1.1,87.4c0.1,12.3,4.8,28.8,4.8,28.8s4.7-16.5,4.8-28.8
	c0.3-31.6,0-60.4-1.1-87.5C166.7,43.7,163.3,32,163.3,32"/>
<path class="st0" d="M198.4,65.6c-1.7-9.6-5.8-18.6-11.9-26.2c0,0,3.5,13.7,4.4,21.2c1.8,15,2.1,39.5,1.9,51.5
	c-0.3,13.2-2.3,28.2-2.3,28.2s9.9-13.6,10.4-29.1C201.3,96,200.5,80.7,198.4,65.6"/>
<path class="st0" d="M152.1,194.3h7.2l4.1,4.1l4.1-4.1h6.8l-6.5,6.7c-1.6,1.7-3.8,2.6-6.1,2.6h-9.1v-2.3h7.2L152.1,194.3z"/>
<polygon class="st0" points="184.1,203.7 192.9,198.6 185.6,194.3 193.4,194.3 197.9,196.9 202.3,194.3 210.1,194.3 202.8,198.6 
	211.6,203.7 202.4,203.7 197.9,201 193.3,203.7 "/>
<path class="st0" d="M131.3,198.8h-6.3v-2.2h6.3c1.2,0,1.5,0.5,1.5,1.1S132.4,198.8,131.3,198.8 M135.4,194.3H118v9.3h6.9V201h10.5
	c2.4-0.1,3.7-1.5,3.7-3.3S137.8,194.4,135.4,194.3"/>
</svg>
