<?xml version="1.0" encoding="utf-8"?>
<!-- Generator: Adobe Illustrator 25.0.1, SVG Export Plug-In . SVG Version: 6.00 Build 0)  -->
<svg version="1.0"
	 id="svg8" inkscape:export-filename="C:\Users\Karimk\Desktop\corinthians.png" inkscape:export-xdpi="96" inkscape:export-ydpi="96" sodipodi:docname="shakhtar.svg" xmlns:cc="http://creativecommons.org/ns#" xmlns:dc="http://purl.org/dc/elements/1.1/" xmlns:inkscape="http://www.inkscape.org/namespaces/inkscape" xmlns:rdf="http://www.w3.org/1999/02/22-rdf-syntax-ns#" xmlns:sodipodi="http://sodipodi.sourceforge.net/DTD/sodipodi-0.dtd" xmlns:svg="http://www.w3.org/2000/svg"
	 xmlns="http://www.w3.org/2000/svg" xmlns:xlink="http://www.w3.org/1999/xlink" x="0px" y="0px" viewBox="0 0 247.9 183"
	 style="enable-background:new 0 0 247.9 183;" xml:space="preserve">
<style type="text/css">
	.st0{fill:#FFFFFF;}
	.st1{fill:#181A18;}
	.st2{fill:#F0612C;}
	.st3{fill:#222324;}
</style>
<sodipodi:namedview  bordercolor="#666666" borderopacity="1.0" fit-margin-bottom="0.1" fit-margin-left="0.1" fit-margin-right="0.1" fit-margin-top="0.1" id="base" inkscape:current-layer="layer1" inkscape:cx="-135.73328" inkscape:cy="33.62208" inkscape:document-units="mm" inkscape:lockguides="true" inkscape:pageopacity="0" inkscape:pageshadow="2" inkscape:window-height="1017" inkscape:window-maximized="1" inkscape:window-width="1920" inkscape:window-x="-8" inkscape:window-y="-8" inkscape:zoom="0.49497475" pagecolor="#00ffff" showgrid="false" units="px">
	</sodipodi:namedview>
<g id="layer1" transform="translate(-141.09548,-116.30114)" inkscape:groupmode="layer" inkscape:label="Layer 1">
	<g id="g10" transform="matrix(0.17826441,0,0,-0.17826441,141.12197,151.98048)">
		<g id="g12" transform="scale(0.1)">
			<path id="path14" inkscape:connector-curvature="0" class="st0" d="M6952.8,282.6c-3062.7-1280.6-3056.2-5547.2,0-6825
				C10015.6-5261.9,10009-995.3,6952.8,282.6L6952.8,282.6"/>
			<path id="path16" inkscape:connector-curvature="0" class="st1" d="M6952.8,282.6c-3062.7-1280.6-3056.2-5547.2,0-6825
				C10015.6-5261.9,10009-995.3,6952.8,282.6z M6952.8,649.6L6952.8,649.6c3208.8-1479.7,3204.3-6081.5,0-7559.1
				C3748.6-5431.9,3744.1-830.1,6952.8,649.6L6952.8,649.6"/>
			<path id="path18" inkscape:connector-curvature="0" class="st1" d="M8805.1-4308.4c-241.2-795.5-850.5-1361-1852.3-1773.9
				C6116.7-5737.6,5372-5204,5098.6-4302.1C6364.9-4681.3,7578.4-4721.1,8805.1-4308.4L8805.1-4308.4"/>
			<path id="path20" inkscape:connector-curvature="0" class="st2" d="M8640.4-1618.6c259.7-574.3,385.1-1105.5,376.2-1593.6
				c-1118.7-488.6-3010.6-487.7-4127.4,0c-9,488.1,116.4,1019.4,376.2,1593.6c10.1-913.6,761.8-1651.5,1687.5-1651.5
				C7878.6-3270,8630.3-2532.1,8640.4-1618.6L8640.4-1618.6"/>
			<path id="path22" inkscape:connector-curvature="0" class="st1" d="M6952.9-209.5c990.1-552,1175.3-2025.6,235-2702.3
				c411.6,868.5,333.3,1581.1-235,2138c-568.3-556.8-646.7-1269.5-235.1-2138C5777.6-2235,5962.8-761.5,6952.9-209.5L6952.9-209.5"
				/>
			<path id="path24" inkscape:connector-curvature="0" class="st2" d="M6952.9-3079.1c475.8,675.7,432.1,1614.8,0,2079.5
				C6520.7-1464.3,6477.1-2403.4,6952.9-3079.1z M6930.5-3111.1c-772.8,12-1395.9,642.3-1395.9,1418
				c0,629.5,410.4,1163.3,978.2,1348.5c-342.5-267.3-570.3-741.2-570.3-1281.4C5942.5-2364.3,6368-2979.1,6930.5-3111.1z
				 M6975.3-3111.1c772.8,12,1395.8,642.3,1395.8,1418c0,629.5-410.4,1163.3-978.2,1348.5c342.5-267.3,570.3-741.2,570.3-1281.4
				C7963.3-2364.3,7537.7-2979.1,6975.3-3111.1L6975.3-3111.1"/>
			<path id="path26" inkscape:connector-curvature="0" class="st0" d="M7301.3-5036.2c0,20.3-3.8,35.9-11.4,46.7
				c-7,10.2-16.5,15.3-28.5,15.3c-15.5,0-25.9-6.8-31-20.2c-2.4-6.3-3.6-15-3.6-26.1c0-28.7,5.4-49.1,16.3-61.1
				c6.2-6.8,13.9-10.1,23.2-10.1C7289.7-5091.7,7301.3-5073.3,7301.3-5036.2z M7348.6-5014.6c0-37.7-13.4-65.9-40.1-84.7
				c-12.6-8.7-28.3-13.2-47.2-13.2c-26.7,0-47.5,9.7-62.6,29.1c-15.4,19.6-23.2,47.3-23.2,83c0,34.6,6.3,63.2,18.7,85.9
				c13.2,24.2,30.5,43.2,51.9,57.4c21.9,14.4,46.6,21.8,73.6,21.8l15.5-12.8l-6.1-6.7c-4.7,0.8-9.1,1.1-13.4,1.1
				c-20.2,0-37.8-7.3-53-22.2c-6.8-6.6-12.8-15.1-17.8-25.2c-8.4-17.1-14-40.4-16.9-70.2c17.5,16.5,28.1,25.3,31.6,26.7
				c8.4,3.6,18.2,5.4,29.3,5.4c16.9,0,30.9-6.3,41.9-18.9C7342.7-4971.5,7348.6-4990.4,7348.6-5014.6z M7143-5012.6
				c0-27.9-11.5-51.5-34.8-70.8c-23.2-19.3-50.4-29-81.7-29c-16.6,0-32.6,3.7-47.9,10.8c-2.4,22.8-5.5,42-9.5,57.8l1.3,2.8l9.7,2.9
				l2.4-1c12.9-33.1,33.8-49.7,62.3-49.7c14.8,0,26.6,4.8,35.7,14.4c9,9.6,13.4,22.7,13.4,39.5c0,16.6-4.9,29.5-14.8,38.5
				c-9.3,8.6-21.8,13-37.5,13c-7.1,0-15-1.2-23.3-3.6l-2.4,2.6c3,9.3,5.4,19.2,7.5,29.9h16.1c11.7,0,21.7,4.2,30.3,12.5
				c8.5,8.3,12.8,18.2,12.8,29.6c0,10.9-3.8,19.7-11.4,26.5c-7.5,6.8-16.9,10.1-28.1,10.1c-17.8,0-29.9-4.5-36.3-13.7
				c-3-4.3-5.8-10.5-8.6-18.6l-2.2-6.5l-2.7-1.7l-10,0.8l-2,2.6l6.9,31.9c2,9,3.3,17.9,4.3,26.6c17.1,12.8,38.4,19.2,64.2,19.2
				c21.8,0,39.3-5.4,52.1-16.2c12.4-10.5,18.5-24.1,18.5-41c0-24.3-14.5-44.1-43.6-59.2c14.7,0,28-5,39.9-15
				C7136.5-4977.3,7143-4992.8,7143-5012.6z M6892.3-4927c0,24.2-3.6,42.1-10.6,53.8c-7.1,11.7-16.7,17.4-28.9,17.4
				c-15.1,0-25.3-8.2-30.7-24.6c-2.9-8.8-4.3-19-4.3-31c0-20.3,3.7-35.9,11.2-46.7c7-10.2,16.7-15.3,28.6-15.3
				c15.5,0,25.8,6.9,31,20.6C6891.1-4946.5,6892.3-4937.9,6892.3-4927z M6943.6-4947.3c0-34.7-6.2-63.4-18.7-86.2
				c-13.1-24-30.4-43-52-57.2c-22.2-14.5-46.6-21.8-73.2-21.8l-15.5,12.8l4.7,7.7c4-1.5,8.8-2.2,14.6-2.2c20.4,0,38.2,7.5,53.6,22.7
				c6.1,6.1,11.8,14.1,17,24.4c8.4,16.1,14.2,39.6,17.3,70.5c-19.4-17.9-30.3-27-32.5-27.3c-8.7-3.1-18-4.7-27.9-4.7
				c-17.4,0-31.6,6.4-42.6,19.2c-11.9,13.7-17.6,32.5-17.6,56.4c0,38.2,13.4,66.4,40.2,84.8c12.8,8.7,28.4,13,46.9,13
				c35.1,0,60-16.4,74.9-49C6939.9-4900.2,6943.6-4921.2,6943.6-4947.3L6943.6-4947.3z M6740.3-5103.1l-2.1-2.3
				c-18.3,1.1-40.7,1.7-67.1,1.7c-25.8,0-52.9-0.6-81.5-1.7l-2.2,2.1v12l2.3,2c6.7,0.8,13.2,1.4,19.5,2c11.3,0.9,18.5,2,21.6,3.3
				c2.3,1.1,4.1,3.5,5.7,7.2c2.5,6.2,3.7,31.1,3.7,74.7v48.8c0,14.7-0.2,33.2-0.8,55.8l-0.3,14.7c0,6.5-1.4,9.8-4.2,9.8
				c-1.1,0-5-1.5-11.6-4.6c-17.9-8.2-33.3-15.5-46.1-21.7l-2.3,1.3c-0.8,7.5-2.2,15.8-4.1,25l0.2,1.5c36.2,10.2,76.6,23.9,121.2,41
				l4.1-3c-0.5-7.7-1.2-19.1-2.2-34.4c-0.4-5.7-0.8-21.2-1.2-46.3l-0.6-77.1c0-55.3,0.9-84.9,2.8-89c1.2-3,3.2-4.9,5.8-5.5
				c4.8-1.4,17.1-2.6,37-3.6l2.5-2V-5103.1"/>
			<path id="path28" inkscape:connector-curvature="0" class="st0" d="M7163.6-5742.6l-160.2,167.2l114.3,119.4l107.1-103.7
				l13.1,118.5l-55,53.3l15.4,16.1c11.9,12.4,11.4,32.3-1,44.2l-7.6,7.3c-12.5,11.9-32.4,11.5-44.3-0.9l-15.1-15.8l-83.8,81.1
				l-65.6-67.8l84.1-81.4l-112.4-117.4l-112.5,117.4l84.2,81.5l-65.6,67.8l-83.8-81.1l-15.1,15.8c-12,12.5-31.9,12.9-44.3,0.9
				l-7.6-7.3c-12.4-11.9-12.9-31.8-1-44.2l15.4-16.1l-83.1-80.6l65.6-67.8l82.8,80.2l114.3-119.4L6742-5742.6
				c-12-12.5-11.5-32.4,0.9-44.3l7.6-7.3c12.4-11.9,32.3-11.5,44.3,1l158,164.9l158-164.9c11.9-12.4,31.8-12.9,44.3-1l7.6,7.3
				C7175.1-5775,7175.6-5755.1,7163.6-5742.6L7163.6-5742.6"/>
			<path id="path30" inkscape:connector-curvature="0" class="st3" d="M8579.7-3856.3l145.4,32.8c37.8,8.6,67.3,24.5,88.2,47.7
				c21.1,23.3,32.4,50.4,34,81.6c1.5,28.1-6.4,50-23.7,66c-17.5,15.8-50.4,18.3-98.6,7.3l-134.3-30.3L8579.7-3856.3z M8559.6-4233.2
				l-122.9-27.8l36.5,684.5l279.2,63c79.6,17.9,137.5,11.1,173.9-20.4c36.2-31.5,52.9-74.8,50-129.6c-3.3-62.6-26.9-118-70.5-166.1
				c-43.7-48.3-97.5-79.5-161.4-93.9l-170.2-38.5L8559.6-4233.2"/>
			<path id="path32" inkscape:connector-curvature="0" class="st3" d="M8160.1-4061.2l-73.4,289.1l-136-323.5L8160.1-4061.2z
				 M8363.8-4286l-138.3-22.7l-40.9,154.1l-276.3-45.3l-72.9-172.7l-110.5-18.1l308.5,725.5l159.4,26.1L8363.8-4286"/>
			<path id="path34" inkscape:connector-curvature="0" class="st3" d="M7579.8-4400.1l-140.6-6.9l34.8,577l-193.1-9.4l6.4,105.4
				l526.7,26l-6.4-105.5l-193-9.5L7579.8-4400.1"/>
			<path id="path36" inkscape:connector-curvature="0" class="st3" d="M7230.6-4426.5H7078l-160.3,269l-170.1-269H6626l229.6,355.5
				l-197.1,327h151.9l133.9-227l141.8,227h122.2l-201.8-311.4L7230.6-4426.5"/>
			<path id="path38" inkscape:connector-curvature="0" class="st3" d="M6368.8-4126.7l-126.1,325.5l-85.8-307.5L6368.8-4126.7z
				 M6610.3-4417.9l-139.9,11.9l-69.6,173.9l-279.5,23.8l-45.5-164l-111.7,9.5l193,689l161.2-13.7L6610.3-4417.9"/>
			<path id="path40" inkscape:connector-curvature="0" class="st3" d="M5078.3-4176.8l-81.4,718.3l127.6-26.9l68.8-606.8l219.2-46.2
				l-68.8,606.6l127.6-26.9l68.8-606.7l219.2-46.3l-68.8,606.8l127.6-26.9l81.4-718.3L5078.3-4176.8"/>
		</g>
	</g>
</g>
</svg>
