<?xml version="1.0" encoding="utf-8"?>
<!-- Generator: Adobe Illustrator 25.0.1, SVG Export Plug-In . SVG Version: 6.00 Build 0)  -->
<svg version="1.0"
	 id="svg2" sodipodi:docname="FC_Vorskla_Poltava.svg" xmlns:cc="http://creativecommons.org/ns#" xmlns:dc="http://purl.org/dc/elements/1.1/" xmlns:inkscape="http://www.inkscape.org/namespaces/inkscape" xmlns:rdf="http://www.w3.org/1999/02/22-rdf-syntax-ns#" xmlns:sodipodi="http://sodipodi.sourceforge.net/DTD/sodipodi-0.dtd" xmlns:svg="http://www.w3.org/2000/svg"
	 xmlns="http://www.w3.org/2000/svg" xmlns:xlink="http://www.w3.org/1999/xlink" x="0px" y="0px" viewBox="0 0 420.5 322"
	 style="enable-background:new 0 0 420.5 322;" xml:space="preserve">
<style type="text/css">
	.st0{fill-rule:evenodd;clip-rule:evenodd;}
	.st1{fill-rule:evenodd;clip-rule:evenodd;fill:#FFF200;}
	.st2{fill-rule:evenodd;clip-rule:evenodd;fill:#FCC826;}
	.st3{fill-rule:evenodd;clip-rule:evenodd;fill:#FAA61A;}
	.st4{clip-path:url(#SVGID_2_);}
	.st5{fill-rule:evenodd;clip-rule:evenodd;fill:#00A74C;}
	.st6{clip-path:url(#SVGID_4_);}
	.st7{fill-rule:evenodd;clip-rule:evenodd;fill:#00A651;}
	.st8{fill-rule:evenodd;clip-rule:evenodd;fill:#FFFFFF;}
	.st9{clip-path:url(#SVGID_6_);}
	.st10{fill-rule:evenodd;clip-rule:evenodd;fill:#DA2032;}
	.st11{fill:none;stroke:#000000;stroke-width:0.1092;stroke-miterlimit:19.105;}
	.st12{fill:#00A74C;}
	.st13{fill-rule:evenodd;clip-rule:evenodd;fill:#DC2434;}
</style>
<sodipodi:namedview  bordercolor="#666666" borderopacity="1" fit-margin-bottom="2" fit-margin-left="2" fit-margin-right="2" fit-margin-top="2" gridtolerance="10" guidetolerance="10" id="namedview4" inkscape:current-layer="g10" inkscape:cx="221.81766" inkscape:cy="135.25614" inkscape:pageopacity="0" inkscape:pageshadow="2" inkscape:window-height="705" inkscape:window-maximized="1" inkscape:window-width="1366" inkscape:window-x="-8" inkscape:window-y="-8" inkscape:zoom="1.2586667" objecttolerance="10" pagecolor="#ffffff" showgrid="false">
	</sodipodi:namedview>
<g id="g10" transform="matrix(1.25,0,0,-1.25,-44.080509,242.4661)" inkscape:groupmode="layer" inkscape:label="asdasd">
	<g id="g868" transform="matrix(0.66666689,0,0,0.66666689,36.864407,-7.6271186)">
		<g id="g12" transform="translate(258.666,210.5864)">
			<path id="path14" inkscape:connector-curvature="0" class="st0" d="M115.2-40.8l1.6,3.2l9.2,19H87.2V-63h38.7L115.2-40.8z"/>
		</g>
		<g id="g16" transform="translate(232.3213,190.0029)">
			<path id="path18" inkscape:connector-curvature="0" class="st1" d="M115.2-40.8h17.3v4.6h-9.5v32.1h9.5v4.6l-17.3,0V-40.8z
				 M132.5-40.8h1.2h16.1l-8,16.6l-1.9,3.9l1.9,3.9l8,16.6h-16.1h-1.2v-4.6h9.5l-5-10.3l-2.8-5.8L137-26l5-10.3h-9.5V-40.8z"/>
		</g>
		<g id="g20" transform="translate(264.7129,231.1704)">
			<path id="path22" inkscape:connector-curvature="0" class="st2" d="M115.2-40.8l-9.8-20.4l8.9-18.9H86.8V-82h14.4h16.1l-8,16.6
				l-1.9,3.9l1.9,3.9l8,16.6H115.2z"/>
		</g>
		<g id="g24" transform="translate(264.7129,231.1704)">
			<path id="path26" inkscape:connector-curvature="0" class="st3" d="M115.2-40.8l-9.8-20.4l8.9-18.9H86.8V-82h14.4h16.1l-8,16.6
				l-1.9,3.9l1.9,3.9l8,16.6H115.2z"/>
		</g>
		<g id="g28" transform="translate(240.7725,195.6782)">
			<path id="path30" inkscape:connector-curvature="0" class="st1" d="M115.2-40.8V-11h16.4l-7.2-14.9l7.2-14.9H115.2z"/>
		</g>
		<g id="g32" transform="translate(255.6758,195.6782)">
			<path id="path34" inkscape:connector-curvature="0" class="st3" d="M115.2-40.8l-7.6,15l7.1,13.8h-14.4v0.6l0.6,0.5h15.8
				l-7.2-14.9l7.2-14.9H115.2z"/>
		</g>
		<g id="g36" transform="translate(0,232.785)">
			<path id="path38" inkscape:connector-curvature="0" d="M115.2-40.8L115.2-40.8l9.2-19l1.6-3.2l-10.7-22.2v0h38.7v44.4H115.2z"/>
		</g>
		<g id="g40" transform="translate(19.8257,190.0029)">
			<path id="path42" inkscape:connector-curvature="0" class="st1" d="M115.2-40.8H114H97.9l8,16.6l1.9,3.9l-1.9,3.9l-8,16.6H114
				h1.2v-4.6h-9.5l5-10.3l2.8-5.8l-2.8-5.7l-5-10.3h9.5V-40.8z M132.4-40.8h-17.2v4.6h9.5v32.1h-9.5v4.6h17.2V-40.8z"/>
		</g>
		<g id="g44" transform="translate(4.686,231.1704)">
			<path id="path46" inkscape:connector-curvature="0" class="st2" d="M115.2-40.8l9.8-20.4L116-80.1h27.5V-82h-14.4h-16.1l8,16.6
				l1.9,3.9l-1.9,3.9l-8,16.6H115.2z"/>
		</g>
		<g id="g48" transform="translate(4.686,231.1704)">
			<path id="path50" inkscape:connector-curvature="0" class="st3" d="M115.2-40.8l9.8-20.4L116-80.1h27.5V-82h-14.4h-16.1l8,16.6
				l1.9,3.9l-1.9,3.9l-8,16.6H115.2z"/>
		</g>
		<g id="g52" transform="translate(28.6265,195.6782)">
			<path id="path54" inkscape:connector-curvature="0" class="st1" d="M115.2-40.8V-11H98.8l7.2-14.9l-7.2-14.9H115.2z"/>
		</g>
		<g id="g56" transform="translate(13.7236,195.6782)">
			<path id="path58" inkscape:connector-curvature="0" class="st3" d="M115.2-40.8l7.6,15L115.7-12h14.4v0.6l-0.6,0.5h-15.8
				l7.2-14.9l-7.2-14.9H115.2z"/>
		</g>
		<g id="g60">
			<g>
				<defs>
					<rect id="SVGID_1_" x="137.6" y="-15.8" width="224.5" height="250"/>
				</defs>
				<clipPath id="SVGID_2_">
					<use xlink:href="#SVGID_1_"  style="overflow:visible;"/>
				</clipPath>
				<g id="g62" class="st4">
					<g id="g68" transform="translate(129.3877,27.5767)">
						<path id="path70" inkscape:connector-curvature="0" class="st0" d="M115.2-40.8c0,0.1-0.1,0.2-0.1,0.3c-0.9,3.6,0.4,6.6,4,7.1
							v0.1l1.1,0l1.1,0v-0.1c1.3-0.2,2.5-0.7,3.3-1.7c1.2-1.5,1.2-3.6,0.8-5.4c0-0.1-0.1-0.2-0.1-0.3l13.2,4.5l-18.3-32.1l-1,1.8
							L102-36.3L115.2-40.8z"/>
					</g>
					<g id="g72" transform="translate(134.1597,33.6123)">
						<path id="path74" inkscape:connector-curvature="0" class="st1" d="M115.2-40.8c-5.2-0.2-3.9-5.9-2-8.5l-12.8,4.4l14.8-26.1
							V-40.8z"/>
					</g>
					<g id="g76" transform="translate(149.647,29.5757)">
						<path id="path78" inkscape:connector-curvature="0" class="st3" d="M115.2-40.8l-12.8-4.4c1.8,2.5,3.2,8.3-2,8.5v-30.1
							L115.2-40.8z"/>
					</g>
					<g id="g80" transform="translate(134.7803,41.8198)">
						<path id="path82" inkscape:connector-curvature="0" class="st5" d="M115.2-40.8c-62.3-5-86.5,23.9-98.1,50.5
							c-6.5,14.9-4.4,29.5-14.4,36.2c22.2,16,24.2,54.5,4.7,79.1h107.9V-40.8z"/>
					</g>
				</g>
			</g>
		</g>
		<g id="g84">
			<g>
				<defs>
					<path id="SVGID_3_" d="M142.1,166.8c19.5-24.6,17.5-63-4.7-79.1l0,0c10.1-6.7,7.9-21.3,14.4-36.2l0,0
						C163.5,24.9,187.6-3.9,250,1l0,0v165.8H142.1z"/>
				</defs>
				<clipPath id="SVGID_4_">
					<use xlink:href="#SVGID_3_"  style="overflow:visible;"/>
				</clipPath>
				<g id="g86" class="st6">
					<g id="g92" transform="translate(0.0205,171.0068)">
						<path id="path94" inkscape:connector-curvature="0" class="st7" d="M115.2-40.8l21.4,30.5l151.2-105.9l-21.4-30.5L115.2-40.8z
							"/>
					</g>
					<g id="g96" transform="translate(42.7588,232.0464)">
						<path id="path98" inkscape:connector-curvature="0" class="st8" d="M115.2-40.8L93.8-71.3L245-177.2l21.4,30.5L115.2-40.8z"/>
					</g>
					<g id="g100" transform="translate(42.7588,232.0464)">
						<path id="path102" inkscape:connector-curvature="0" class="st7" d="M115.2-40.8l21.4,30.5l151.2-105.9l-21.4-30.5L115.2-40.8
							z"/>
					</g>
					<g id="g104" transform="translate(-42.7212,109.9673)">
						<path id="path106" inkscape:connector-curvature="0" class="st7" d="M115.2-40.8l21.4,30.5l151.2-105.9l-21.4-30.5L115.2-40.8
							z"/>
					</g>
					<g id="g108" transform="translate(0.0195,171.0068)">
						<path id="path110" inkscape:connector-curvature="0" class="st8" d="M115.2-40.8L93.8-71.3L245-177.2l21.4,30.5L115.2-40.8z"
							/>
					</g>
				</g>
			</g>
		</g>
		<g id="g112">
			<g>
				<defs>
					<rect id="SVGID_5_" x="137.6" y="-15.8" width="224.5" height="250"/>
				</defs>
				<clipPath id="SVGID_6_">
					<use xlink:href="#SVGID_5_"  style="overflow:visible;"/>
				</clipPath>
				<g id="g114" class="st9">
					<g id="g120" transform="translate(134.7803,41.8198)">
						<path id="path122" inkscape:connector-curvature="0" class="st10" d="M115.2-40.8c62.3-5,86.5,23.9,98.1,50.5
							c6.5,14.9,4.4,29.5,14.4,36.2c-22.2,16-24.2,54.5-4.6,79.1l-107.9,0V-40.8z"/>
					</g>
					<g id="g124" transform="translate(137.9966,201.4028)">
						<path id="path126" inkscape:connector-curvature="0" class="st0" d="M115.2-40.8l11.8,5.4h2.8v-30l-14-6.9l1.4-69.9l2-46
							l-7.5-8.6l-7.5,8.6l2,46l1.4,69.9l-14,6.9v30h2.8l11.8-5.4l0.1,5.4h6.8L115.2-40.8z"/>
					</g>
					<g id="g128" transform="translate(142.9746,187.2773)">
						<path id="path130" inkscape:connector-curvature="0" class="st3" d="M115.2-40.8v-6.4l-8.2-3.7v6.4l0,0L115.2-40.8z
							 M115.2-33.8l-8.2-3.7l0,0v-6.4l8.2,3.7V-33.8z M115.2-26v-7.2l-8.2-3.7v14.2h1.7l0.1-6.2L115.2-26z M107-180.3l5.7,6.6
							l-1.9,45.5l-1.4,70.9l5.8,2.9v6.7l-8.2-3.7l0,0V-180.3z M115.2-33.2v7.2l7.2,3.3h1.1v-6.8L115.2-33.2z M115.2-40.2l8.2,3.7
							v6.4l-8.2-3.7V-40.2z M115.2-47.2v6.4l8.2,3.7v-6.4L115.2-47.2z M115.2-54.5l8.2,4.1v6.4l-8.2-3.7V-54.5z"/>
					</g>
					<g id="g132" transform="translate(125.9854,187.4375)">
						<path id="path134" inkscape:connector-curvature="0" class="st1" d="M115.2-40.8v-6.4l-8.2,3.7v6.4L115.2-40.8z M115.2-33.8
							l-8.2,3.7v-6.4l8.2-3.7V-33.8z M115.2-26.1v-7.1l-8.2,3.7v6.7h1.1L115.2-26.1z M107-44.1v-6.5l8.2-4.1v6.9L107-44.1z
							 M115.2-33.2v7.1l6.4-2.9l0.1,6.2h1.7v-14.1L115.2-33.2z M115.2-40.2l8.2-3.7v6.4l-8.2,3.7V-40.2z M115.2-47.2v6.4l8.2-3.7
							v-6.4L115.2-47.2z M115.2-54.7l5.8-2.9l-1.4-70.9l-1.9-45.5l5.7-6.6v129l-8.2,3.7V-54.7z"/>
					</g>
					<g id="g136" transform="translate(18.4263,131.3496)">
						<path id="path138" inkscape:connector-curvature="0" class="st0" d="M115.2-40.8c5.5,5,9.7,11.2,12.4,18.1
							c3.5,9.1,4.3,19.2,2.4,28.8c-2.1,10.6-7.2,20.2-14.4,28.2l-2.3,2.6H124l2.6-3.3l1.8-2.6l1.7-2.6l1.5-2.7l1.4-2.8l1.2-2.8
							l1.1-2.9l1-2.9l0.8-2.9l0.7-3l0.5-3l0.4-3l0.3-3l0.1-3l0-3l-0.1-2.9l-0.3-2.9l-0.4-2.9l-0.5-2.8l-0.7-2.8l-0.8-2.7l-0.9-2.7
							l-1.1-2.6l-1.2-2.5l-1.4-2.5l-1.5-2.4l-1.6-2.3l-1.7-2.2l-1.9-2.1l-2-1.9l-2.1-1.8l-1.5-1.1l-0.9,0.5c-2,1.2-3.8,2.9-3.6,5.4
							l0.1,0.6L115.2-40.8z"/>
					</g>
					<g id="g140" transform="translate(22.2905,126.3081)">
						<path id="path142" inkscape:connector-curvature="0" class="st3" d="M115.2-40.8c-1.8,1.1-3,2.3-2.8,3.9
							c20.9,19.2,22.3,53.1,0.5,77.2h6.5l2.1-2.7l1.7-2.5l1.6-2.6l1.5-2.6l1.3-2.7l1.2-2.8l1.1-2.8l0.9-2.8l0.8-2.9l0.7-2.9l0.5-2.9
							l0.4-2.9l0.3-2.9l0.1-2.9l0-2.9l-0.1-2.9l-0.3-2.8l-0.4-2.8l-0.5-2.8l-0.7-2.7l-0.8-2.7l-0.9-2.6l-1.1-2.5l-1.2-2.5l-1.3-2.4
							l-1.4-2.3l-1.6-2.2l-1.7-2.1l-1.8-2l-1.9-1.9l-2.1-1.7L115.2-40.8z"/>
					</g>
					<g id="g144" transform="translate(21.9585,207.4341)">
						<path id="path146" inkscape:connector-curvature="0" class="st1" d="M115.2-40.8c9.9-7.8,16.5-22.1,16.5-38.4
							c0-17.6-7.7-32.8-18.8-40.1c0,0,0,0.1,0,0.1l0,0l0,0l0,0l0,0l0,0l0,0l0,0l0,0l0,0v0l0,0.1v0l0,0.1v0c0,0.1,0,0.1,0,0.2v0l0,0
							l0,0.1v0l0,0l0,0v0l0,0v0l0,0l0,0v0l0,0l0,0v0v0v0l0,0.1v0l0,0.1v0v0v0v0v0v0l0,0.1v0v0l0,0.1v0l0,0.1
							c20.9,19.2,22.3,53.1,0.5,77.2H115.2z"/>
					</g>
					<g id="g148" transform="translate(19.106,120.7012)">
						<path id="path150" inkscape:connector-curvature="0" class="st0" d="M115.2-40.8c-0.8-1.4-2-2.5-3.5-3.2
							c-0.8-0.4-1.6-0.6-2.4-0.6c-0.1,0-0.2,0-0.3,0c-0.1,0-0.2,0-0.3,0c-2.1,0-4.1,0.9-5.5,2.5c-2.8,3.1-2.8,8.2,0.4,11
							c2.3,2,5.8,2.8,8.8,2.2c4.3-0.9,8.1-3.8,10.8-7.1l0,0l0.6-0.9l0.6-1l0.5-1l0.5-1L126-41l0.4-1.1l0.4-1.1l0.4-1.1l0.3-1.2
							l0.3-1.2l0.3-1.2l0.3-1.2l0.3-1.2l0.3-1.2l0.3-1.3l0.3-1.3l0.3-1.3l0.3-1.3l0.3-1.3l0.3-1.3l0.4-1.3l0.4-1.3l0.4-1.4l0.4-1.4
							l0.5-1.4l0.5-1.4l0.6-1.4l1.1-2.5l1.2-2.5l1.3-2.5l1.4-2.5l1.5-2.5l1.5-2.4l1.6-2.4l1.8-2.4l1.9-2.3l2-2.3l2.1-2.2l2.2-2.2
							l2.3-2.1l2.5-2l2.6-2l2.8-1.9l2.9-1.8l3.1-1.7l3.2-1.6l3.4-1.5l3.5-1.4l3.7-1.2l3.9-1.1l4.1-1l4.3-0.8l4.4-0.7l4.6-0.5
							l4.8-0.4l5.1-0.2l5.3,0l5.5,0.2l4.7,0.3l-1.5-2.4c-1.2-2-2.8-3.8-4.5-5.3c-8.8-7.7-22.4-8.6-33.4-6.3
							c-27.3,5.5-50.1,26.3-62.8,50.5c-2.6,5-4.6,10.2-6.1,15.6c-1.5,5.5-2.6,11-3.9,16.5c-0.5,2.4-1.2,4.9-1.9,7.2
							C115.7-42.2,115.5-41.5,115.2-40.8"/>
					</g>
					<g id="g152" transform="translate(131.2163,41.0991)">
						<path id="path154" inkscape:connector-curvature="0" class="st1" d="M115.2-40.8c-6.8-11.1-22.1-13.9-36.4-11
							C52.1-46.4,29.7-26.1,17-2C11.5,8.6,9.8,18.2,7.2,29.7c-1.2,5.2-2.6,10.2-4.6,13.1c0,0,0-0.1,0-0.1c0-2.6-1.5-4.9-3.7-5.8
							c-0.6-0.3-1.2-0.5-1.9-0.5c-0.1,0-0.2,0-0.2,0c-0.1,0-0.2,0-0.2,0c-5.6,0-8,7.4-4.1,10.9c1.9,1.7,5,2.4,7.5,1.9
							c3.9-0.8,7.4-3.5,9.9-6.6l0.6-0.8l0.5-0.9l0.5-0.9l0.5-1l0.4-1l0.4-1l0.4-1.1l0.3-1.1l0.3-1.1l0.3-1.1l0.3-1.2l0.3-1.2
							l0.3-1.2l0.3-1.2l0.3-1.3l0.3-1.3l0.3-1.3l0.3-1.3l0.3-1.3l0.3-1.4l0.4-1.4l0.4-1.4l0.4-1.4l0.5-1.4l0.5-1.4l0.5-1.4l0.6-1.4
							l1.1-2.5l1.2-2.5l1.3-2.5l1.4-2.5l1.5-2.5l1.6-2.5l1.7-2.5L32-9.7l1.9-2.4l2-2.3l2.1-2.3l2.3-2.2l2.4-2.2l2.5-2.1l2.7-2
							l2.8-1.9l3-1.8l3.1-1.7l3.3-1.6l3.4-1.5l3.6-1.4l3.8-1.3l4-1.1l4.1-1l4.3-0.8l4.5-0.7l4.7-0.5l4.9-0.4l5.1-0.2l5.3,0l5.5,0.2
							L115.2-40.8z"/>
					</g>
					<g id="g156" transform="translate(18.832,124.5303)">
						<path id="path158" inkscape:connector-curvature="0" class="st3" d="M115.2-40.8c0,0.1,0.1,0.1,0.1,0.2
							c4.4-0.8,7.8-11.4,11.2-25.5c7.7-31.7,42.5-75,87.2-62.2c0.5-1.9,0.9-3.9,1.4-5.8c-7.1-2.6-15.7-2.8-23.9-1.2
							c-26.7,5.4-49.2,25.7-61.8,49.8c-5.6,10.6-7.2,20.3-9.8,31.8C118.5-48.7,117.1-43.8,115.2-40.8 M103-41.2
							c3.2-1.9,7.3-6.6,12,0.2c-0.1-2.5-1.6-4.6-3.7-5.5c-0.6-0.3-1.2-0.5-1.9-0.5c-0.1,0-0.2,0-0.2,0c-0.1,0-0.2,0-0.2,0
							C105.5-47,103.3-44.2,103-41.2"/>
					</g>
					<g id="g160" transform="translate(250.5322,131.3496)">
						<path id="path162" inkscape:connector-curvature="0" class="st0" d="M115.2-40.8c-5.5,5-9.7,11.2-12.4,18.1
							c-3.6,9.1-4.3,19.2-2.4,28.8c2.1,10.6,7.2,20.2,14.4,28.2l2.3,2.6h-10.8l-2.6-3.3L102,31l-1.7-2.6l-1.5-2.7l-1.4-2.8L96.2,20
							l-1.1-2.9l-1-2.9l-0.8-2.9l-0.7-3l-0.5-3l-0.4-3l-0.3-3l-0.1-3l0-3l0.1-2.9l0.3-2.9l0.4-2.9l0.5-2.8l0.7-2.8l0.8-2.7l0.9-2.7
							l1.1-2.6l1.2-2.5l1.3-2.5l1.5-2.4l1.6-2.3l1.8-2.2l1.9-2.1l2-1.9l2.1-1.8l1.5-1.1l0.9,0.5c2,1.2,3.8,2.9,3.6,5.4l-0.1,0.6
							L115.2-40.8z"/>
					</g>
					<g id="g164" transform="translate(246.6689,126.3081)">
						<path id="path166" inkscape:connector-curvature="0" class="st3" d="M115.2-40.8c1.8,1.1,3,2.3,2.8,3.9
							c-20.9,19.2-22.3,53.1-0.5,77.2H111l-2.1-2.7l-1.7-2.5l-1.6-2.6l-1.5-2.6l-1.3-2.7l-1.2-2.8l-1.1-2.8l-0.9-2.8L98.7,16
							l-0.7-2.9l-0.5-2.9l-0.4-2.9l-0.3-2.9l-0.1-2.9l0-2.9l0.1-2.9l0.3-2.8l0.4-2.8l0.5-2.8l0.7-2.7l0.8-2.7l0.9-2.6l1-2.5l1.2-2.5
							l1.3-2.4l1.4-2.3l1.6-2.2l1.7-2.1l1.8-2l1.9-1.9l2.1-1.7L115.2-40.8z"/>
					</g>
					<g id="g168" transform="translate(246.998,207.4341)">
						<path id="path170" inkscape:connector-curvature="0" class="st1" d="M115.2-40.8c-9.9-7.8-16.5-22.1-16.5-38.4
							c0-17.6,7.7-32.8,18.8-40.1c0,0,0,0.1,0,0.1v0l0,0l0,0l0,0l0,0l0,0l0,0l0,0l0,0l0,0l0,0.1l0,0l0,0.1l0,0c0,0.1,0,0.1,0,0.2
							l0,0v0l0,0.1v0l0,0l0,0v0l0,0l0,0l0,0v0v0l0,0l0,0l0,0v0v0l0,0.1v0v0.1v0v0v0v0v0v0l0,0.1v0v0l0,0.1v0l0,0.1
							C96.8-98.9,95.3-65,117.2-40.8H115.2z"/>
					</g>
					<g id="g172" transform="translate(249.8525,120.7012)">
						<path id="path174" inkscape:connector-curvature="0" class="st0" d="M115.2-40.8c0.8-1.4,2-2.5,3.5-3.2
							c0.8-0.4,1.6-0.6,2.4-0.6c0.1,0,0.2,0,0.3,0c0.1,0,0.2,0,0.3,0c2.1,0,4.1,0.9,5.5,2.5c2.8,3.1,2.8,8.2-0.4,11
							c-2.3,2-5.8,2.8-8.8,2.2c-4.3-0.9-8.1-3.8-10.8-7.1l0,0l-0.6-0.9l-0.6-1l-0.5-1l-0.5-1l-0.5-1.1l-0.4-1.1l-0.4-1.1l-0.4-1.1
							l-0.3-1.2l-0.3-1.2l-0.3-1.2l-0.3-1.2l-0.3-1.2l-0.3-1.2l-0.3-1.3L101-54l-0.3-1.3l-0.3-1.3l-0.3-1.3l-0.3-1.3l-0.4-1.3L99-62
							l-0.4-1.4l-0.5-1.4l-0.5-1.4l-0.5-1.4l-0.6-1.4l-1.1-2.5l-1.2-2.5l-1.3-2.5l-1.4-2.5l-1.5-2.5l-1.6-2.4L86.9-86l-1.8-2.4
							l-1.9-2.3l-2-2.3l-2.1-2.2L77-97.5l-2.3-2.1l-2.5-2l-2.6-2l-2.8-1.9l-2.9-1.8l-3.1-1.7l-3.2-1.6l-3.4-1.5l-3.5-1.4l-3.7-1.2
							l-3.9-1.1l-4.1-1l-4.3-0.8l-4.4-0.7l-4.6-0.5l-4.8-0.4l-5.1-0.2l-5.3,0l-5.5,0.2l-4.7,0.3l1.5-2.4c1.2-2,2.7-3.8,4.5-5.3
							c8.8-7.7,22.4-8.6,33.4-6.3c27.3,5.5,50.1,26.3,62.8,50.5c2.6,5,4.6,10.2,6.1,15.6c1.5,5.5,2.6,11,3.9,16.5
							c0.5,2.4,1.2,4.9,1.9,7.2C114.7-42.2,114.9-41.5,115.2-40.8"/>
					</g>
					<g id="g176" transform="translate(137.7427,41.0991)">
						<path id="path178" inkscape:connector-curvature="0" class="st1" d="M115.2-40.8c6.8-11.1,22.1-13.9,36.4-11
							c26.7,5.4,49.1,25.7,61.8,49.8c5.6,10.6,7.2,20.3,9.8,31.8c1.2,5.2,2.6,10.2,4.5,13.1v-0.1c0-2.6,1.5-4.9,3.7-5.8
							c0.6-0.3,1.2-0.5,1.9-0.5c0.1,0,0.2,0,0.2,0c0.1,0,0.2,0,0.2,0c5.6,0,8,7.4,4.1,10.9c-1.9,1.7-5,2.4-7.5,1.9
							c-3.9-0.8-7.4-3.5-9.9-6.6l-0.6-0.8l-0.5-0.9l-0.5-0.9l-0.5-1l-0.4-1l-0.4-1l-0.4-1.1l-0.3-1.1l-0.3-1.1l-0.3-1.1l-0.3-1.2
							l-0.3-1.2l-0.3-1.2l-0.3-1.2l-0.3-1.3l-0.3-1.3l-0.3-1.3l-0.3-1.3l-0.3-1.3l-0.3-1.4l-0.4-1.4l-0.4-1.4l-0.4-1.4l-0.5-1.4
							l-0.5-1.4l-0.5-1.4l-0.6-1.4l-1.1-2.5l-1.2-2.5l-1.3-2.5l-1.4-2.5l-1.5-2.5l-1.6-2.5l-1.7-2.5l-1.8-2.4l-1.9-2.4l-2-2.3
							l-2.1-2.3l-2.3-2.2l-2.4-2.2l-2.5-2.1l-2.7-2l-2.8-1.9l-3-1.8l-3.1-1.7l-3.3-1.6l-3.4-1.5l-3.6-1.4l-3.8-1.3l-4-1.1l-4.1-1
							l-4.3-0.8l-4.5-0.7l-4.7-0.5l-4.9-0.4l-5.1-0.2l-5.3,0l-5.5,0.2L115.2-40.8z"/>
					</g>
					<g id="g180" transform="translate(250.127,124.5303)">
						<path id="path182" inkscape:connector-curvature="0" class="st3" d="M115.2-40.8c0,0.1-0.1,0.1-0.1,0.2
							c-4.4-0.8-7.8-11.4-11.2-25.5c-7.7-31.7-42.5-75-87.2-62.2c-0.5-1.9-0.9-3.9-1.4-5.8c7.1-2.6,15.7-2.8,23.9-1.2
							c26.7,5.4,49.2,25.7,61.8,49.8c5.6,10.6,7.2,20.3,9.8,31.8C111.9-48.7,113.3-43.8,115.2-40.8 M127.4-41.2
							c-3.2-1.9-7.3-6.6-12,0.2c0.1-2.5,1.6-4.6,3.7-5.5c0.6-0.3,1.2-0.5,1.9-0.5c0.1,0,0.2,0,0.2,0c0.1,0,0.2,0,0.2,0
							C124.9-47,127.1-44.2,127.4-41.2"/>
					</g>
					<g id="g184" transform="translate(121.2158,252.9404)">
						<path id="path186" inkscape:connector-curvature="0" class="st0" d="M115.2-40.8c-2.3-2.1-5.3-3.6-8.4-4.2
							c-2.4-0.4-6.1-0.3-7.4,2.2c-0.2,0.3-0.3,0.6-0.3,0.9c-0.6-0.5-1.3-1-2-1.5c-0.5-0.3-1.1-0.6-1.6-0.8c-5.4-2-11.2-1.3-16.1,1.8
							l-0.7,0.4c-4.2-1.6-8.7-2.6-13.2-2.4c-4.4,0.2-8.6,1.5-12.4,3.8l-0.3,0.2c-4.1-1.1-8.2-2-12.4-2.6c-6-0.9-12-1.2-18-0.5
							c-4.8,0.6-9.4,1.7-13.9,3.2l-4.6,1.5l4.7,1.3c7.1,1.9,14.2,3.8,21.4,5.7c25.4,6.7,50.9,13.5,75.7,22.1l0.9,0.3l0.7-0.7
							c1.2-1.3,2.4-2.7,3.5-4l0.5-0.5l-0.1-0.7c-0.7-4.6-0.5-9.4,1.7-13.6c1.7-3.3,4.5-5.9,7.9-7.4c2.5-1.2,5.3-1.7,8.1-1.7
							c2.8,0,5.6,0.6,8.1,1.7c3.4,1.6,6.2,4.1,7.9,7.4c2.2,4.2,2.4,9,1.7,13.6l-0.1,0.7l0.5,0.5c1.2,1.3,2.4,2.7,3.5,4l0.7,0.7
							l0.9-0.3c24.9-8.7,50.3-15.4,75.7-22.1c7.1-1.9,14.2-3.8,21.4-5.7l4.7-1.3l-4.6-1.5c-4.5-1.5-9.2-2.7-13.9-3.2
							c-6-0.7-12.1-0.4-18,0.5c-4.2,0.6-8.3,1.5-12.4,2.6l-0.3-0.2c-3.8-2.3-8-3.6-12.4-3.8c-4.7-0.2-9.3,0.8-13.6,2.5L178-42
							c-4.8-3-10.7-4-16.1-2.1c-0.6,0.2-1.1,0.5-1.6,0.8c-0.7,0.4-1.4,0.9-2,1.5c-0.1-0.3-0.2-0.6-0.3-0.9c-1.3-2.5-5-2.6-7.4-2.2
							c-3.1,0.5-6.1,2.1-8.4,4.2C134.3-46.1,123.1-46.1,115.2-40.8"/>
					</g>
					<g id="g188" transform="translate(14.8442,254.8398)">
						<path id="path190" inkscape:connector-curvature="0" class="st1" d="M115.2-40.8c32.4,8.8,64.8,16.6,97.2,27.9
							c1.2-1.3,2.4-2.7,3.5-4c-5.3-32.7,43.5-32.7,38.3,0c1.2,1.3,2.4,2.7,3.5,4c32.4-11.3,64.8-19.1,97.2-27.9
							c-16.7-5.5-36.8-8-89.9,18.9c13-7.4,28.6-13.7,45-19.3c-15.3-9-31.9,0.3-47.2,13.9c5.7-5.9,13.1-10.8,20.7-15.3
							c-4.7-3-10.1-3.7-14.8-1.9c-4.2,1.5-6,6.1-12.5,9.1c16-10.3,0.4-13.7-7.7-5.2c-7.7-5.9-19.6-5.9-27.2,0
							c-8.1-8.5-23.6-5.1-7.7,5.2c-6.4-3-8.3-7.6-12.5-9.1c-4.7-1.7-10.1-1.4-14.8,1.6c7.7,4.6,15,9.8,20.7,15.7
							c-15.3-13.6-31.9-22.9-47.2-13.9c16.4,5.6,32,11.9,45,19.3C152-48.8,131.9-46.3,115.2-40.8"/>
					</g>
					<g id="g192" transform="translate(106.2754,280.7217)">
						<path id="path194" inkscape:connector-curvature="0" class="st3" d="M115.2-40.8v-2.4C87.5-57.3,57.8-64.9,29.6-68.4
							C39.9-71,52.5-71.6,73.1-65c7.4,2.4,14.8,5.3,22.3,8.5c6.9,3,13.3,6.2,20,9.7l0.1-0.1c0.1-1.3,0.3-2.5,0.5-3.7
							c-11.6-8.5-26.5-15-41.4-19.1c1.5-0.4,3-0.7,4.5-0.9c12.2-1.2,24.9,6.8,36.7,17.3c-0.2-0.2-0.4-0.4-0.6-0.6
							c0.4,0.4,0.8,0.7,1.3,1.1c0.5-1.9,1.2-3.7,2-5.4c-3.3-5.1-12.2-10.2-19-12.7c3.5-1,7.1-0.8,10.4,0.4c3.8,1.4,5.7,5.4,11,8.3
							l0,0c0.5,0.3,0.9,0.5,1.5,0.7c-0.5-0.3-0.9-0.6-1.3-0.9c0.9-1.3,2-2.5,3.1-3.5c-1.5-1.8-4.1-3.8-6.1-5.4c1.9-0.2,4.3,0,6.7,1
							c1.9,0.8,3.8,2,5.4,3.7c1.2-0.9,2.5-1.7,3.9-2.4l1.4,3.4c-5.6,2.4-10,7.3-11,14.8c0,0.2-0.1,0.4-0.1,0.6c0,0.1,0,0.3,0,0.4
							c0,0.3-0.1,0.7-0.1,1l0,0.2c0,0.4,0,0.8,0,1.2v0c0,1.4,0.1,2.8,0.4,4.4l-3.5,4C119-39.5,117.1-40.2,115.2-40.8"/>
					</g>
					<g id="g196" transform="translate(163.1348,280.7217)">
						<path id="path198" inkscape:connector-curvature="0" class="st3" d="M115.2-40.8l0-2.4c27.7-14.1,57.4-21.6,85.6-25.1
							c-10.3-2.6-22.9-3.2-43.5,3.3c-7.4,2.4-14.8,5.3-22.3,8.5c-6.9,3-13.3,6.2-20,9.7l-0.1-0.1c-0.1-1.3-0.3-2.5-0.5-3.7
							c11.6-8.5,26.5-15,41.4-19.1c-1.5-0.4-3-0.7-4.5-0.9c-12.2-1.2-24.9,6.8-36.7,17.3c0.2-0.2,0.4-0.4,0.6-0.6
							c-0.4,0.4-0.8,0.7-1.3,1.1c-0.5-1.9-1.2-3.7-2-5.4c3.3-5.1,12.2-10.2,19-12.7c-3.5-1-7.1-0.8-10.4,0.4
							c-3.8,1.4-5.7,5.4-11,8.3l0,0c-0.5,0.3-0.9,0.5-1.5,0.7c0.5-0.3,0.9-0.6,1.3-0.9c-0.9-1.3-2-2.5-3.1-3.5
							c1.5-1.8,4.1-3.8,6.1-5.4c-1.9-0.2-4.3,0-6.7,1c-1.9,0.8-3.8,2-5.4,3.7c-1.2-0.9-2.5-1.7-3.9-2.4l-1.4,3.4
							c5.6,2.4,10,7.3,11,14.8c0,0.2,0.1,0.4,0.1,0.6c0,0.1,0,0.3,0,0.4c0,0.3,0.1,0.7,0.1,1l0,0.2c0,0.4,0,0.8,0,1.2v0
							c0,1.4-0.1,2.8-0.4,4.4l3.5,4C111.4-39.5,113.3-40.2,115.2-40.8"/>
					</g>
					<g id="g200" transform="translate(134.6987,252.5791)">
						<path id="path202" inkscape:connector-curvature="0" class="st5" d="M115.2-40.8c11.9,0,21.6,9.7,21.6,21.6
							c0,11.9-9.7,21.6-21.6,21.6c-11.9,0-21.6-9.7-21.6-21.6C93.6-31.1,103.3-40.8,115.2-40.8"/>
					</g>
					<g id="g204" transform="translate(134.6987,248.3149)">
						<path id="path206" inkscape:connector-curvature="0" class="st0" d="M115.2-40.8c-14.3,0-25.8,11.6-25.8,25.8
							c0,14.3,11.6,25.8,25.8,25.8V5.6c-11.4,0-20.6-9.2-20.6-20.6s9.2-20.6,20.6-20.6V-40.8z M115.2,10.9
							C129.5,10.9,141-0.7,141-15c0-14.3-11.6-25.8-25.8-25.8v5.3c11.4,0,20.6,9.2,20.6,20.6s-9.2,20.6-20.6,20.6V10.9z"/>
					</g>
					<g id="g208" transform="translate(134.6987,249.8687)">
						<path id="path210" inkscape:connector-curvature="0" class="st8" d="M115.2-40.8c-13.4,0-24.3,10.9-24.3,24.3
							c0,13.4,10.9,24.3,24.3,24.3V5.6c-12.2,0-22.1-9.9-22.1-22.1c0-12.2,9.9-22.1,22.1-22.1V-40.8z M115.2,7.8
							c13.4,0,24.3-10.9,24.3-24.3c0-13.4-10.9-24.3-24.3-24.3v2.2c12.2,0,22.1,9.9,22.1,22.1c0,12.2-9.9,22.1-22.1,22.1V7.8z"/>
					</g>
					<path id="path212" inkscape:connector-curvature="0" class="st8" d="M137.1,204.9h225.9v-32.5H137.1V204.9z"/>
					<g id="g214" transform="translate(14.6787,252.978)">
						<path id="path216" inkscape:connector-curvature="0" class="st0" d="M115.2-40.8h120.1v-9H124.1v-29.1h111.2v-9H115.2V-40.8z
							 M235.3-40.8h120.1v-47.1H235.3v9h111.2v29.1H235.3V-40.8z"/>
					</g>
					<g id="g218" transform="translate(15.6792,251.9795)">
						<path id="path220" inkscape:connector-curvature="0" class="st0" d="M115.2-40.8h119.1v-7H122.1v-31.1h112.2v-7H115.2V-40.8z
							 M234.3-40.8h119.1v-45.1H234.3v7h112.2v31.1H234.3V-40.8z"/>
					</g>
					<g id="g222" transform="translate(16.8433,250.8135)">
						<path id="path224" inkscape:connector-curvature="0" class="st3" d="M115.2-40.8h117.9v-4.7H119.8v-33.4h113.4v-4.7H115.2
							V-40.8z M233.1-40.8h117.9v-42.8H233.1v4.7h113.4v33.4H233.1V-40.8z"/>
					</g>
					<g id="g226" transform="translate(202.5151,184.7378)">
						<path id="path228" inkscape:connector-curvature="0" class="st0" d="M115.2-40.8l4.4-7.3h8.6L115.2-40.8z"/>
					</g>
					<g id="g230" transform="translate(206.9014,177.4468)">
						<path id="path232" inkscape:connector-curvature="0" class="st0" d="M115.2-40.8l-4.4,7.3v-14L115.2-40.8z"/>
					</g>
					<g id="g234" transform="translate(202.5151,184.7378)">
						<path id="path236" inkscape:connector-curvature="0" class="st0" d="M115.2-40.8h8.9l4.1,7.6L115.2-40.8z"/>
					</g>
					<g id="g238" transform="translate(211.4219,184.7378)">
						<path id="path240" inkscape:connector-curvature="0" class="st0" d="M115.2-40.8h-8.9l13-7.3L115.2-40.8z"/>
					</g>
					<g id="g242" transform="translate(202.5151,184.7378)">
						<path id="path244" inkscape:connector-curvature="0" class="st0" d="M115.2-40.8h-8.6l-4.4-7.3L115.2-40.8z"/>
					</g>
					<g id="g246" transform="translate(193.8677,184.7378)">
						<path id="path248" inkscape:connector-curvature="0" class="st0" d="M115.2-40.8h8.6l-13,7.6L115.2-40.8z"/>
					</g>
					<g id="g250" transform="translate(202.5151,184.7378)">
						<path id="path252" inkscape:connector-curvature="0" class="st0" d="M115.2-40.8l-4.1-7.3l4.1-6.7V-40.8z"/>
					</g>
					<g id="g254" transform="translate(198.3857,177.4468)">
						<path id="path256" inkscape:connector-curvature="0" class="st0" d="M115.2-40.8l4.1,7.3l-13-7.3H115.2z"/>
					</g>
					<g id="g258" transform="translate(202.5151,184.7378)">
						<path id="path260" inkscape:connector-curvature="0" class="st0" d="M115.2-40.8l-4.1,7.6h-8.9L115.2-40.8z"/>
					</g>
					<g id="g262" transform="translate(198.3857,192.3599)">
						<path id="path264" inkscape:connector-curvature="0" class="st0" d="M115.2-40.8l4.1-7.6v14.7L115.2-40.8z"/>
					</g>
					<g id="g266" transform="translate(202.5151,184.7378)">
						<path id="path268" inkscape:connector-curvature="0" class="st0" d="M115.2-40.8l4.4,7.6l-4.4,7.1V-40.8z"/>
					</g>
					<g id="g270" transform="translate(206.9014,192.3599)">
						<path id="path272" inkscape:connector-curvature="0" class="st0" d="M115.2-40.8l-4.4-7.6l13,7.6H115.2z"/>
					</g>
					<g id="g274" transform="translate(201.7798,185.4736)">
						<path id="path276" inkscape:connector-curvature="0" class="st3" d="M115.2-40.8l4.4-7.3h8.6L115.2-40.8z"/>
					</g>
					<g id="g278" transform="translate(206.167,178.1812)">
						<path id="path280" inkscape:connector-curvature="0" class="st3" d="M115.2-40.8l-4.4,7.3v-14L115.2-40.8z"/>
					</g>
					<g id="g282" transform="translate(201.7798,185.4736)">
						<path id="path284" inkscape:connector-curvature="0" class="st3" d="M115.2-40.8h8.9l4.1,7.6L115.2-40.8z"/>
					</g>
					<g id="g286" transform="translate(210.6875,185.4736)">
						<path id="path288" inkscape:connector-curvature="0" class="st1" d="M115.2-40.8h-8.9l13-7.3L115.2-40.8z"/>
					</g>
					<g id="g290" transform="translate(201.7798,185.4736)">
						<path id="path292" inkscape:connector-curvature="0" class="st1" d="M115.2-40.8h-8.6l-4.4-7.3L115.2-40.8z"/>
					</g>
					<g id="g294" transform="translate(193.1318,185.4736)">
						<path id="path296" inkscape:connector-curvature="0" class="st3" d="M115.2-40.8h8.6l-13,7.6L115.2-40.8z"/>
					</g>
					<g id="g298" transform="translate(201.7798,185.4736)">
						<path id="path300" inkscape:connector-curvature="0" class="st1" d="M115.2-40.8l-4.1-7.3l4.1-6.8V-40.8z"/>
					</g>
					<g id="g302" transform="translate(197.6514,178.1812)">
						<path id="path304" inkscape:connector-curvature="0" class="st3" d="M115.2-40.8l4.1,7.3l-13-7.3H115.2z"/>
					</g>
					<g id="g306" transform="translate(201.7798,185.4736)">
						<path id="path308" inkscape:connector-curvature="0" class="st1" d="M115.2-40.8l-4.1,7.6h-8.9L115.2-40.8z"/>
					</g>
					<g id="g310" transform="translate(197.6514,193.0942)">
						<path id="path312" inkscape:connector-curvature="0" class="st1" d="M115.2-40.8l4.1-7.6v14.7L115.2-40.8z"/>
					</g>
					<g id="g314" transform="translate(201.7798,185.4736)">
						<path id="path316" inkscape:connector-curvature="0" class="st3" d="M115.2-40.8l4.4,7.6l-4.4,7.1V-40.8z"/>
					</g>
					<g id="g318" transform="translate(206.167,193.0942)">
						<path id="path320" inkscape:connector-curvature="0" class="st1" d="M115.2-40.8l-4.4-7.6l13,7.6H115.2z"/>
					</g>
					<g id="g322" transform="translate(202.5151,149.1865)">
						<path id="path324" inkscape:connector-curvature="0" class="st0" d="M115.2-40.8l4.4-7.3h8.6L115.2-40.8z"/>
					</g>
					<g id="g326" transform="translate(206.9014,141.8955)">
						<path id="path328" inkscape:connector-curvature="0" class="st0" d="M115.2-40.8l-4.4,7.3v-14L115.2-40.8z"/>
					</g>
					<g id="g330" transform="translate(202.5151,149.1865)">
						<path id="path332" inkscape:connector-curvature="0" class="st0" d="M115.2-40.8h8.9l4.1,7.6L115.2-40.8z"/>
					</g>
					<g id="g334" transform="translate(211.4219,149.1865)">
						<path id="path336" inkscape:connector-curvature="0" class="st0" d="M115.2-40.8h-8.9l13-7.3L115.2-40.8z"/>
					</g>
					<g id="g338" transform="translate(202.5151,149.1865)">
						<path id="path340" inkscape:connector-curvature="0" class="st0" d="M115.2-40.8h-8.6l-4.4-7.3L115.2-40.8z"/>
					</g>
					<g id="g342" transform="translate(193.8677,149.1865)">
						<path id="path344" inkscape:connector-curvature="0" class="st0" d="M115.2-40.8h8.6l-13,7.6L115.2-40.8z"/>
					</g>
					<g id="g346" transform="translate(202.5151,149.1865)">
						<path id="path348" inkscape:connector-curvature="0" class="st0" d="M115.2-40.8l-4.1-7.3l4.1-6.7V-40.8z"/>
					</g>
					<g id="g350" transform="translate(198.3857,141.8955)">
						<path id="path352" inkscape:connector-curvature="0" class="st0" d="M115.2-40.8l4.1,7.3l-13-7.3H115.2z"/>
					</g>
					<g id="g354" transform="translate(202.5151,149.1865)">
						<path id="path356" inkscape:connector-curvature="0" class="st0" d="M115.2-40.8l-4.1,7.6h-8.9L115.2-40.8z"/>
					</g>
					<g id="g358" transform="translate(198.3857,156.8086)">
						<path id="path360" inkscape:connector-curvature="0" class="st0" d="M115.2-40.8l4.1-7.6v14.7L115.2-40.8z"/>
					</g>
					<g id="g362" transform="translate(202.5151,149.1865)">
						<path id="path364" inkscape:connector-curvature="0" class="st0" d="M115.2-40.8l4.4,7.6l-4.4,7.1V-40.8z"/>
					</g>
					<g id="g366" transform="translate(206.9014,156.8086)">
						<path id="path368" inkscape:connector-curvature="0" class="st0" d="M115.2-40.8l-4.4-7.6l13,7.6H115.2z"/>
					</g>
					<g id="g370" transform="translate(201.7798,149.9209)">
						<path id="path372" inkscape:connector-curvature="0" class="st3" d="M115.2-40.8l4.4-7.3h8.6L115.2-40.8z"/>
					</g>
					<g id="g374" transform="translate(206.167,142.6299)">
						<path id="path376" inkscape:connector-curvature="0" class="st3" d="M115.2-40.8l-4.4,7.3v-14L115.2-40.8z"/>
					</g>
					<g id="g378" transform="translate(201.7798,149.9209)">
						<path id="path380" inkscape:connector-curvature="0" class="st3" d="M115.2-40.8h8.9l4.1,7.6L115.2-40.8z"/>
					</g>
					<g id="g382" transform="translate(210.6875,149.9209)">
						<path id="path384" inkscape:connector-curvature="0" class="st1" d="M115.2-40.8h-8.9l13-7.3L115.2-40.8z"/>
					</g>
					<g id="g386" transform="translate(201.7798,149.9209)">
						<path id="path388" inkscape:connector-curvature="0" class="st1" d="M115.2-40.8h-8.6l-4.4-7.3L115.2-40.8z"/>
					</g>
					<g id="g390" transform="translate(193.1318,149.9209)">
						<path id="path392" inkscape:connector-curvature="0" class="st3" d="M115.2-40.8h8.6l-13,7.6L115.2-40.8z"/>
					</g>
					<g id="g394" transform="translate(201.7798,149.9209)">
						<path id="path396" inkscape:connector-curvature="0" class="st1" d="M115.2-40.8l-4.1-7.3l4.1-6.7V-40.8z"/>
					</g>
					<g id="g398" transform="translate(197.6514,142.6299)">
						<path id="path400" inkscape:connector-curvature="0" class="st3" d="M115.2-40.8l4.1,7.3l-13-7.3H115.2z"/>
					</g>
					<g id="g402" transform="translate(201.7798,149.9209)">
						<path id="path404" inkscape:connector-curvature="0" class="st1" d="M115.2-40.8l-4.1,7.6h-8.9L115.2-40.8z"/>
					</g>
					<g id="g406" transform="translate(197.6514,157.5439)">
						<path id="path408" inkscape:connector-curvature="0" class="st1" d="M115.2-40.8l4.1-7.6v14.7L115.2-40.8z"/>
					</g>
					<g id="g410" transform="translate(201.7798,149.9209)">
						<path id="path412" inkscape:connector-curvature="0" class="st3" d="M115.2-40.8l4.4,7.6l-4.4,7.1V-40.8z"/>
					</g>
					<g id="g414" transform="translate(206.167,157.5439)">
						<path id="path416" inkscape:connector-curvature="0" class="st1" d="M115.2-40.8l-4.4-7.6l13,7.6H115.2z"/>
					</g>
					<g id="g418" transform="translate(202.5151,113.6353)">
						<path id="path420" inkscape:connector-curvature="0" class="st0" d="M115.2-40.8l4.4-7.3h8.6L115.2-40.8z"/>
					</g>
					<g id="g422" transform="translate(206.9014,106.3442)">
						<path id="path424" inkscape:connector-curvature="0" class="st0" d="M115.2-40.8l-4.4,7.3v-14L115.2-40.8z"/>
					</g>
					<g id="g426" transform="translate(202.5151,113.6353)">
						<path id="path428" inkscape:connector-curvature="0" class="st0" d="M115.2-40.8h8.9l4.1,7.6L115.2-40.8z"/>
					</g>
					<g id="g430" transform="translate(211.4219,113.6353)">
						<path id="path432" inkscape:connector-curvature="0" class="st0" d="M115.2-40.8h-8.9l13-7.3L115.2-40.8z"/>
					</g>
					<g id="g434" transform="translate(202.5151,113.6353)">
						<path id="path436" inkscape:connector-curvature="0" class="st0" d="M115.2-40.8h-8.6l-4.4-7.3L115.2-40.8z"/>
					</g>
					<g id="g438" transform="translate(193.8677,113.6353)">
						<path id="path440" inkscape:connector-curvature="0" class="st0" d="M115.2-40.8h8.6l-13,7.6L115.2-40.8z"/>
					</g>
					<g id="g442" transform="translate(202.5151,113.6353)">
						<path id="path444" inkscape:connector-curvature="0" class="st0" d="M115.2-40.8l-4.1-7.3l4.1-6.7V-40.8z"/>
					</g>
					<g id="g446" transform="translate(198.3857,106.3442)">
						<path id="path448" inkscape:connector-curvature="0" class="st0" d="M115.2-40.8l4.1,7.3l-13-7.3H115.2z"/>
					</g>
					<g id="g450" transform="translate(202.5151,113.6353)">
						<path id="path452" inkscape:connector-curvature="0" class="st0" d="M115.2-40.8l-4.1,7.6h-8.9L115.2-40.8z"/>
					</g>
					<g id="g454" transform="translate(198.3857,121.2573)">
						<path id="path456" inkscape:connector-curvature="0" class="st0" d="M115.2-40.8l4.1-7.6v14.7L115.2-40.8z"/>
					</g>
					<g id="g458" transform="translate(202.5151,113.6353)">
						<path id="path460" inkscape:connector-curvature="0" class="st0" d="M115.2-40.8l4.4,7.6l-4.4,7.1V-40.8z"/>
					</g>
					<g id="g462" transform="translate(206.9014,121.2573)">
						<path id="path464" inkscape:connector-curvature="0" class="st0" d="M115.2-40.8l-4.4-7.6l13,7.6H115.2z"/>
					</g>
					<g id="g466" transform="translate(201.7798,114.3711)">
						<path id="path468" inkscape:connector-curvature="0" class="st3" d="M115.2-40.8l4.4-7.3h8.6L115.2-40.8z"/>
					</g>
					<g id="g470" transform="translate(206.167,107.0786)">
						<path id="path472" inkscape:connector-curvature="0" class="st3" d="M115.2-40.8l-4.4,7.3v-14L115.2-40.8z"/>
					</g>
					<g id="g474" transform="translate(201.7798,114.3711)">
						<path id="path476" inkscape:connector-curvature="0" class="st3" d="M115.2-40.8h8.9l4.1,7.6L115.2-40.8z"/>
					</g>
					<g id="g478" transform="translate(210.6875,114.3711)">
						<path id="path480" inkscape:connector-curvature="0" class="st1" d="M115.2-40.8h-8.9l13-7.3L115.2-40.8z"/>
					</g>
					<g id="g482" transform="translate(201.7798,114.3711)">
						<path id="path484" inkscape:connector-curvature="0" class="st1" d="M115.2-40.8h-8.6l-4.4-7.3L115.2-40.8z"/>
					</g>
					<g id="g486" transform="translate(193.1318,114.3711)">
						<path id="path488" inkscape:connector-curvature="0" class="st3" d="M115.2-40.8h8.6l-13,7.6L115.2-40.8z"/>
					</g>
					<g id="g490" transform="translate(201.7798,114.3711)">
						<path id="path492" inkscape:connector-curvature="0" class="st1" d="M115.2-40.8l-4.1-7.3l4.1-6.7V-40.8z"/>
					</g>
					<g id="g494" transform="translate(197.6514,107.0786)">
						<path id="path496" inkscape:connector-curvature="0" class="st3" d="M115.2-40.8l4.1,7.3l-13-7.3H115.2z"/>
					</g>
					<g id="g498" transform="translate(201.7798,114.3711)">
						<path id="path500" inkscape:connector-curvature="0" class="st1" d="M115.2-40.8l-4.1,7.6h-8.9L115.2-40.8z"/>
					</g>
					<g id="g502" transform="translate(197.6514,121.9917)">
						<path id="path504" inkscape:connector-curvature="0" class="st1" d="M115.2-40.8l4.1-7.6v14.7L115.2-40.8z"/>
					</g>
					<g id="g506" transform="translate(201.7798,114.3711)">
						<path id="path508" inkscape:connector-curvature="0" class="st3" d="M115.2-40.8l4.4,7.6l-4.4,7.1V-40.8z"/>
					</g>
					<g id="g510" transform="translate(206.167,121.9917)">
						<path id="path512" inkscape:connector-curvature="0" class="st1" d="M115.2-40.8l-4.4-7.6l13,7.6H115.2z"/>
					</g>
					<g id="g514" transform="translate(202.5151,78.084)">
						<path id="path516" inkscape:connector-curvature="0" class="st0" d="M115.2-40.8l4.4-7.3h8.6L115.2-40.8z"/>
					</g>
					<g id="g518" transform="translate(206.9014,70.793)">
						<path id="path520" inkscape:connector-curvature="0" class="st0" d="M115.2-40.8l-4.4,7.3v-14L115.2-40.8z"/>
					</g>
					<g id="g522" transform="translate(202.5151,78.084)">
						<path id="path524" inkscape:connector-curvature="0" class="st0" d="M115.2-40.8h8.9l4.1,7.6L115.2-40.8z"/>
					</g>
					<g id="g526" transform="translate(211.4219,78.084)">
						<path id="path528" inkscape:connector-curvature="0" class="st0" d="M115.2-40.8h-8.9l13-7.3L115.2-40.8z"/>
					</g>
					<g id="g530" transform="translate(202.5151,78.084)">
						<path id="path532" inkscape:connector-curvature="0" class="st0" d="M115.2-40.8h-8.6l-4.4-7.3L115.2-40.8z"/>
					</g>
					<g id="g534" transform="translate(193.8677,78.084)">
						<path id="path536" inkscape:connector-curvature="0" class="st0" d="M115.2-40.8h8.6l-13,7.6L115.2-40.8z"/>
					</g>
					<g id="g538" transform="translate(202.5151,78.084)">
						<path id="path540" inkscape:connector-curvature="0" class="st0" d="M115.2-40.8l-4.1-7.3l4.1-6.8V-40.8z"/>
					</g>
					<g id="g542" transform="translate(198.3857,70.793)">
						<path id="path544" inkscape:connector-curvature="0" class="st0" d="M115.2-40.8l4.1,7.3l-13-7.3H115.2z"/>
					</g>
					<g id="g546" transform="translate(202.5151,78.084)">
						<path id="path548" inkscape:connector-curvature="0" class="st0" d="M115.2-40.8l-4.1,7.6h-8.9L115.2-40.8z"/>
					</g>
					<g id="g550" transform="translate(198.3857,85.7061)">
						<path id="path552" inkscape:connector-curvature="0" class="st0" d="M115.2-40.8l4.1-7.6v14.7L115.2-40.8z"/>
					</g>
					<g id="g554" transform="translate(202.5151,78.084)">
						<path id="path556" inkscape:connector-curvature="0" class="st0" d="M115.2-40.8l4.4,7.6l-4.4,7.1V-40.8z"/>
					</g>
					<g id="g558" transform="translate(206.9014,85.7061)">
						<path id="path560" inkscape:connector-curvature="0" class="st0" d="M115.2-40.8l-4.4-7.6l13,7.6H115.2z"/>
					</g>
					<g id="g562" transform="translate(201.7798,78.8193)">
						<path id="path564" inkscape:connector-curvature="0" class="st3" d="M115.2-40.8l4.4-7.3h8.6L115.2-40.8z"/>
					</g>
					<g id="g566" transform="translate(206.167,71.5283)">
						<path id="path568" inkscape:connector-curvature="0" class="st3" d="M115.2-40.8l-4.4,7.3v-14L115.2-40.8z"/>
					</g>
					<g id="g570" transform="translate(201.7798,78.8193)">
						<path id="path572" inkscape:connector-curvature="0" class="st3" d="M115.2-40.8h8.9l4.1,7.6L115.2-40.8z"/>
					</g>
					<g id="g574" transform="translate(210.6875,78.8193)">
						<path id="path576" inkscape:connector-curvature="0" class="st1" d="M115.2-40.8h-8.9l13-7.3L115.2-40.8z"/>
					</g>
					<g id="g578" transform="translate(201.7798,78.8193)">
						<path id="path580" inkscape:connector-curvature="0" class="st1" d="M115.2-40.8h-8.6l-4.4-7.3L115.2-40.8z"/>
					</g>
					<g id="g582" transform="translate(193.1318,78.8193)">
						<path id="path584" inkscape:connector-curvature="0" class="st3" d="M115.2-40.8h8.6l-13,7.6L115.2-40.8z"/>
					</g>
					<g id="g586" transform="translate(201.7798,78.8193)">
						<path id="path588" inkscape:connector-curvature="0" class="st1" d="M115.2-40.8l-4.1-7.3l4.1-6.7V-40.8z"/>
					</g>
					<g id="g590" transform="translate(197.6514,71.5283)">
						<path id="path592" inkscape:connector-curvature="0" class="st3" d="M115.2-40.8l4.1,7.3l-13-7.3H115.2z"/>
					</g>
					<g id="g594" transform="translate(201.7798,78.8193)">
						<path id="path596" inkscape:connector-curvature="0" class="st1" d="M115.2-40.8l-4.1,7.6h-8.9L115.2-40.8z"/>
					</g>
					<g id="g598" transform="translate(197.6514,86.4414)">
						<path id="path600" inkscape:connector-curvature="0" class="st1" d="M115.2-40.8l4.1-7.6v14.7L115.2-40.8z"/>
					</g>
					<g id="g602" transform="translate(201.7798,78.8193)">
						<path id="path604" inkscape:connector-curvature="0" class="st3" d="M115.2-40.8l4.4,7.6l-4.4,7.1V-40.8z"/>
					</g>
					<g id="g606" transform="translate(206.167,86.4414)">
						<path id="path608" inkscape:connector-curvature="0" class="st1" d="M115.2-40.8l-4.4-7.6l13,7.6H115.2z"/>
					</g>
					<g id="g610" transform="translate(108.355,76.5679)">
						<path id="path612" inkscape:connector-curvature="0" class="st0" d="M115.2-40.8c-19.9,14.5-24.4,42.3-10,62.2
							c14.4,19.9,42.3,24.2,62.2,9.7c19.9-14.5,24.4-42.3,10-62.2C163-50.9,135.1-55.3,115.2-40.8"/>
					</g>
					<g id="g614" transform="translate(108.355,76.5679)">
						<path id="path616" inkscape:connector-curvature="0" class="st11" d="M115.2-40.8c-19.9,14.5-24.4,42.3-10,62.2
							c14.4,19.9,42.3,24.2,62.2,9.7c19.9-14.5,24.4-42.3,10-62.2C163-50.9,135.1-55.3,115.2-40.8z"/>
					</g>
					<g id="g618" transform="translate(121.4834,69.9932)">
						<path id="path620" inkscape:connector-curvature="0" class="st0" d="M115.2-40.8l4.6,2.1l-8.3,17.5l-19.2,2.4l-0.6-5
							c2.8-3.9,6.2-7.5,10.3-10.5C106.2-37.2,110.6-39.4,115.2-40.8"/>
					</g>
					<g id="g622" transform="translate(121.4834,69.9932)">
						<path id="path624" inkscape:connector-curvature="0" class="st11" d="M115.2-40.8l4.6,2.1l-8.3,17.5l-19.2,2.4l-0.6-5
							c2.8-3.9,6.2-7.5,10.3-10.5C106.2-37.2,110.6-39.4,115.2-40.8z"/>
					</g>
					<g id="g626" transform="translate(119.8774,154.752)">
						<path id="path628" inkscape:connector-curvature="0" class="st0" d="M115.2-40.8l-2.5-4.4l17-9.3l16.9,9.3l-2.5,4.4
							c-4.5,1.6-9.4,2.4-14.5,2.4C124.6-38.4,119.7-39.3,115.2-40.8"/>
					</g>
					<g id="g630" transform="translate(119.8774,154.752)">
						<path id="path632" inkscape:connector-curvature="0" class="st11" d="M115.2-40.8l-2.5-4.4l17-9.3l16.9,9.3l-2.5,4.4
							c-4.5,1.6-9.4,2.4-14.5,2.4C124.6-38.4,119.7-39.3,115.2-40.8z"/>
					</g>
					<g id="g634" transform="translate(89.8867,111.7441)">
						<path id="path636" inkscape:connector-curvature="0" class="st0" d="M115.2-40.8l3.5-3.7l14.1,13.2l-3.7,19l-5-1
							c-2.9-3.8-5.2-8.2-6.7-13C115.8-31.1,115.1-36,115.2-40.8"/>
					</g>
					<g id="g638" transform="translate(89.8867,111.7441)">
						<path id="path640" inkscape:connector-curvature="0" class="st11" d="M115.2-40.8l3.5-3.7l14.1,13.2l-3.7,19l-5-1
							c-2.9-3.8-5.2-8.2-6.7-13C115.8-31.1,115.1-36,115.2-40.8z"/>
					</g>
					<g id="g642" transform="translate(179.0757,111.7417)">
						<path id="path644" inkscape:connector-curvature="0" class="st0" d="M115.2-40.8l-3.5-3.7L97.6-31.3l3.6,19l5-1
							c2.9-3.8,5.2-8.2,6.8-13C114.6-31.1,115.3-36,115.2-40.8"/>
					</g>
					<g id="g646" transform="translate(179.0757,111.7417)">
						<path id="path648" inkscape:connector-curvature="0" class="st11" d="M115.2-40.8l-3.5-3.7L97.6-31.3l3.6,19l5-1
							c2.9-3.8,5.2-8.2,6.8-13C114.6-31.1,115.3-36,115.2-40.8z"/>
					</g>
					<g id="g650" transform="translate(147.4395,69.9297)">
						<path id="path652" inkscape:connector-curvature="0" class="st0" d="M115.2-40.8l-4.6,2.1l8.2,17.5l19.2,2.4l0.6-5
							c-2.7-3.9-6.2-7.5-10.3-10.4C124.2-37.2,119.8-39.4,115.2-40.8"/>
					</g>
					<g id="g654" transform="translate(147.4395,69.9297)">
						<path id="path656" inkscape:connector-curvature="0" class="st11" d="M115.2-40.8l-4.6,2.1l8.2,17.5l19.2,2.4l0.6-5
							c-2.7-3.9-6.2-7.5-10.3-10.4C124.2-37.2,119.8-39.4,115.2-40.8z"/>
					</g>
					<g id="g658" transform="translate(123.8755,97.9302)">
						<path id="path660" inkscape:connector-curvature="0" class="st0" d="M115.2-40.8l-3.4,10.3l-3.4,10.3l8.7,6.3l8.7,6.3l8.8-6.4
							l8.8-6.4l-3.3-10.3l-3.3-10.3l-10.8,0L115.2-40.8z"/>
					</g>
					<g id="g662" transform="translate(123.8755,97.9302)">
						<path id="path664" inkscape:connector-curvature="0" class="st11" d="M115.2-40.8l-3.4,10.3l-3.4,10.3l8.7,6.3l8.7,6.3
							l8.8-6.4l8.8-6.4l-3.3-10.3l-3.3-10.3l-10.8,0L115.2-40.8z"/>
					</g>
					<g id="g666" transform="translate(108.8296,77.6465)">
						<path id="path668" inkscape:connector-curvature="0" class="st8" d="M115.2-40.8c-19.3,14-23.6,41.1-9.6,60.4
							c14,19.3,41.1,23.6,60.4,9.6c19.3-14,23.6-41.1,9.6-60.4C161.5-50.5,134.5-54.8,115.2-40.8"/>
					</g>
					<g id="g670" transform="translate(108.8296,77.6465)">
						<path id="path672" inkscape:connector-curvature="0" class="st11" d="M115.2-40.8c-19.3,14-23.6,41.1-9.6,60.4
							c14,19.3,41.1,23.6,60.4,9.6c19.3-14,23.6-41.1,9.6-60.4C161.5-50.5,134.5-54.8,115.2-40.8z"/>
					</g>
					<g id="g674" transform="translate(124.5591,70.4814)">
						<path id="path676" inkscape:connector-curvature="0" class="st0" d="M115.2-40.8l0.2,0.1l-8.3,17.6l-19.3,2.4l0-0.2
							c2.9-4.9,6.8-9.2,11.7-12.7C104.3-37.2,109.7-39.5,115.2-40.8"/>
					</g>
					<g id="g678" transform="translate(124.5591,70.4814)">
						<path id="path680" inkscape:connector-curvature="0" class="st11" d="M115.2-40.8l0.2,0.1l-8.3,17.6l-19.3,2.4l0-0.2
							c2.9-4.9,6.8-9.2,11.7-12.7C104.3-37.2,109.7-39.5,115.2-40.8z"/>
					</g>
					<g id="g682" transform="translate(117.0239,152.2466)">
						<path id="path684" inkscape:connector-curvature="0" class="st0" d="M115.2-40.8L115.2-40.8l17-9.4l17,9.4l-0.1,0.3
							C138.1-36,125.8-36.2,115.2-40.8"/>
					</g>
					<g id="g686" transform="translate(117.0239,152.2466)">
						<path id="path688" inkscape:connector-curvature="0" class="st11" d="M115.2-40.8L115.2-40.8l17-9.4l17,9.4l-0.1,0.3
							C138.1-36,125.8-36.2,115.2-40.8z"/>
					</g>
					<g id="g690" transform="translate(91.2119,108.5654)">
						<path id="path692" inkscape:connector-curvature="0" class="st0" d="M115.2-40.8l14.2,13.3l-3.7,19.1l-0.1,0
							c-0.8-0.9-1.6-1.9-2.3-2.9C116.8-20.2,114.2-30.7,115.2-40.8"/>
					</g>
					<g id="g694" transform="translate(91.2119,108.5654)">
						<path id="path696" inkscape:connector-curvature="0" class="st11" d="M115.2-40.8l14.2,13.3l-3.7,19.1l-0.1,0
							c-0.8-0.9-1.6-1.9-2.3-2.9C116.8-20.2,114.2-30.7,115.2-40.8z"/>
					</g>
					<g id="g698" transform="translate(177.2661,108.6924)">
						<path id="path700" inkscape:connector-curvature="0" class="st0" d="M115.2-40.8L115.2-40.8L101-27.5l3.7,19.1l0.1,0
							C112.6-17.5,116.2-29.2,115.2-40.8"/>
					</g>
					<g id="g702" transform="translate(177.2661,108.6924)">
						<path id="path704" inkscape:connector-curvature="0" class="st11" d="M115.2-40.8L115.2-40.8L101-27.5l3.7,19.1l0.1,0
							C112.6-17.5,116.2-29.2,115.2-40.8z"/>
					</g>
					<g id="g706" transform="translate(143.5811,70.4214)">
						<path id="path708" inkscape:connector-curvature="0" class="st0" d="M115.2-40.8l8.2,17.5l19.3,2.4l0-0.2c-0.6-1-1.3-2-2-2.9
							C134.4-32.9,125.1-38.6,115.2-40.8"/>
					</g>
					<g id="g710" transform="translate(143.5811,70.4214)">
						<path id="path712" inkscape:connector-curvature="0" class="st11" d="M115.2-40.8l8.2,17.5l19.3,2.4l0-0.2c-0.6-1-1.3-2-2-2.9
							C134.4-32.9,125.1-38.6,115.2-40.8z"/>
					</g>
					<g id="g714" transform="translate(123.8823,98.3633)">
						<path id="path716" inkscape:connector-curvature="0" class="st0" d="M115.2-40.8l-3.3,10l-3.3,10l8.5,6.2l8.5,6.2l8.5-6.2
							l8.5-6.2l-3.3-10l-3.3-10h-10.5H115.2z"/>
					</g>
					<g id="g718" transform="translate(123.8823,98.3633)">
						<path id="path720" inkscape:connector-curvature="0" class="st11" d="M115.2-40.8l-3.3,10l-3.3,10l8.5,6.2l8.5,6.2l8.5-6.2
							l8.5-6.2l-3.3-10l-3.3-10h-10.5H115.2z"/>
					</g>
					<g id="g722" transform="translate(149.4658,118.2192)">
						<path id="path724" inkscape:connector-curvature="0" d="M115.2-40.8l20.4,6.6l0.2-0.6l-20.4-6.6L115.2-40.8z"/>
					</g>
					<g id="g726" transform="translate(143.666,100.5752)">
						<path id="path728" inkscape:connector-curvature="0" d="M115.2-40.8l12.6-17.3l-0.5-0.4l-12.6,17.3L115.2-40.8z"/>
					</g>
					<g id="g730" transform="translate(125.1084,98.9375)">
						<path id="path732" inkscape:connector-curvature="0" d="M115.2-40.8l-12.6-17.3l-0.5,0.4l12.6,17.3L115.2-40.8z"/>
					</g>
					<g id="g734" transform="translate(119.1997,117.2651)">
						<path id="path736" inkscape:connector-curvature="0" d="M115.2-40.8l-20.4,6.6l0.2,0.6l20.4-6.6L115.2-40.8z"/>
					</g>
					<g id="g738" transform="translate(134.062,127.1436)">
						<path id="path740" inkscape:connector-curvature="0" d="M115.2-40.8L115-19.4l0.6,0l0.2-21.4L115.2-40.8z"/>
					</g>
					<g id="g742" transform="translate(177.2661,108.6924)">
						<path id="path744" inkscape:connector-curvature="0" class="st0" d="M115.2-40.8L115.2-40.8L101-27.5l3.7,19.1l0.1,0
							C112.6-17.5,116.2-29.2,115.2-40.8"/>
					</g>
					<g id="g746" transform="translate(177.2661,108.6924)">
						<path id="path748" inkscape:connector-curvature="0" class="st11" d="M115.2-40.8L115.2-40.8L101-27.5l3.7,19.1l0.1,0
							C112.6-17.5,116.2-29.2,115.2-40.8z"/>
					</g>
					<g id="g750" transform="translate(129.7705,269.8506)">
						<path id="path752" inkscape:connector-curvature="0" class="st0" d="M115.2-40.8v-3.3c-0.1,0-0.1,0-0.2,0c-1,0-1.9,0.3-2.6,1
							c-0.8,0.8-1.1,1.8-1.2,2.9l-0.1,0.6l3.3,0.4l0.1-0.6c0-0.3,0.1-0.6,0.3-0.8C114.8-40.8,115-40.8,115.2-40.8L115.2-40.8z
							 M115.2-29v-3.3c0,0-0.1,0-0.1,0c-0.3,0-0.4-0.1-0.6-0.3c-0.3-0.4-0.3-1.1-0.3-1.6c0-0.5,0-1.2,0.3-1.6
							c0.2-0.2,0.4-0.4,0.7-0.4v-3c-0.1,0-0.2,0-0.4,0c-1.2,0-2.1,0.6-2.8,1.5c-0.8,1-1.1,2.3-1.1,3.6c0,1.3,0.3,2.7,1.2,3.7
							C112.9-29.5,113.9-29,115.2-29L115.2-29z M105.5-34.7c-0.6-0.5-1.4-0.9-2.1-1.2l-0.8-0.3v3.6l0.4,0.1c0.6,0.2,1.2,0.7,1.7,1.2
							c0.6,0.5,1,1.2,1.3,1.9L106-29h2.8v-14.9h-3.4V-34.7z M133.5-32.8l-0.1-0.9c0.3,0.1,0.6,0.1,0.8,0.1c1.2,0,2.2-0.5,3-1.5
							c0.9-1,1.2-2.3,1.2-3.6c0-1.2-0.3-2.3-0.9-3.3c-0.8-1.3-2.1-2.1-3.6-2.1c-1.2,0-2.2,0.4-3,1.2c-0.8,0.8-1.2,1.9-1.4,3.1
							l-0.1,0.5l3.3,0.4l0.1-0.6c0-0.4,0.2-0.8,0.4-1.1c0.2-0.2,0.4-0.3,0.7-0.3c0.3,0,0.6,0.2,0.7,0.4c0.3,0.4,0.4,1.2,0.4,1.7
							c0,0.5-0.1,1.1-0.4,1.6c-0.2,0.3-0.5,0.4-0.8,0.4c-0.6,0-1-0.4-1.3-0.8l-0.2-0.3l-2.7,0.5l1.3,8.1h7v-3.6H133.5z M124.4-32.8
							l-0.1-0.9c0.3,0.1,0.6,0.1,0.8,0.1c1.2,0,2.2-0.5,3-1.5c0.9-1,1.2-2.3,1.2-3.6c0-1.2-0.3-2.3-0.9-3.3
							c-0.8-1.3-2.1-2.1-3.6-2.1c-1.2,0-2.2,0.4-3,1.2c-0.8,0.8-1.3,1.9-1.4,3.1l-0.1,0.5l3.3,0.4l0.1-0.6c0-0.4,0.2-0.8,0.4-1.1
							c0.2-0.2,0.4-0.3,0.7-0.3c0.3,0,0.6,0.2,0.7,0.4c0.3,0.4,0.4,1.2,0.4,1.7c0,0.5-0.1,1.1-0.4,1.6c-0.2,0.3-0.5,0.4-0.8,0.4
							c-0.6,0-1-0.4-1.3-0.8l-0.2-0.3l-2.7,0.5l1.3,8.1h7v-3.6H124.4z M115.2-44.1v3.3c0.3,0,0.5,0.2,0.7,0.5
							c0.2,0.3,0.3,0.9,0.4,1.5c-0.3-0.2-0.7-0.3-1.1-0.3v3h0c0.3,0,0.5,0.1,0.6,0.4c0.3,0.4,0.3,1,0.3,1.4c0,0.5-0.1,1.2-0.4,1.6
							c-0.1,0.2-0.3,0.4-0.6,0.5v3.3c1.4,0,2.6-0.7,3.4-1.8c1.1-1.5,1.2-3.8,1.2-5.6c0-1.8-0.2-4.2-1.3-5.7
							C117.7-43.3,116.6-44,115.2-44.1"/>
					</g>
					<g id="g754" transform="translate(129.3242,269.8154)">
						<path id="path756" inkscape:connector-curvature="0" class="st8" d="M115.2-40.8V-43c-0.1,0-0.1,0-0.2,0
							c-0.9,0-1.7,0.3-2.2,0.9c-0.6,0.6-0.9,1.4-1.1,2.6l2.2,0.3c0.1-0.5,0.2-0.9,0.4-1.1C114.5-40.7,114.8-40.8,115.2-40.8
							L115.2-40.8z M115.2-29v-2.2c0,0-0.1,0-0.1,0c-0.4,0-0.8-0.2-1-0.6c-0.3-0.4-0.4-1-0.4-1.9c0-0.9,0.1-1.5,0.4-1.9
							c0.3-0.4,0.7-0.6,1.1-0.6v-1.9c-0.1,0-0.2,0-0.4,0c-0.9,0-1.7,0.4-2.4,1.2c-0.7,0.8-1,1.9-1,3.2c0,1.4,0.4,2.5,1.1,3.4
							C113.2-29.4,114.1-29,115.2-29L115.2-29z M108.3-42.7H106v9.9c-0.8-0.9-1.8-1.6-2.9-2v2.4c0.6,0.2,1.2,0.6,1.9,1.3
							c0.7,0.6,1.2,1.4,1.4,2.2h1.8V-42.7z M129.9-39.2l2.2,0.3c0.1-0.6,0.3-1.1,0.6-1.4c0.3-0.3,0.7-0.5,1.1-0.5
							c0.5,0,0.9,0.2,1.2,0.7c0.3,0.4,0.5,1.1,0.5,2c0,0.8-0.2,1.5-0.5,1.9c-0.3,0.4-0.7,0.6-1.3,0.6c-0.6,0-1.2-0.3-1.7-1l-1.8,0.3
							l1.2,7.1h5.9v-2.5H133l-0.4-2.3c0.5,0.3,1,0.4,1.5,0.4c1,0,1.8-0.4,2.5-1.3c0.7-0.8,1-1.9,1-3.3c0-1.1-0.3-2.1-0.8-3
							c-0.8-1.2-1.8-1.8-3.2-1.8c-1.1,0-2,0.3-2.6,1C130.4-41.3,130-40.4,129.9-39.2 M120.8-39.2l2.2,0.3c0.1-0.6,0.3-1.1,0.6-1.4
							c0.3-0.3,0.7-0.5,1.1-0.5c0.5,0,0.9,0.2,1.2,0.7c0.3,0.4,0.5,1.1,0.5,2c0,0.8-0.2,1.5-0.5,1.9c-0.3,0.4-0.7,0.6-1.3,0.6
							c-0.6,0-1.2-0.3-1.7-1l-1.8,0.3l1.1,7.1h5.9v-2.5h-4.2l-0.3-2.3c0.5,0.3,1,0.4,1.5,0.4c1,0,1.8-0.4,2.5-1.3
							c0.7-0.8,1-1.9,1-3.3c0-1.1-0.3-2.1-0.8-3c-0.8-1.2-1.8-1.8-3.2-1.8c-1.1,0-2,0.3-2.6,1C121.3-41.3,120.9-40.4,120.8-39.2
							 M115.2-43v2.2c0.4,0,0.8,0.3,1.1,0.7c0.3,0.5,0.5,1.5,0.6,3.1c-0.5-0.7-1.1-1-1.8-1.1v1.9h0c0.4,0,0.8,0.2,1.1,0.6
							c0.3,0.4,0.4,1,0.4,1.8c0,0.8-0.2,1.5-0.5,2c-0.3,0.4-0.7,0.7-1.1,0.7v2.2c1.2,0,2.2-0.5,2.9-1.6c0.8-1.1,1.1-2.8,1.1-5.3
							c0-2.5-0.4-4.3-1.2-5.4C117.3-42.3,116.4-42.9,115.2-43"/>
					</g>
					<g id="g758" transform="translate(134.7803,210.7666)">
						<path id="path760" inkscape:connector-curvature="0" class="st1" d="M115.2-40.8H-0.7v40h115.9v-2.8H1.8v-35.4h113.4V-40.8z
							 M231.1-0.8v-40H115.2v1.9h113.4v35.4H115.2v2.8H231.1z"/>
					</g>
					<g id="g762" transform="translate(149.3218,43.9438)">
						<path id="path764" inkscape:connector-curvature="0" class="st0" d="M115.2-40.8c0.9,0.2,1.7,0.2,2.6-0.1
							c0.2,0,0.4-0.1,0.5-0.1c1.6,0.8,3.3,1.1,5,0.9c1.3-0.2,2.9-0.6,3.4-2c0.6-1.7,0.8-1.6-1-2c0,0,0,0,0,0c0,0,0,0-0.1,0
							c0,0,0,0-0.1,0c-2.7-1.1-5.1-2.8-5.8-5.8c-0.3-1.1-0.3-2.3,0-3.4c0.1-0.1,0.1-0.3,0.2-0.4c0-0.1,0-0.1,0-0.2
							c0-0.4,0-0.9-0.2-1.3c0,0,0,0,0,0c0,0,0,0,0,0c-0.7-1.4-2.5-1.5-3.8-1.2c-0.9,0.1-1.8,0.5-2.4,1.2c-0.1,0.1-0.2,0.2-0.3,0.3
							c-0.7-0.2-1.4,0-2.1,0.2c0,0,0,0,0,0c-0.5,0.2-1,0.5-1.4,0.9c-0.8-0.4-1.8-0.3-2.6,0.2c0,0,0,0,0,0c0,0,0,0,0,0
							c-0.3,0.2-0.5,0.3-0.7,0.5c-1.1-0.3-2.1,0-3,0.6c0,0-0.1,0.1-0.1,0.1c0,0-0.1,0.1-0.1,0.1c-0.7,0.8-1.2,1.7-1.5,2.7
							c-0.4,0.1-0.8,0.1-1.2,0.1c0,0-0.1,0-0.1,0c0,0,0,0,0,0c-0.4,0-0.8,0-1.2-0.1c-0.2-1-0.7-1.9-1.5-2.7c0,0-0.1-0.1-0.1-0.1
							c0,0-0.1-0.1-0.1-0.1c-0.9-0.6-2-0.9-3-0.6c-0.2-0.2-0.5-0.4-0.7-0.5c0,0,0,0,0,0c0,0,0,0,0,0c-0.8-0.4-1.8-0.5-2.6-0.2
							c-0.4-0.4-0.8-0.7-1.4-0.9c0,0,0,0,0,0c-0.7-0.3-1.4-0.4-2.1-0.2c-0.1-0.1-0.2-0.2-0.3-0.3c-0.7-0.7-1.5-1.1-2.4-1.2
							c-1.4-0.2-3.1-0.2-3.8,1.2c0,0,0,0,0,0c0,0,0,0,0,0c-0.2,0.4-0.2,0.8-0.2,1.3c0,0.1,0,0.1,0,0.2c0.1,0.2,0.1,0.3,0.2,0.4
							c0.3,1.1,0.3,2.3,0,3.4c-0.7,3-3,4.7-5.8,5.8c0,0,0,0-0.1,0c0,0,0,0-0.1,0c0,0,0,0,0,0c-1.8,0.4-1.6,0.3-1,2
							c0.5,1.4,2.1,1.8,3.4,2c1.8,0.3,3.5,0,5-0.9c0.2,0,0.4,0.1,0.5,0.1c0.9,0.2,1.7,0.2,2.6,0.1c0.1,0.1,0.3,0.2,0.4,0.3
							c0.7,0.4,1.6,0.4,2.4,0.3c0,0,0.1,0,0.1,0c0.1,0.1,0.2,0.2,0.3,0.3c0,0,0,0,0.1,0c1.4,0.8,2.9,0.7,4.4,0.1
							c0.2-0.1,0.4-0.2,0.5-0.2c0.1,0.1,0.3,0.2,0.4,0.2c0,0,0,0,0.1,0c4.4,2.1,8,2.1,12.3,0c0,0,0,0,0.1,0c0.1-0.1,0.3-0.2,0.4-0.2
							c0.2,0.1,0.4,0.2,0.5,0.2c1.4,0.7,3,0.8,4.4-0.1c0,0,0,0,0.1,0c0.1-0.1,0.2-0.2,0.3-0.3c0,0,0.1,0,0.1,0
							c0.8,0.1,1.7,0.1,2.4-0.3C114.9-40.6,115.1-40.7,115.2-40.8"/>
					</g>
					<g id="g766" transform="translate(112.0547,41.9854)">
						<path id="path768" inkscape:connector-curvature="0" class="st11" d="M115.2-40.8c3.7,0,6.7-3,6.7-6.8c0-2.1-0.9-3.9-2.3-5.1
							l0,0c-0.1,0.1-0.1,0.3-0.1,0.5l0.1,0.3c0.4,1.2,0.4,2.7,0.1,4.2c-0.7,3-2.7,5.2-6.1,6.7C114-40.9,114.6-40.8,115.2-40.8z"/>
					</g>
					<g id="g770" transform="translate(140.7603,43.0894)">
						<path id="path772" inkscape:connector-curvature="0" class="st2" d="M115.2-40.8C115.2-40.8,115.2-40.8,115.2-40.8
							c-2-1.6-3.8-4.3-4-6.7l-0.7,0.2c-0.6,0.1-1.1,0.2-1.6,0.2h0v0l0,0l0,0v0h0c-0.5,0-1-0.1-1.6-0.2l-0.7-0.2
							c-0.1,2.4-1.9,5-3.9,6.6c0,0-0.1,0-0.1,0l0.7,0.5c4,1.9,7.1,1.9,11.1,0L115.2-40.8z"/>
					</g>
					<g id="g774" transform="translate(109.5254,42.1035)">
						<path id="path776" inkscape:connector-curvature="0" class="st3" d="M115.2-40.8c0.1,0,0.2-0.1,0.3-0.1c3.8-1.5,6-3.8,6.7-6.9
							c0.4-1.5,0.3-3-0.1-4.2l-0.1-0.3c0-0.2,0-0.4,0.1-0.5c0.3-0.5,1-0.7,2.3-0.4c3.2,0.4,3.1,5.1,1,8.8c-1.6,2.8-4.4,5.1-7.9,4.6
							C116.7-39.9,115.5-40.1,115.2-40.8"/>
					</g>
					<g id="g778" transform="translate(125.3081,34.0903)">
						<path id="path780" inkscape:connector-curvature="0" class="st3" d="M115.2-40.8c0-0.4-0.1-0.9-0.2-1.3c0,0,0.1-0.2,0.4-0.5
							c0.4-0.3,0.9-0.3,1.5,0c4.3,2.5-1.3,10.6-4.7,10.6c-0.7,0.1-1.2,0-1.5-0.1c-0.2-0.1-0.3-0.2-0.4-0.3c0.3-0.2,0.6-0.3,0.9-0.6
							c0.1-0.1,0.2-0.2,0.3-0.2c0.1-0.1,0.1-0.1,0.2-0.2c1.3-1.1,2.3-2.5,2.9-4.3C115-38.7,115.2-39.8,115.2-40.8"/>
					</g>
					<g id="g782" transform="translate(117.8853,41.2656)">
						<path id="path784" inkscape:connector-curvature="0" class="st3" d="M115.2-40.8c0.8-0.9,1.5-1.8,2.1-2.8
							c1.2-2,1.7-3.9,1.5-5.8c0-0.3-0.1-0.7-0.1-1.1c0,0,0-0.1,0-0.2c0.5-0.4,1.1-0.4,1.8-0.1c4.3,1.9,0,12.6-5.7,11.1l-0.5-0.1
							c0.3-0.3,0.6-0.6,0.9-0.9C115.1-40.7,115.1-40.8,115.2-40.8"/>
					</g>
					<g id="g786" transform="translate(124.5962,42.5205)">
						<path id="path788" inkscape:connector-curvature="0" class="st3" d="M115.2-40.8c1-0.8,2-1.9,2.9-3.3c1-1.5,1.5-3,1.5-4.4
							c0-0.5-0.1-1-0.2-1.5c0,0,0-0.1,0-0.1c0.7-0.2,1.3-0.1,2,0.3c1.5,1.6,1.6,3.7,0.2,6.1c-0.7,1.2-1.4,2.2-2.2,2.8
							c-0.5,0.4-1.1,0.8-1.9,1.1c-1.1,0.5-2.2,0.5-3,0l-0.2-0.2C114.5-40.2,114.8-40.5,115.2-40.8"/>
					</g>
					<g id="g790" transform="translate(110.4697,42.0591)">
						<path id="path792" inkscape:connector-curvature="0" class="st1" d="M115.2-40.8c4.6,0,8.3-3.1,8.3-6.9c0-1.9-0.9-3.6-2.4-4.9
							c0,0.1,0,0.2,0,0.3l0.1,0.3c0.4,1.2,0.4,2.7,0.1,4.2c-0.7,3.1-2.9,5.4-6.7,6.9l-0.1,0C114.7-40.8,114.9-40.8,115.2-40.8"/>
					</g>
					<g id="g794" transform="translate(117.064,42.0806)">
						<path id="path796" inkscape:connector-curvature="0" class="st1" d="M115.2-40.8c3.4-0.9,5.8-3.4,5.8-6.4
							c0-1.3-0.5-2.6-1.4-3.7c0,0.2,0,0.4,0.1,0.6c0.1,1.9-0.4,3.8-1.5,5.8c-0.6,1-1.3,2-2.1,2.8c-0.1,0.1-0.1,0.1-0.1,0.1
							C115.7-41.3,115.4-41,115.2-40.8"/>
					</g>
					<g id="g798" transform="translate(121.479,42.2573)">
						<path id="path800" inkscape:connector-curvature="0" class="st1" d="M115.2-40.8c2.7,0,4.9-2.7,4.9-5.9c0-1.4-0.4-2.7-1.1-3.7
							c-0.1,0.1-0.2,0.2-0.2,0.2c0.1,0.4,0.1,0.8,0.2,1.3c0,1-0.2,2.1-0.6,3.2c-0.6,1.7-1.6,3.2-2.9,4.3c-0.1,0-0.1,0.1-0.2,0.2
							c-0.1,0.1-0.2,0.2-0.3,0.2c-0.1,0.1-0.2,0.2-0.3,0.2C114.8-40.8,115-40.8,115.2-40.8"/>
					</g>
					<g id="g802" transform="translate(123.4678,43.3247)">
						<path id="path804" inkscape:connector-curvature="0" class="st1" d="M115.2-40.8c3.6-0.3,6.5-3.1,6.5-6.5
							c0-1.4-0.4-2.6-1.2-3.6c0,0,0,0,0,0.1c0.1,0.5,0.2,1,0.2,1.5c0,1.5-0.5,2.9-1.5,4.4c-0.9,1.4-1.9,2.5-2.9,3.3
							C116-41.3,115.6-41,115.2-40.8"/>
					</g>
					<g id="g806" transform="translate(159.4824,42.1035)">
						<path id="path808" inkscape:connector-curvature="0" class="st3" d="M115.2-40.8c-0.1,0-0.2-0.1-0.3-0.1
							c-3.8-1.5-6-3.8-6.7-6.9c-0.4-1.5-0.3-3,0.1-4.2l0.1-0.3c0-0.2,0-0.4-0.1-0.5c-0.3-0.5-1-0.7-2.3-0.4c-3.2,0.4-3.1,5.1-1,8.8
							c1.6,2.8,4.4,5.1,7.9,4.6C113.7-39.9,114.9-40.1,115.2-40.8"/>
					</g>
					<g id="g810" transform="translate(143.6987,34.0903)">
						<path id="path812" inkscape:connector-curvature="0" class="st3" d="M115.2-40.8c0-0.4,0.1-0.9,0.2-1.3c0,0-0.1-0.2-0.4-0.5
							c-0.4-0.3-0.9-0.3-1.5,0c-4.3,2.5,1.3,10.6,4.7,10.6c0.7,0.1,1.2,0,1.5-0.1c0.2-0.1,0.3-0.2,0.4-0.3c-0.3-0.2-0.6-0.3-0.9-0.6
							c-0.1-0.1-0.2-0.2-0.3-0.2c-0.1-0.1-0.1-0.1-0.2-0.2c-1.3-1.1-2.3-2.5-2.9-4.3C115.4-38.7,115.2-39.8,115.2-40.8"/>
					</g>
					<g id="g814" transform="translate(151.1216,41.2656)">
						<path id="path816" inkscape:connector-curvature="0" class="st3" d="M115.2-40.8c-0.8-0.9-1.5-1.8-2.1-2.8
							c-1.2-2-1.7-3.9-1.5-5.8c0-0.3,0.1-0.7,0.1-1.1c0,0,0-0.1,0-0.2c-0.5-0.4-1.1-0.4-1.8-0.1c-4.3,1.9,0,12.6,5.7,11.1l0.5-0.1
							c-0.3-0.3-0.6-0.6-0.9-0.9C115.3-40.7,115.3-40.8,115.2-40.8"/>
					</g>
					<g id="g818" transform="translate(144.4106,42.5205)">
						<path id="path820" inkscape:connector-curvature="0" class="st3" d="M115.2-40.8c-1-0.8-2-1.9-2.9-3.3c-1-1.5-1.5-3-1.5-4.4
							c0-0.5,0.1-1,0.2-1.5c0,0,0-0.1,0-0.1c-0.7-0.2-1.3-0.1-2,0.3c-1.5,1.6-1.6,3.7-0.2,6.1c0.7,1.2,1.4,2.2,2.2,2.8
							c0.5,0.4,1.1,0.8,1.9,1.1c1.1,0.5,2.2,0.5,3,0l0.2-0.2C115.9-40.2,115.6-40.5,115.2-40.8"/>
					</g>
					<g id="g822" transform="translate(158.5386,42.0591)">
						<path id="path824" inkscape:connector-curvature="0" class="st1" d="M115.2-40.8c-4.6,0-8.3-3.1-8.3-6.9
							c0-1.9,0.9-3.6,2.4-4.9c0,0.1,0,0.2,0,0.3l-0.1,0.3c-0.4,1.2-0.4,2.7-0.1,4.2c0.7,3.1,2.9,5.4,6.7,6.9l0.1,0
							C115.7-40.8,115.5-40.8,115.2-40.8"/>
					</g>
					<g id="g826" transform="translate(151.9429,42.0806)">
						<path id="path828" inkscape:connector-curvature="0" class="st1" d="M115.2-40.8c-3.4-0.9-5.8-3.4-5.8-6.4
							c0-1.3,0.5-2.6,1.4-3.7c0,0.2-0.1,0.4-0.1,0.6c-0.1,1.9,0.4,3.8,1.5,5.8c0.6,1,1.3,2,2.1,2.8c0.1,0.1,0.1,0.1,0.1,0.1
							C114.7-41.3,115-41,115.2-40.8"/>
					</g>
					<g id="g830" transform="translate(147.5293,42.2573)">
						<path id="path832" inkscape:connector-curvature="0" class="st1" d="M115.2-40.8c-2.7,0-4.9-2.7-4.9-5.9
							c0-1.4,0.4-2.7,1.1-3.7c0.1,0.1,0.2,0.2,0.2,0.2c-0.1,0.4-0.1,0.8-0.2,1.3c0,1,0.2,2.1,0.6,3.2c0.6,1.7,1.6,3.2,2.9,4.3
							c0.1,0,0.1,0.1,0.2,0.2c0.1,0.1,0.2,0.2,0.3,0.2c0.1,0.1,0.2,0.2,0.3,0.2C115.6-40.8,115.4-40.8,115.2-40.8"/>
					</g>
					<g id="g834" transform="translate(145.5405,43.3247)">
						<path id="path836" inkscape:connector-curvature="0" class="st1" d="M115.2-40.8c-3.6-0.3-6.5-3.1-6.5-6.5
							c0-1.4,0.4-2.6,1.2-3.6c0,0,0,0,0,0.1c-0.1,0.5-0.2,1-0.2,1.5c0,1.5,0.5,2.9,1.5,4.4c0.9,1.4,1.9,2.5,2.9,3.3
							C114.4-41.3,114.8-41,115.2-40.8"/>
					</g>
					<g id="g838" transform="translate(139.1128,43.1665)">
						<path id="path840" inkscape:connector-curvature="0" class="st1" d="M115.2-40.8C115.2-40.8,115.2-40.8,115.2-40.8
							c-1.5-1.3-2.8-3.4-2.9-5.4l-0.5,0.2c-0.4,0.1-0.8,0.1-1.2,0.1h0v0h0h0v0h0c-0.4,0-0.8,0-1.2-0.1l-0.5-0.2
							c-0.1,1.9-1.4,4-2.9,5.3c0,0,0,0,0,0l0.5,0.4c3,1.6,5.3,1.5,8.2,0L115.2-40.8z"/>
					</g>
					<g id="g842" transform="translate(30.9844,225.5669)">
						<path id="path844" inkscape:connector-curvature="0" class="st5" d="M115.2-40.8c1.8,0,3.2,1.5,3.2,3.2c0,1.8-1.5,3.2-3.2,3.2
							c-1.8,0-3.2-1.5-3.2-3.2C112-39.3,113.4-40.8,115.2-40.8"/>
					</g>
					<g id="g846" transform="translate(238.5752,226.4277)">
						<path id="path848" inkscape:connector-curvature="0" class="st5" d="M115.2-40.8c1.8,0,3.2,1.5,3.2,3.2c0,1.8-1.5,3.2-3.2,3.2
							c-1.8,0-3.2-1.5-3.2-3.2C112-39.3,113.4-40.8,115.2-40.8"/>
					</g>
					<g id="g850" transform="translate(52.3491,218.3867)">
						<path id="path852" inkscape:connector-curvature="0" class="st12" d="M115.2-40.8h-12.6v17.6c0.6,0.4,1.5,1.1,2.7,1.9l2.4,1.4
							l1.6,0.8l1,0.4h4.9v-2.6c-0.7-0.3-1.3-0.8-1.8-1.3v-5.1c0.7,0.4,1.3,1,1.8,1.7v-4.2c-0.5,0.3-1.2,0.6-1.8,0.8v-9.3
							c0.5,0.1,1.2,0.6,1.8,1.5V-40.8z M143.2-18.7v-5.8c-0.7,1.1-1.5,2.3-2.4,3.5l-0.7-0.8l-0.8-0.9c-0.2-0.2-0.3-0.5-0.4-0.8
							c0.2-1.9,0.9-4.4,2.1-7.5c0.3-0.9,0.7-1.8,1.2-2.8c0.3-0.6,0.6-1.2,1-1.8v-5.3h-8.6c-0.5,0.7-0.9,1.4-1.2,2l-1.1,2.4l-1,2.6
							c-0.5,1.2-1,2.8-1.4,4.8c-0.4,1.7-0.6,3.2-0.6,4.5c1.4,1.3,2.6,2.4,3.8,3.3c1.5,1.1,2.9,2,4.1,2.6H143.2z M127.6-33.8
							c-0.9-2.5-2.3-4.8-4.2-7h-8.2v3.7c0.4,0.6,0.9,1.3,1.4,2.3c0.5,0.9,0.8,1.7,1,2.5c-0.6,0.9-1.4,1.6-2.4,2.2v4.2
							c0.8,1.2,1.4,2.5,1.7,4.1c0.1,0.4,0.1,0.8,0.1,1.3c-0.7-0.2-1.3-0.4-1.8-0.6v2.6h7.1c0.5-0.5,0.9-0.9,1.3-1.4l1.9-2.5
							c-1-2-2.6-3.9-4.9-5.4C123.6-29.6,126-31.5,127.6-33.8 M143.2-40.8v5.3c0.6-1,1.2-1.9,1.8-2.8l0.5,0.3
							c1.4,0.9,2.1,1.8,2.1,2.7c0,0.2,0,0.4-0.1,0.5c-0.1,0.8-0.4,1.7-0.8,2.5c-0.7,2.7-1.9,5.3-3.4,7.8l0,0.1v5.8h8.5
							c1.3-2,2.5-4.7,3.6-7.9c0.7-1.9,1.3-4.1,1.8-6.5c-0.7-1-1.5-2-2.3-2.9c-1.5-1.7-3.4-3.3-5.5-4.8H143.2z M172.2-18.7v-2.8
							c-0.7-0.4-1.4-0.9-1.9-1.7v-7.6c0.7,0.7,1.4,1.4,1.9,2.2v-4.8l-1.9,0.5v-7.9h-11.1v17.6c2,1.7,3.7,2.9,4.9,3.5l0.9,0.4
							l1.1,0.6H172.2z M265.5-40.8h-11.6l-2.4,11.9c-1-4.1-2.3-8.1-4-11.9h-6.2v8.8h5c1.8,3.7,3.1,8.1,3.9,13.3h8.9L265.5-40.8z
							 M239.8-40.8h-11.5l-4.9,9v-9H213v22.1h10.4v-10.1l5.3,10.1h6l-7.3-10.1c0.8-0.2,2-0.5,3.7-1c1.4-0.4,2.4-0.8,3.1-1.2
							L239.8-40.8z M210.9-32c-0.5-1.4-1.4-3-2.8-4.7c-1.2-1.6-2.5-3-3.7-4.1h-14.1c-1.4,2.5-2.5,5.2-3.5,8c-0.4,1-0.7,2.4-1,4.2
							c-0.3,1.6-0.5,3-0.5,4.1c1.2,1.1,2.6,2.4,4.5,3.7c0.4,0.3,0.9,0.6,1.2,0.9l1.9,1.2h11.9c1.7-1.3,3.1-3,4.3-4.9l-7.5-3.1
							c-1.5,2.9-3,4.9-4.4,6.1c-1.1-1-1.9-1.9-2.3-3c0-0.1-0.1-0.2-0.1-0.3c0-1.5,0.4-3.3,1.2-5.4c1.1-3,3-5.9,5.5-8.6h0.4
							c1.3,1.8,2.2,3.8,2.8,5.9H210.9z M172.2-33.3v4.8c0.3,0.4,0.5,0.8,0.7,1.3c0.8,1.5,1.2,2.9,1.2,4.2c0,0.7-0.1,1.4-0.4,2.1
							c-0.6-0.1-1.1-0.3-1.5-0.5v2.8h5.7c1-0.6,2.2-1.7,3.7-3.5c1.1-1.4,1.9-2.7,2.4-3.9c-0.5-1.1-1.1-2.3-2-3.5
							c-0.7-1-1.6-2.1-2.8-3.1c-0.4-0.3-0.7-0.6-1-0.9c-0.2-0.2-0.6-0.5-1.1-0.9L172.2-33.3z M277.1-18.7v-7l-2.2-7.4h2.2v-4.5h-3.6
							l-0.9-3.2h-5.7l9.4,22.1H277.1z M277.1-37.6v4.5h2.2l-2.2,7.5l0-0.1v7h8.1l7.5-22.1h-11.3l-0.9,3.2H277.1z"/>
					</g>
					<g id="g854" transform="translate(55.3262,185.0552)">
						<path id="path856" inkscape:connector-curvature="0" class="st13" d="M115.2-40.8c-1.6,0.3-2.7,0.8-3.5,1.7
							c-1,1.2-1.6,2.6-1.6,4.4c0,1.8,0.5,3.3,1.6,4.4c0.8,0.8,1.9,1.3,3.4,1.6v-2.8c-0.4-0.1-0.8-0.4-1-0.6
							c-0.6-0.6-0.9-1.5-0.9-2.7c0-1.6,0.6-2.7,1.9-3.2V-40.8z M120.3-41v-1.9h-3.2v1.9c-0.7,0-1.3,0.1-1.9,0.2v2.8
							c0.5-0.2,1.2-0.3,1.9-0.3v7.1c-0.8,0-1.4-0.1-1.9-0.3v2.8c0.6,0.1,1.2,0.2,1.9,0.2v1.6h3.2v-1.6c0.7,0,1.3-0.1,1.9-0.2v-2.8
							c-0.5,0.2-1.2,0.3-1.9,0.3v-7.1c0.7,0,1.4,0.1,1.9,0.3v-2.8C121.6-40.9,121-41,120.3-41 M129.9-26.9h3.2v-6.8
							c0.7,0.1,1.2,0.3,1.5,0.6c0.3,0.3,0.6,1.1,1.2,2.5c0.7,1.7,1.3,2.8,2,3.2c0.7,0.4,1.7,0.6,3.2,0.6c0.1,0,0.2,0,0.5,0v-2.4
							l-0.5,0c-0.7,0-1.1-0.1-1.4-0.2c-0.3-0.2-0.6-0.4-0.7-0.7c-0.2-0.3-0.5-1-0.8-2.1c-0.2-0.5-0.4-1-0.6-1.4
							c-0.2-0.4-0.6-0.7-1.2-1c0.7-0.2,1.3-0.6,1.8-1.2c0.5-0.6,1-1.5,1.5-2.6l2.2-4.4h-3.8l-1.9,4.1c0,0.1-0.1,0.2-0.2,0.3
							c0,0.1-0.2,0.3-0.4,0.7c-0.4,0.8-0.8,1.3-1,1.5c-0.3,0.2-0.7,0.3-1.2,0.3v-7h-3.2V-26.9z M122.2-28.7c1.5-0.3,2.7-0.8,3.5-1.7
							c1.1-1.2,1.6-2.6,1.6-4.4c0-1.8-0.5-3.2-1.6-4.4c-0.8-0.8-1.9-1.4-3.5-1.7v2.8c0.1,0,0.2,0.1,0.3,0.1c0.6,0.3,1,0.7,1.3,1.1
							c0.3,0.5,0.4,1.2,0.4,2.1c0,1.6-0.6,2.7-1.9,3.2V-28.7z"/>
					</g>
				</g>
			</g>
		</g>
	</g>
</g>
</svg>
