<?xml version="1.0" encoding="utf-8"?>
<!-- Generator: Adobe Illustrator 25.0.1, SVG Export Plug-In . SVG Version: 6.00 Build 0)  -->
<svg version="1.0"
	 id="svg2" xmlns:cc="http://creativecommons.org/ns#" xmlns:dc="http://purl.org/dc/elements/1.1/" xmlns:rdf="http://www.w3.org/1999/02/22-rdf-syntax-ns#" xmlns:svg="http://www.w3.org/2000/svg"
	 xmlns="http://www.w3.org/2000/svg" xmlns:xlink="http://www.w3.org/1999/xlink" x="0px" y="0px" viewBox="0 0 401 310"
	 style="enable-background:new 0 0 401 310;" xml:space="preserve">
<style type="text/css">
	.st0{fill-rule:evenodd;clip-rule:evenodd;fill:#FFFFFF;}
	.st1{fill-rule:evenodd;clip-rule:evenodd;fill:#231F20;}
	.st2{fill-rule:evenodd;clip-rule:evenodd;fill:#DD1634;}
</style>
<path id="path1261" class="st0" d="M200.5,32.3c40,0,72.5,54.9,72.5,122.7c0,67.7-32.5,122.7-72.5,122.7c-40,0-72.5-54.9-72.5-122.7
	C128,87.3,160.5,32.3,200.5,32.3z"/>
<path id="path18" class="st1" d="M269,172.4c-4.9,57.3-33.7,101.3-68.5,101.3c-34.8,0-63.6-44-68.5-101.3
	c7.7,30.6,35.5,53.3,68.5,53.3C233.5,225.7,261.3,203,269,172.4z M174.6,236.7l6.5,0v22.7l-2.6-1.5v-18.4l-1.4-0.1v14
	c0,1.3-0.2,2.2-0.5,2.4c-0.4,0.3-1.1,0.1-2.2-0.8l-0.8-0.6v-2.4c0.4,0.3,0.7,0.4,0.9,0.4c0.1,0,0.2-0.2,0.2-0.7V236.7z M186.9,236.7
	l2.7,0l-2.3,21.5c-0.2,1.4-0.4,2.3-0.9,2.7c-0.4,0.4-1.2,0.4-2.2-0.1l-0.9-0.4v-3c0.4,0.2,0.6,0.3,0.7,0.3c0.2,0,0.4-0.1,0.4-0.5
	c0-0.1,0-0.2,0-0.3l-2.3-20.1l2.7,0l1.1,14.9l0,0L186.9,236.7z M192.9,263.4l-2.6-0.5v-26.1l5.3,0v3.5l-2.7-0.1V263.4z M203,264
	l-2.7,0.1l-0.4-6.8l-2.1-0.1l-0.5,6.8l-2.3-0.2l2-27h3.9L203,264z M199,240.5l-0.8,13.1l1.6,0L199,240.5z M203.8,236.7l2.6,0V247
	l1.5-0.1v-10.1l2.6,0v26.2l-2.6,0.5v-12.9l-1.5,0.1v13l-2.6,0.3V236.7z M216.4,244.9v-4.6c0-0.4-0.1-0.7-0.2-0.8
	c-0.1-0.1-0.3-0.2-0.7-0.1c-0.3,0-0.5,0.1-0.7,0.2c-0.1,0.1-0.2,0.4-0.2,0.8V258c0,0.4,0.1,0.7,0.2,0.8c0.1,0.1,0.3,0.1,0.7,0
	c0.3-0.1,0.5-0.2,0.7-0.4c0.1-0.2,0.2-0.4,0.2-0.9v-5.2l2.6-0.7v5c0,0.7,0,1.3-0.1,1.8c-0.3,1.4-1.4,2.6-3.3,3.4
	c-1.2,0.5-2,0.5-2.5,0.2c-0.6-0.4-0.9-1.5-0.9-3.1v-18.2c0-1.6,0.3-2.8,0.9-3.4c0.5-0.5,1.3-0.7,2.5-0.7c1.9,0,3,0.7,3.3,2
	c0.1,0.4,0.1,1,0.1,1.7v4.3L216.4,244.9z M223,257.8l-2.6,1.5v-22.5l2.6,0v9l2.1-9l2.6,0l-2.4,9.2l2.5,8.5l-2.8,2.1l-2-9.1V257.8z
	 M238.6,189.2c0-0.1,0-0.2,0-0.3C238.6,189,238.6,189.1,238.6,189.2z M238.4,190.2c0-0.1,0-0.1,0-0.2
	C238.5,190,238.5,190.1,238.4,190.2z M200.5,223.4c-22.2,0-40.2-18-40.2-40.2c0-22.2,18-40.2,40.2-40.2c22.2,0,40.2,18,40.2,40.2
	C240.7,205.4,222.7,223.4,200.5,223.4z M190.5,220.7c-9.5-2.5-17.6-8.6-22.7-16.6c1.2,0.8,2.4,1.4,3.8,1.7c0.3,0.1,0.8,0.4,0.8,0.6
	c3.1,3.5,6.8,6.6,10.7,8.8c0.8,0.4,1.6,0.9,2.4,1.2c0.6,0.3,1.2,0.5,1.8,0.8c0.1,0,0.2,0.1,0.3,0.1
	C188.3,218.6,189.4,219.7,190.5,220.7L190.5,220.7z M161.8,185.5c0-0.7-0.1-1.5-0.1-2.3c0-9.4,3.4-18.1,9-24.8
	c-0.4,1.4-0.6,2.8-0.5,4.2c0,0.4-0.1,0.9-0.3,1c-2.4,4-4.2,8.5-5.1,12.9c-0.2,0.9-0.3,1.8-0.4,2.7c-0.1,0.7-0.1,1.3-0.2,2
	c0,0.1,0,0.2,0,0.3C163.2,182.6,162.4,184,161.8,185.5L161.8,185.5z M186.4,147.1c4.4-1.7,9.1-2.7,14.1-2.7c5.1,0,9.9,1,14.4,2.8
	c-1.4,0.1-2.8,0.3-4.1,0.9c-0.4,0.1-0.9,0.2-1,0c-4.6-1.1-9.3-1.4-13.8-0.8c-0.9,0.1-1.8,0.2-2.7,0.4c-0.7,0.1-1.3,0.3-2,0.4
	c-0.1,0-0.2,0.1-0.3,0.1C189.6,147.5,188,147.2,186.4,147.1L186.4,147.1z M230.6,158.8c5.4,6.7,8.7,15.2,8.7,24.4
	c0,0.8,0,1.6-0.1,2.4c-0.5-1.3-1.1-2.5-2-3.5c-0.2-0.3-0.4-0.8-0.4-0.9c-0.4-4.7-1.6-9.3-3.5-13.4c-0.4-0.8-0.8-1.6-1.2-2.4
	c-0.3-0.6-0.7-1.2-1-1.7c-0.1-0.1-0.1-0.2-0.2-0.3C231.2,161.8,231,160.3,230.6,158.8L230.6,158.8z M233,204.4
	c-5.2,8-13.2,13.9-22.7,16.3c1.1-0.9,2-1.8,2.6-3l0,0l0,0h0l0,0h0l0,0l0,0l0,0h0l0,0l0,0l0,0h0l0,0l0,0h0l0,0l0,0l0,0l0,0l0,0l0,0
	l0,0l0,0l0,0l0,0l0,0l0,0l0,0l0,0l0,0l0,0l0,0l0,0l0,0l0,0l0,0l0,0l0,0l0,0l0,0l0,0l0,0l0,0l0,0l0,0l0,0l0,0l0,0l0,0h0c0,0,0,0,0,0
	c0,0,0,0,0,0c4.3-1.8,8.3-4.4,11.7-7.4c0.7-0.6,1.3-1.3,1.9-1.9c0.5-0.5,0.9-1,1.3-1.5c0.1-0.1,0.2-0.2,0.2-0.2
	C230.3,205.8,231.7,205.2,233,204.4L233,204.4z M199.6,199.7c-5.8-2.6-10.6-6.1-14.4-10.5c-0.3-0.2-0.6-0.3-0.9-0.2l-11.7,3.8
	c-0.3,0-0.7,0.4-0.8,0.9l0,0.1c-0.7,3.7-0.6,7.4,0.6,11l0,0c0,0.1,0.4,0.9,0.7,1.1c3,3.5,6.6,6.4,10.5,8.6c0.8,0.4,1.6,0.8,2.4,1.2
	c0.6,0.3,1.3,0.6,1.9,0.8c0.1,0.1,0.8,0.2,1.1,0.3c3.8,0,7.3-1.1,10.6-2.9l0,0l0,0l0,0l0,0l0,0l0,0l0,0l0,0l0,0l0,0l0,0l0,0l0,0l0,0
	l0,0l0,0l0,0l0,0l0,0l0,0l0,0l0,0l0,0l0,0l0,0l0,0l0,0l0,0l0,0l0,0l0,0l0,0l0,0l0,0l0,0l0,0l0,0l0,0l0,0l0,0l0,0l0,0l0,0l0,0l0,0
	l0,0l0,0l0,0l0,0l0,0l0,0l0,0l0,0l0,0l0,0l0,0v-12.2C200.1,200.1,199.8,199.8,199.6,199.7L199.6,199.7z M184.7,187.2
	c0.6-6.4,2.3-12.1,5.5-16.7c0.1-0.4,0.1-0.7-0.1-0.9l-7.2-9.9c-0.1-0.3-0.6-0.5-1.1-0.5l-0.1,0c-3.7,0.5-7.2,1.7-10.3,4l0,0
	c-0.1,0-0.7,0.6-0.9,1c-2.4,3.9-4.1,8.3-5,12.6c-0.2,0.9-0.3,1.8-0.4,2.6c-0.1,0.7-0.1,1.4-0.2,2.1c-0.1,0.1,0,0.8,0.1,1.1
	c1.2,3.6,3.3,6.6,6,9.2c0.4,0.3,1,0.4,1.1,0.2l11.6-3.8C184.5,187.9,184.6,187.6,184.7,187.2L184.7,187.2z M191.9,169.5
	c6.1-1.3,11.9-1.3,17.6,0c0.4,0,0.7-0.1,0.9-0.3l7.2-9.9c0.2-0.2,0.3-0.7,0.2-1.2l0-0.1c-1.6-3.4-3.9-6.3-6.9-8.5l0,0
	c0-0.1-0.8-0.5-1.2-0.5c-4.5-1-9.1-1.3-13.5-0.8c-0.9,0.1-1.8,0.2-2.6,0.4c-0.7,0.1-1.4,0.3-2.1,0.5c-0.1,0-0.7,0.3-1,0.4
	c-3,2.3-5.3,5.2-6.9,8.6c-0.2,0.5-0.1,1,0.1,1.2l7.2,9.9C191.2,169.5,191.5,169.4,191.9,169.5L191.9,169.5z M210.9,170.4
	c3.2,4.8,5,10.7,5.6,17.4c0.1,0.2,0.3,0.4,0.5,0.5l11.7,3.8c0.2,0.2,0.8,0.1,1.2-0.2l0,0c2.8-2.6,4.8-5.6,6-9.2l0,0
	c0.1-0.1,0.2-0.9,0.1-1.3c-0.4-4.6-1.6-9.1-3.4-13.1c-0.4-0.8-0.8-1.6-1.2-2.4c-0.3-0.6-0.7-1.2-1.1-1.8c0-0.1-0.5-0.6-0.7-0.8
	c-3.1-2.2-6.6-3.5-10.3-3.9c-0.5,0-1,0.3-1.1,0.5l-7.2,9.9C210.9,169.9,210.9,170.1,210.9,170.4L210.9,170.4z M216,189.1
	c-4.1,4.4-9,7.9-14.7,10.7c-0.2,0.2-0.3,0.4-0.3,0.7v12.3c-0.1,0.3,0.2,0.8,0.6,1.1l0,0c3.3,1.8,6.8,2.8,10.6,2.8l0,0
	c0.1,0,1-0.1,1.3-0.3c0.1,0,0.1-0.1,0.2-0.1c0.1,0,0.1-0.1,0.2-0.1c0.1,0,0.1-0.1,0.2-0.1c0.1,0,0.1-0.1,0.2-0.1
	c0.1,0,0.1-0.1,0.2-0.1l0.2-0.1l0.2-0.1l0.2-0.1c0.1,0,0.1-0.1,0.2-0.1l0.2-0.1l0.2-0.1l0.2-0.1l0.2-0.1v0c0.1,0,0.1-0.1,0.2-0.1
	l0,0l0.2-0.1c0.1,0,0.1-0.1,0.2-0.1l0,0l0.2-0.1l0.2-0.1l0.2-0.1c0.1,0,0.1-0.1,0.2-0.1l0,0l0.2-0.1c0.1,0,0.1-0.1,0.2-0.1v0
	l0.2-0.1v0l0.2-0.1l0.2-0.1c0.1,0,0.1-0.1,0.2-0.1v0l0.2-0.1v0l0.2-0.1l0.2-0.1c0.1,0,0.1-0.1,0.2-0.1l0,0l0.2-0.1
	c0.1,0,0.1-0.1,0.2-0.1v0c0.1,0,0.1-0.1,0.2-0.1v0l0.2-0.1v0l0.2-0.1c0.1,0,0.1-0.1,0.2-0.1l0,0c0.1,0,0.1-0.1,0.2-0.1v0
	c0.1,0,0.1-0.1,0.2-0.1l0,0c0.1,0,0.1-0.1,0.2-0.1h0c0.1,0,0.1-0.1,0.2-0.1l0,0l0.2-0.1c0.1,0,0.1-0.1,0.2-0.1l0,0
	c0.1,0,0.1-0.1,0.2-0.1l0.2-0.1l0.2-0.1l0.2-0.1l0.2-0.1c0.1,0,0.1-0.1,0.2-0.1c0.1,0,0.1-0.1,0.2-0.1l0.2-0.1
	c0.1,0,0.1-0.1,0.2-0.1c0.1,0,0.1-0.1,0.2-0.1c0.1,0,0.1-0.1,0.2-0.1l0.2-0.1c0.1,0,0.1-0.1,0.2-0.1c0.1,0,0.1-0.1,0.2-0.1
	c0.1,0,0.1-0.1,0.2-0.1c0.1,0,0.1-0.1,0.2-0.1c0.1,0,0.1-0.1,0.2-0.1c0.1,0,0.1-0.1,0.2-0.1c0.1,0,0.1-0.1,0.2-0.1
	c0.1,0,0.1-0.1,0.2-0.1c0.1,0,0.1-0.1,0.2-0.1c0.1,0,0.1-0.1,0.2-0.1c0.7-0.6,1.3-1.2,1.9-1.9c0.5-0.5,0.9-1.1,1.4-1.6
	c0.1-0.1,0.4-0.7,0.6-0.9c1.1-3.6,1.3-7.3,0.5-11c-0.1-0.5-0.6-0.9-0.8-0.9l-11.6-3.8C216.5,188.9,216.2,189,216,189.1"/>
<path id="path20" class="st2" d="M200.5,30c41.1,0,74.5,56,74.5,125c0,69-33.4,125-74.5,125c-41.1,0-74.5-56-74.5-125
	S159.4,30,200.5,30z M200.5,33.2c39.7,0,72,54.5,72,121.8c0,67.2-32.2,121.8-72,121.8c-39.7,0-72-54.5-72-121.8
	C128.5,87.8,160.8,33.2,200.5,33.2z M200.5,36.3c34.8,0,63.6,44,68.5,101.3c-7.7-30.6-35.5-53.3-68.5-53.3
	c-33,0-60.8,22.7-68.5,53.3C136.9,80.3,165.7,36.3,200.5,36.3z M236,62.9v10.4c-1.2-0.9-2.5-1.8-3.5-3c-0.6-0.7-0.9-2.1-0.9-4.3
	v-4.6c0-1.9,0.1-2.4,0.7-2.2C233.6,59.8,235.1,61.8,236,62.9z M243.2,94.8V67.4c-1.9-3.5-8.8-13.1-14.3-15.9c-1-0.5-2-0.6-2.8-0.6
	c-1.3,0-1.9,1.9-1.9,5.4v4.4c0,4.4,0.8,7.5,2.3,9.1c0.6,0.6,1.3,1.3,2.2,2l-5.5,12.8l7.6,3.1l5.2-10.9v13.6L243.2,94.8z M209.2,81.4
	l-7.3-0.5V40.2l11.6,2.3c3.2,0.6,6.2,3.4,6.9,6.5c0.2,0.9,0.4,2.4,0.4,4.3v9.7c0,3.5-0.3,6.3-4.6,5.6c-0.9-0.2-3.3-0.7-7.1-1.4V81.4
	z M209.2,46.3v15.6l2.2,0.4c2.1,0.4,2.1-0.8,2.1-2.5v-9.3c0-1.7-0.1-3.2-2.1-3.7L209.2,46.3z M188.5,47.4l-2.3,19.8l4.4-1
	L188.5,47.4z M199.7,80.8l-7.4,0.5l-1.1-9.9l-5.7,1.2l-1.3,10.1l-6.5,1.9l5.5-40.7l10.8-3.4L199.7,80.8z M164.3,69.5l-6.9,7.2v-3.9
	c0-2.1,0.6-4.4,1.9-6.9c1.3-2.5,3.6-5.9,7.3-9.8c3.1-3.2,5.6-4.8,7.1-4.9c1.5-0.1,2.2,1.1,2.2,3.5v5.9c0,1.8-0.4,3.3-1.3,4.7
	c-0.9,1.4-2.5,3-4.7,5c2.5-1,4.1-1.3,4.8-1c0.8,0.3,1.2,1.5,1.2,3.5v4.7c0,3.2-0.5,5.5-1.6,7c-1.2,1.7-3.9,3.3-7.9,5.4
	c-3.9,2.1-6.4,3.3-7.5,3.3c-1.2,0-1.8-1.1-1.8-3.3v-4l7.2-6.1v4.5c0,2,0.7,2.5,2.2,1.6c1.6-0.9,2.3-1.8,2.3-3.6v-6
	c0-3.7-3-0.9-4.5,0.3v-3.8l0.9-0.8c2.3-2,3.6-3.8,3.6-5.7v-4.5c0-1.6-0.1-3.6-2.1-1.6c-1.5,1.5-2.3,2.9-2.3,5V69.5z M187,91.1v8.9
	h-2.2v-7.5l-3.1,2.3l-1.3-1l3.9-2.7H187z M190.1,97.5h2.2c0,0.3,0,0.6,0.1,0.7c0.1,0.2,0.3,0.3,0.5,0.4c0.2,0.1,0.6,0.1,1,0.1h1
	c0.5,0,0.9,0,1.2-0.1c0.3-0.1,0.5-0.2,0.6-0.4c0.1-0.2,0.2-0.4,0.2-0.8v-1.8c-0.3,0.4-0.6,0.6-1,0.7c-0.4,0.1-1,0.2-1.7,0.2
	c-1,0-1.9-0.1-2.5-0.2c-0.6-0.1-1.1-0.4-1.4-0.8c-0.3-0.4-0.4-0.9-0.4-1.6c0-0.5,0.1-1,0.2-1.3c0.1-0.4,0.4-0.7,0.7-0.9
	c0.3-0.2,0.8-0.4,1.4-0.5c0.6-0.1,1.4-0.2,2.3-0.2c1.1,0,1.9,0.1,2.6,0.2c0.7,0.2,1.2,0.4,1.5,0.9c0.4,0.4,0.5,1,0.5,1.8l0,3.1
	c0,0.6-0.1,1.1-0.3,1.5c-0.2,0.4-0.5,0.7-0.8,0.9c-0.4,0.2-0.8,0.4-1.4,0.4c-0.6,0.1-1.3,0.1-2.1,0.1c-0.8,0-1.4,0-1.9-0.1
	c-0.5-0.1-1-0.2-1.4-0.3c-0.4-0.2-0.7-0.4-0.9-0.8C190.2,98.6,190.1,98.1,190.1,97.5z M197,93.8c0-0.4-0.1-0.7-0.2-0.9
	c-0.1-0.2-0.4-0.3-0.7-0.4c-0.3-0.1-0.9-0.1-1.5-0.1c-0.6,0-1.1,0-1.5,0.1c-0.3,0.1-0.6,0.2-0.7,0.4c-0.1,0.2-0.2,0.5-0.2,0.9
	c0,0.3,0,0.6,0.1,0.8c0.1,0.2,0.2,0.3,0.3,0.4c0.2,0.1,0.4,0.2,0.7,0.2c0.3,0,0.7,0.1,1.3,0.1c0.7,0,1.3,0,1.6-0.1
	c0.3-0.1,0.5-0.2,0.6-0.4C196.9,94.6,197,94.3,197,93.8z M210.4,98.7v1.3h-9.1v-1.8c0-0.5,0.1-1,0.3-1.3c0.2-0.3,0.4-0.6,0.7-0.7
	c0.3-0.2,0.7-0.3,1.1-0.4c0.4-0.1,1-0.2,1.8-0.3c0.8-0.1,1.4-0.2,1.8-0.2c0.4-0.1,0.6-0.2,0.9-0.4c0.2-0.2,0.3-0.6,0.3-1
	c0-0.4-0.1-0.8-0.2-1c-0.1-0.2-0.4-0.4-0.7-0.4c-0.3-0.1-0.8-0.1-1.4-0.1c-0.7,0-1.2,0-1.5,0.1c-0.3,0.1-0.6,0.2-0.7,0.5
	c-0.1,0.2-0.2,0.6-0.2,1.1v0.3h-2.2v-0.4c0-0.8,0.1-1.4,0.4-1.8c0.3-0.4,0.7-0.7,1.4-0.9c0.6-0.2,1.6-0.2,2.8-0.2c0.8,0,1.5,0,2,0.1
	c0.5,0.1,1,0.2,1.4,0.4c0.4,0.2,0.7,0.5,0.9,0.9c0.2,0.4,0.3,0.9,0.3,1.5c0,0.6-0.1,1.2-0.4,1.5c-0.2,0.4-0.6,0.7-1,0.9
	c-0.4,0.2-0.9,0.3-1.3,0.4c-0.4,0.1-1.2,0.2-2.4,0.3c-0.5,0.1-0.9,0.1-1.2,0.2c-0.2,0.1-0.4,0.2-0.5,0.4c-0.1,0.2-0.1,0.4-0.1,0.8
	v0.2H210.4z M216.4,96.1v-1.3h1.3c0.6,0,1,0,1.2-0.1c0.2-0.1,0.4-0.2,0.5-0.3c0.1-0.2,0.1-0.5,0.2-0.9c0-0.3-0.1-0.6-0.2-0.7
	c-0.1-0.2-0.4-0.3-0.7-0.3c-0.3-0.1-0.8-0.1-1.4-0.1c-0.7,0-1.2,0-1.5,0.1c-0.3,0.1-0.5,0.2-0.6,0.5c-0.1,0.2-0.2,0.6-0.2,1h-2.2
	c0-0.7,0.1-1.3,0.4-1.8c0.3-0.4,0.7-0.7,1.4-0.9c0.6-0.2,1.5-0.3,2.5-0.3c1.2,0,2.1,0.1,2.7,0.2c0.7,0.2,1.2,0.4,1.4,0.7
	c0.3,0.3,0.4,0.8,0.4,1.4c0,0.4,0,0.8-0.1,1c-0.1,0.3-0.3,0.5-0.6,0.7c-0.3,0.2-0.7,0.3-1.2,0.4v0.1c0.5,0.1,1,0.2,1.3,0.3
	c0.3,0.1,0.5,0.4,0.6,0.6s0.2,0.6,0.2,1c0,0.5-0.1,0.9-0.2,1.2c-0.1,0.3-0.4,0.6-0.7,0.8c-0.3,0.2-0.8,0.4-1.4,0.5
	c-0.6,0.1-1.4,0.2-2.3,0.2c-1.2,0-2.1-0.1-2.8-0.3c-0.7-0.2-1.2-0.5-1.5-0.8c-0.3-0.4-0.4-0.9-0.4-1.5V97h2.1c0,0.5,0.1,0.9,0.2,1.1
	c0.1,0.2,0.3,0.4,0.7,0.5c0.4,0.1,0.9,0.1,1.7,0.1c0.7,0,1.2,0,1.5-0.1c0.4-0.1,0.6-0.2,0.7-0.4c0.1-0.2,0.2-0.5,0.2-0.8
	s-0.1-0.6-0.2-0.8c-0.1-0.2-0.3-0.3-0.6-0.3c-0.3-0.1-0.7-0.1-1.2-0.1L216.4,96.1z M178.3,219.5L178.3,219.5
	c-1.3-0.4-2.5-0.9-3.8-1.4l0.6-0.8C176.2,218.2,177.2,218.9,178.3,219.5L178.3,219.5z M172.3,215.1l-1.3,1.5c-1.3-0.6-2.5-1.3-3.8-2
	l2.4-2.2C170.5,213.4,171.4,214.3,172.3,215.1z M167.2,209.7l-3.6,2.8c-1.3-0.8-2.5-1.7-3.8-2.6l5.1-3.2
	C165.7,207.7,166.4,208.7,167.2,209.7L167.2,209.7z M163.1,203.5l-6.7,3.5c-1.3-1.1-2.5-2.2-3.7-3.4l8.8-3.6
	C161.9,201.3,162.5,202.4,163.1,203.5z M160.1,196.7l-10.8,3.5c-1.2-1.4-2.3-2.8-3.4-4.2l13.2-2.9
	C159.4,194.2,159.7,195.5,160.1,196.7L160.1,196.7z M158.4,189.4l-15.6,2.1c-1.1-1.7-2-3.4-2.9-5.1l18.1-0.8
	C158.1,186.9,158.2,188.1,158.4,189.4L158.4,189.4z M158,181.9l-20.6-0.8c-0.8-2-1.5-4-2.2-6l23,3C158.1,179.4,158,180.6,158,181.9z
	 M158.8,174.5l-25.2-5.5c-0.5-2.2-0.8-4.5-1.1-6.8l27.2,8.5C159.4,172,159.1,173.2,158.8,174.5L158.8,174.5z M161,167.3l-28.8-11.8
	c0-0.2,0-0.3,0-0.5c0-2.3,0.1-4.6,0.3-6.8l30,15.6C162,164.9,161.5,166.1,161,167.3z M164.4,160.6l-30.8-19.5c0.5-2.5,1.2-5,2-7.4
	l31,23.7C165.8,158.5,165.1,159.5,164.4,160.6z M169,154.6l-30.6-27.9c1.1-2.4,2.4-4.8,3.8-7.1l29.6,32.2
	C170.7,152.8,169.8,153.7,169,154.6z M174.5,149.5l-28-36.2c1.7-2.2,3.5-4.3,5.5-6.2l25.7,40.2C176.5,148,175.5,148.7,174.5,149.5z
	 M180.8,145.5l-23-43.7c2.2-1.8,4.5-3.4,6.9-4.9l19.5,47C183.1,144.3,181.9,144.9,180.8,145.5z M187.7,142.6l-13.8-43.2
	c2.1,1.3,5.2,2.5,8.9,3.4l8.7,38.8C190.2,141.9,188.9,142.2,187.7,142.6z M195,141l-5-36.9c2.3,0.3,4.7,0.5,7.2,0.6l1.6,36
	C197.6,140.7,196.3,140.8,195,141z M202.5,140.7l1.4-36c2.5-0.1,4.9-0.3,7.2-0.6l-4.8,36.9C205.1,140.8,203.8,140.7,202.5,140.7z
	 M209.9,141.7l8.5-38.9c3.7-0.9,6.7-2.1,8.8-3.4l-13.6,43.3C212.4,142.3,211.2,141.9,209.9,141.7z M217,143.9l19.3-47.1
	c2.4,1.5,4.7,3.1,6.9,4.9l-22.8,43.9C219.3,145,218.2,144.4,217,143.9z M223.6,147.4l25.5-40.4c1.9,2,3.8,4,5.4,6.2l-27.8,36.4
	C225.7,148.8,224.6,148.1,223.6,147.4L223.6,147.4z M229.4,152l29.5-32.4c1.4,2.3,2.6,4.6,3.7,7.1l-30.5,28
	C231.3,153.7,230.4,152.8,229.4,152z M234.4,157.4l30.9-23.9c0.8,2.4,1.5,4.9,2,7.4l-30.8,19.7C235.9,159.5,235.2,158.5,234.4,157.4
	z M238.4,163.7l30.1-15.8c0.2,2.3,0.4,4.7,0.4,7.1l0,0.1l-28.8,12C239.5,166,238.9,164.8,238.4,163.7L238.4,163.7z M241.2,170.5
	l27.3-8.7c-0.2,2.3-0.6,4.5-1,6.7l-25.3,5.7C241.9,172.9,241.5,171.7,241.2,170.5z M242.7,177.7l23.2-3.1c-0.6,2-1.3,4-2.1,6
	l-20.8,0.9C243,180.2,242.9,179,242.7,177.7L242.7,177.7z M243.1,185.1l18.4,0.7c-0.9,1.7-1.8,3.4-2.9,5.1l-15.9-2.1
	C242.9,187.6,243,186.3,243.1,185.1L243.1,185.1z M242.1,192.4l13.5,2.9c-1.1,1.4-2.2,2.9-3.3,4.2l-11.2-3.5
	C241.5,194.8,241.8,193.6,242.1,192.4z M239.9,199.4l9.1,3.7c-1.2,1.2-2.4,2.3-3.6,3.4l-7.1-3.7
	C238.9,201.7,239.4,200.5,239.9,199.4L239.9,199.4z M236.6,205.9l5.4,3.4c-1.2,0.9-2.4,1.8-3.7,2.6l-3.8-2.9
	C235.2,208,235.9,207,236.6,205.9z M232.1,211.7l2.6,2.4c-1.2,0.7-2.5,1.4-3.7,2l-1.6-1.7C230.4,213.6,231.3,212.7,232.1,211.7z
	 M226.8,216.7l0.8,1c-1.2,0.5-2.4,1-3.7,1.5l-0.2-0.3C224.7,218.2,225.8,217.5,226.8,216.7"/>
</svg>
